<svg id="Layer_1" data-name="Layer 1" xmlns="http://www.w3.org/2000/svg" viewBox="0 0 1024 1024"><circle cx="512" cy="512" r="251.82" style="fill:#e73b4c"/><path d="M690.86,595.9c.41-.49-1.19-1-1.42-1.26C689.31,595.72,691.26,596.07,690.86,595.9Z" style="fill:#fff"/><polygon points="689.38 606.7 688.88 606.2 689.58 608.35 689.38 606.7" style="fill:#fff"/><path d="M684.38,615c2.92.74,1.47-3.22,3.21-4.17l.71.09-1.58-1.84C686,611,685.85,614.15,684.38,615Z" style="fill:#fff"/><path d="M676.44,615.9c1.09.36.2,1.44.93-.79a2.73,2.73,0,0,1-.36,0A3.51,3.51,0,0,1,676.44,615.9Z" style="fill:#fff"/><path d="M677,615.14c.48-.88-1.13,0,0,0Z" style="fill:#fff"/><path d="M675,619.3l-.09-1.64c-.69-.14-1.46.74-1.62.11C673,619.18,673.67,619.33,675,619.3Z" style="fill:#fff"/><path d="M676,621.52l0-.8C675.75,620.66,675.57,620.75,676,621.52Z" style="fill:#fff"/><path d="M676.12,619l-.08,1.71c.49.1,1.27.6.11-.74C676.78,620.56,676.28,619.86,676.12,619Z" style="fill:#fff"/><path d="M676.94,618.58c.93-.26,1.8-.85,1.87.81C679.91,617.06,678,616.27,676.94,618.58Z" style="fill:#fff"/><path d="M686.62,617l1.25-.42-.35-1.26C687.69,615.92,685.82,616.55,686.62,617Z" style="fill:#fff"/><path d="M669.06,625.08c.44.42,1.56.6,2.24,1l0-1.2C670.68,625,669.82,625.56,669.06,625.08Z" style="fill:#fff"/><path d="M671.3,626.07l0,1.79C672.15,626.88,671.89,626.4,671.3,626.07Z" style="fill:#fff"/><path d="M678.46,623.52c-.12-1.08-.28-2.17-.43-3.24.08,1.21.14,2.43.19,3.64Z" style="fill:#fff"/><polygon points="665.67 629.41 665.06 627.9 665.85 630.36 665.67 629.41" style="fill:#fff"/><path d="M663.6,632.41c-.53-1.19-2.05-.59-2.21-1.54-.45.9-.19,2.19,0,3.34C661.53,633.28,662.15,632.68,663.6,632.41Z" style="fill:#fff"/><path d="M661.58,636a7.9,7.9,0,0,0-.19-1.81A4,4,0,0,0,661.58,636Z" style="fill:#fff"/><path d="M669.53,629.66a2.65,2.65,0,0,0-2.07-.15l1.7.59Z" style="fill:#fff"/><path d="M669.22,630.12l-.06,0c-.41.47-.7.79-.83.93Z" style="fill:#fff"/><path d="M669.63,629.55l-.1.11C669.7,629.72,669.76,629.73,669.63,629.55Z" style="fill:#fff"/><path d="M675,625.79c.26,1.25,0,3.33,2.23,2.77C676.62,627.36,675.36,627.68,675,625.79Z" style="fill:#fff"/><path d="M671.76,630.28c.42-.34.85-.67,1.26-1-.38-.24-1.07-.41-1.2-1Z" style="fill:#fff"/><polygon points="671.73 631.21 671.76 630.28 671.29 630.65 671.73 631.21" style="fill:#fff"/><path d="M664.5,635a3.11,3.11,0,0,1-.71,2.3,6.91,6.91,0,0,0,2.1-1.74C665.55,635.14,665,634.24,664.5,635Z" style="fill:#fff"/><path d="M666.92,632.75c0,.06,0,.12,0,.18C667.08,633,667.16,632.92,666.92,632.75Z" style="fill:#fff"/><path d="M658.45,643.47l.32.11-.2-.22Z" style="fill:#fff"/><path d="M666.23,635.66c.68-.31.6-.89.43-1.51a5.53,5.53,0,0,1-.77,1.43C666,635.78,666.16,635.89,666.23,635.66Z" style="fill:#fff"/><path d="M660.74,638.26a6.61,6.61,0,0,0,1.45-.27C661.56,637.9,660.48,637.88,660.74,638.26Z" style="fill:#fff"/><path d="M666.4,632.81a.56.56,0,0,1,0-.13C666,632.62,666.13,632.71,666.4,632.81Z" style="fill:#fff"/><path d="M666.4,632.81a4.74,4.74,0,0,0,.26,1.34,3.74,3.74,0,0,0,.25-1.22A2.08,2.08,0,0,1,666.4,632.81Z" style="fill:#fff"/><path d="M664.86,652.72c-1.08-1.17-.92-3.47,1.37-3.53.15-2-4.44-4.63-7.46-5.61.47.49,1,.94.61,2.7,1,.21,3.8-1.23,4,.72-.77,2.11-1.56.9-2.86,1.07,2.05.7.31,3.89,2.74,5.55l.51-2.06C664.13,651.84,664.2,652.82,664.86,652.72Z" style="fill:#fff"/><path d="M660.82,641.5l.27-.6c-.68.35-1.5.32-3.05.21a2.7,2.7,0,0,0,.53,2.25l2.22-2.18Z" style="fill:#fff"/><path d="M662.93,638.74c1,1.49.56,3.14,2.59,3.63,1.12-1.52-.25-1.94-.1-3.28-1.62,2.59-.18-1.27-2.33-.24a5,5,0,0,1,.7-1.53,7.74,7.74,0,0,1-1.6.67l.13,0h0c.25,0,.37.1.19.13,0,0,0,.05,0,.07a3.11,3.11,0,0,1,.41.52c-.83.43-.43-.18-.41-.52-.06-.06-.1-.13-.17-.2h0c-.41,1-.8,1.94-1.23,2.89A5.64,5.64,0,0,0,662.93,638.74Z" style="fill:#fff"/><path d="M679.22,632.07a.82.82,0,0,1-.39-.15C678.89,632.2,679,632.35,679.22,632.07Z" style="fill:#fff"/><path d="M677.62,632.48c-.06-.32-.5-.88.08-1.37.79-.2.66.5,1.13.81-.1-.63-.08-2-1.57-1.36l.06.31c-1.21.66-3.88.62-3.94.3A14.18,14.18,0,0,0,677.62,632.48Z" style="fill:#fff"/><path d="M670.57,636.11l-.93,2.52,2-.08-.73-.51C672.06,637.12,671,636.68,670.57,636.11Z" style="fill:#fff"/><polygon points="657.62 643.11 656.49 641.65 657.43 644.43 657.62 643.11" style="fill:#fff"/><polygon points="655.6 645.63 654.52 644.46 654.64 645.73 655.6 645.63" style="fill:#fff"/><path d="M488.81,721.15l-.87.31A2.28,2.28,0,0,0,488.81,721.15Z" style="fill:#fff"/><path d="M494.5,722.19l.26-.75C494.43,721.83,494.28,722.13,494.5,722.19Z" style="fill:#fff"/><path d="M592.09,691.14c-1.56-1-3.49-2.67-2.7-1.07l1,1.49A1.64,1.64,0,0,1,592.09,691.14Z" style="fill:#fff"/><path d="M541.1,714.34l.37.5c.22-.61.42-1.19.6-1.71C541.78,713.51,541.45,713.91,541.1,714.34Z" style="fill:#fff"/><path d="M540.93,721.56l-1.61-1A5.07,5.07,0,0,0,540.93,721.56Z" style="fill:#fff"/><path d="M457.64,715.29l-1.45,1.38C457.6,717.13,457.26,716.08,457.64,715.29Z" style="fill:#fff"/><path d="M631.74,668.35a4.93,4.93,0,0,0-2.45.54C630.76,669,632.39,669.67,631.74,668.35Z" style="fill:#fff"/><path d="M494,703.34a1.23,1.23,0,0,0-.78.94C493.71,704.06,494,703.78,494,703.34Z" style="fill:#fff"/><path d="M627.19,670.47a4.54,4.54,0,0,0,.63,0,3.86,3.86,0,0,1,1.47-1.62C628.19,668.78,627.19,669,627.19,670.47Z" style="fill:#fff"/><path d="M362.08,654.05c0-.12,0-.21,0-.33C361.87,653.86,361.94,654,362.08,654.05Z" style="fill:#fff"/><path d="M354.24,618.43a5.52,5.52,0,0,1,.89.91C355.08,619.09,354.84,618.8,354.24,618.43Z" style="fill:#fff"/><path d="M646,654.29c.41-.55-.05-.21,0,0Z" style="fill:#fff"/><path d="M653.15,656.9a1.42,1.42,0,0,0,.39.79A1.82,1.82,0,0,1,653.15,656.9Z" style="fill:#fff"/><path d="M627.73,683.31l-.05,0C628.05,683.5,628,683.46,627.73,683.31Z" style="fill:#fff"/><path d="M647.25,654.15a3.13,3.13,0,0,0-1,.24A3.35,3.35,0,0,0,647.25,654.15Z" style="fill:#fff"/><path d="M646.59,653.66c.22-.11.38-.21.54-.3C647,653.1,646.81,653,646.59,653.66Z" style="fill:#fff"/><path d="M645.35,655a2.61,2.61,0,0,1,.92-.63c-.18,0-.29,0-.3-.1C645.85,654.45,645.67,654.67,645.35,655Z" style="fill:#fff"/><path d="M412.34,687.84c0-.08,0-.14,0-.23C411.29,687.85,411.62,687.92,412.34,687.84Z" style="fill:#fff"/><path d="M580.81,714.35s0-.07.06-.1l-.13,0Z" style="fill:#fff"/><path d="M578.6,716.38c.5-2.41,1.18-2.34,2.14-2.16l-2.29-4.53Q578.55,713,578.6,716.38Z" style="fill:#fff"/><path d="M475.13,718.84l1.49,2c-2.82,1.94-4.27.67-3,3.24.78-2.62,2.6-2.27,4.45-2s3.71.48,4.38-2.15l1,1.37c-.34-.12-.46.18-.79.06.94,1.52,1.58.65,2.33-.43s1.62-2.36,3.08-1.74c1,.58,1.61,1.49.77,2l2.61-.93a.48.48,0,1,1-.32.9l3.71.17-.05.15A20,20,0,0,1,497.4,719c.82.89-.54.51-.39,1.22l2.17-1.06c.65,1.5-1.19,2.65-2.57,2.27,1.21,5.62,1.85-1.14,5.58,2.51l-2,.45c.9,3.22,2.55,2.3,4.6,4.38-.47-1-3.94-5.22-1.57-6.35.58.46,1.39.73,2.68-.26-.17,1.92,1.05,1.55,2.52,1.56l-.3,2.55c1.66-.61,1.62-1.92,2.63-3,1.74.36,2,2.34,2.33,4,2.85.53-1.79-3.26,1.59-3.6a4.48,4.48,0,0,0,3.23.29,16.85,16.85,0,0,0,3.61-1.67c1.63.89-.3,1.56.28,2.3l1.47-2c.36,0,.24.68.18,1,1.23-.79.11-2.55,2-3.24.25-1.42,1.22-.38,2.45.6s2.72,1.81,3.84.16c.61.71-.22,1.58,0,2.56,3.18-2.24,2.75-1.59,5.22-4.6l2.37,1.49c-1.8-1.78.16-4.22,1.78-6.23a24.5,24.5,0,0,0-1.56-2l2.71-1.6c.38.39.19,1.29-.18,2.39a7.28,7.28,0,0,0,.46-.66c1.11.86.74,2.37.13,3.86-.4-.47-.8-1-1.19-1.49a10.05,10.05,0,0,0-.82,4.86,1.92,1.92,0,0,1,.9-.77,1.65,1.65,0,0,0-.13,1.07c.13.26.39-.33.81-1l.94,2.78.06-1.14c1.36.52,2.71.89,4.09,1.34,2.47-3.21,4.25-7.63,8.26-9.55-.7,2.24.34,3.41.69,5.86-.81-1.19-1.59-.78-2.49-.08a16.26,16.26,0,0,1-1.43,1.09,2.7,2.7,0,0,1-1.64.44,1.16,1.16,0,0,1,.88,1.77c1.26-.93,2.49-2,3.71-3,.23,2,1.1,1.35,2.31,2-1.48-3.84,2.56-3.08,3.93-4.68.36,1.29.25,2.77-1.82,2.8,2.8,2.57,1.92-5.2,4.56-3.12-.48.13-.78,0-.83.7.88-1.41,3.82-1.08,3.44.2l-.48.14a16.45,16.45,0,0,0,6.08-1.72c2-1,3.44-2.39,3.21-4.08a38.16,38.16,0,0,1,.69,4.77c.87-4.2,1.61-8.46,2.24-12.64.37,2.94,4.37,9,2.24,11.38a2.94,2.94,0,0,0,3.24-1.13c-.65-.24-2.57-3.63-2-4.1,2.91,2.51,1.84,1.24,5.08,3.05-1-.33-1.61-5-.4-5.23,0,.71,1.61,4.23,1.33,4.83.5-1.77,1-3.53,1.43-5.28-.45,1,1.18,3.63,2.31,4.58-.61-.69,2.59-.93,3.22-1.66l-1.63-.47c3.58-.73.9-7.15,4.13-8.27,0,1,1.3,5.69,3.17,5.46-.08-1.22-.37-4.13-.43-7.07s.12-5.88,1-7.34l1.08.94,1.35-2.36a60.3,60.3,0,0,1-.06,7.9,47,47,0,0,1-1.1,7.71c1.65.39,1,1.26,2.77.32,1.18.82-.22,2.15-.74,2.47,1.54-.43,3.13-.79,4.66-1.29-1.35-2.33,2.06-4,.88-6-1.09,1.58-2.19,3.2-3.34,4.77-1.29-2.32-.68-8.18,2.39-9.18,1.23.58,1.63,4.54,2.09,5.31,0-1,2-3,2.55-2.57-.18.65-.37,1.31-.56,1.94,2.12,0,1-4.58,4.12-3.39.74-.21,3.72,1.91,3,.46-2.64-2.05-7.48-10.22-7.94-12.59.32.1,4.7.61,6.22,1.48,2.3,1.43,1.38,5.86,3.33,7.1a4,4,0,0,1-.12-2.18c1,.12.9,2.11,2.21.94-1.17-2.46,3.11-1.65-.51-2.39,1-1.54,1.8-.48,3.4-1.65-1.47-1.15-1.8-6-.88-7.51a4.31,4.31,0,0,0,1.49,1.42c2.88-1.75,5.13-1.72,7.67-3.61.62.36,2.33.07,2.51,1.4.08-.66-.14-1.65.6-2.29,3,.72-1.53,1.61,1.34,3-.86-1.35.75-3.25,1.2-4.93-1.83-1.63-2.82,1.6-3.36,3.23a9.09,9.09,0,0,1-1.68-4.88,11.24,11.24,0,0,1,1-5.27c1.45-2.24,2.23,1,2.28.36,2.07-1.27,1.9-3.08,1.78-4.62s-.17-2.83,2.12-3.19c2.6.59,2.89,3.16,4.17,4.1-1.06,2-3.35,1.08-4.36,2.06l2-.37c0,1-.77,2.32-1.75,2.34,1.13.31,2.76-1,4.61-2.46s3.82-3.3,5.84-3.92c0-1,.31-2.33-.68-2.58l-.64,1c-2-.51-.05-3.28-1.68-2.84.3-2,.21-4.55,2.47-5.39l2,1.44c-.54-.46-2,0-2,1-.09-1.39,4.76-.07,3.18-3l-2.29-.09c.22-2-.29-5.14,1.56-6-2.35-1-.09.53-3.08-.46,3.36,1.61-3.52,3.38.45,4.63-3.31-1.32-2.69.75-6,0,.61.54,1.54.66.12,1.48a3.49,3.49,0,0,1,.24.76l-.12,0h.13c0,.14,0,.16,0,0a2.73,2.73,0,0,1,1.44.32c.71,1.88-1.17,3.66-1.18,4.93-1,.37-.33-.95-1.31-1.23l0,1.93c-1.32-1.23-3.88-.5-2.94-2.78l-1.54,1.29c-1.53.06-3,.78-3.29,2-1,.31-.52,3.07-.8,1.46-.55,1-1.11,1.93-1.7,2.87l-.31-.33c-1.28.88-2.06,2.47-3.13,3.8a5.25,5.25,0,0,1-4.87,2.08,4.72,4.72,0,0,1-2.86,2.65l-1.17-1.07c-.78,1.22-4.13,1-3.72,2.63-1.76-1.35-3.21-.68-4.53.42s-2.58,2.54-3.75,2.83l1,1.79a7,7,0,0,0-1.94,1.5c-.61.62-1.22,1.34-1.91,2.18l1,1.51c-.84,2.13-4.54,1.08-6.92,2.43-.14-.7.56-.85,1.19-.7-2.39-1.07-3.58.34-4.72,1.89s-2.27,3.1-4.23,2.37a1.18,1.18,0,0,1-1.65.73.25.25,0,0,0,.13-.17,1.14,1.14,0,0,0-.28.11c-.42-.15-.87-.34-1.32-.47a3.62,3.62,0,0,0,1.17.54,6.86,6.86,0,0,0-1.85,1.53l-1.07-1.65c-.05.05-.1.07-.16.12-1-.35-.27,1.1.69,2.27a4.71,4.71,0,0,0-.62,1.5c-1.78-2.63-1.72,1.83-3.77-.92,0,1.71-3.62,2.57-2.94,5.94-.17-.4-.49-.52,0-.7-1,0-2.07-.09-2.59,1.11l-1.16-2.2-1,3.76c-1.69-1.05-2.43-1.73-1.79-3.9-2.06,3.66-2,1.79-3.74,5.28l-.31-1.56c-.88.29-1.78,2.72-2.67,1.6a3.87,3.87,0,0,0-2.84-.69,17.93,17.93,0,0,0-1.88.26c-.67.09-1.38.22-2.11.36-1.47.27-3,.57-4.59.71a11.88,11.88,0,0,1-4.54-.48c1.79,4.43-2.76-1.65-2.4,2-.47-1-1.29-1.53-.59-2.62a4.5,4.5,0,0,1-3.24.37c-.92-.08-1.7.07-2.44,1.7-.44-1.06.38-1.68,0-2.3-.19.27-.74,1.06-1.09.44s.28-1,.64-1.49c-2.65.52-2.59,3.93-2.48,7.12-1.57-1.39-2.23-1.12-3.09,1-.59-1-1.49-2,.21-2.53-1-.07-6-1-6,1.46-.34-.64-1.38-.14-1.62.17a17.38,17.38,0,0,0-4.56,0l.61.39c-.8,3.14-1.8.7-3.55,1.08l0-.32c-4-2.25-1.76,1.09-5.66-1.51l.16,1.92c-.5,4.11-3.44-2.58-5.78-1.1l.77,1.13c-.67.67-1.48-.76-2.24-2.45s-1.49-3.66-2.08-4c-.24-.38.47-.54.86-.77-3-2.7-.6,2.47-3.06,2.85-.33-1.39.86-3.39-.71-3.78-.35-.59-1.61.46-3,1.19s-3.05,1.26-4-.16c.35,1.09.71,2.19-.52,2.83-.88.07-1.92-1-3-1.82s-2.09-1.24-3.13.26a1.35,1.35,0,0,1-.17-.86c-1.44.61-4.48.72-5.61,2.27,0-3.38-2.13-3-4.18-2.54s-4,1-3.27-2l-4-.66.26-.58c-2.42-1-3.67.14-5,1.3-.47-.57.11-1,.25-1.29-1.67-1.12-2.6-1.64-3.62-1.63s-2.11.56-4.1,1.49l.29-2c-.59.41-1.67-.76-3.11-1.9s-3.23-2.3-5.37-1.88a1.51,1.51,0,0,1,.69-.69c-2.36.34-4.27-1.75-5.95-3.33s-3.32-2.37-5.46.65c-1.1.2-2.19.36-3.28.51,3.09,2-1.76,2.63-.88,4.36-1.5-.23-2.51-3.56-.74-3.15l.1.44c2.13-3.16-3.56-3.1-2.38-5.38a31.5,31.5,0,0,1-4.64-2.53c-1.47-1-2.93-1.92-4.31-3-2.74-2.14-5.45-4.17-8.2-6l-.84,2.91L418,678.34c-.17-.9.49-2.38,1.84-1.43.12-1.86-3.08-.23-3.47.28-2.14-2.67,2.88-2.25,2.06-2.83l-1.26-.5.08.45c-1.56.46-2.31,1.46-3.9.26-.74-1.18.44-1.87.09-2.23.11-.18,0-.35-.59-.49l-2.28-1.79-.31,2.56c-1.72.24-2.24-1.6-2.57,1.31.61-4.45-8.15-7.46-8.34-9.29-2.45.24-3.89-.86-5.52-2.4.13.73-1.22,3-2.53,1.5,3.9-3.74-1.28-4.06,0-8-.29,1.41-1.44.68-2.6.1s-2.29-1.06-2.66,1c-.92-1.39,1.24-1.58,1.16-3.34-2.1-.47-3.47-2.09-4.75-3.95s-2.45-4-4.38-5.32c-.55.45-.72,1.77-2.19,1.82.21-1.4.47-2.84.72-4.25-.88-.41-3.47,2.26-2.92-.67-.26.59-.64,1.47-1.24,1.18a22.89,22.89,0,0,0-4-5.81c-1.56-1.74-3.39-3.27-5-5a31.59,31.59,0,0,1-4.48-5.5,16.2,16.2,0,0,1-2.17-7.25c-.3,1.82-.92,1.25-1.56.52.13.69-1.39,1-2.06,1.73-.13-1.56-.2-3.15-.26-4.73-2.54,1-2.62-3.27-4.91-2.12L349,615c-3.42.39-4,5.79-7.2,7.89,1.93-.23,1.67,1.54,1.67,3.34s.32,3.6,3.22,3.34c-.18,1-1.34.3-1.81,1.14,1.79-.38,2.66.17,3.21,2.05l-.45.09a19.93,19.93,0,0,1,3.56,5.19,53.45,53.45,0,0,0,3.17,6.23l1.12-1.58a3.8,3.8,0,0,1,.42,2.42c3.08-.89-2.22-2.67,1-3.83-1.76,3.78,5.75,6.42,3.42,10.19,1.32,1.38,1.18-1.93,2.49-.55l-.49,1.19,1.43-.73a3,3,0,0,1-.6,3.3c-.13-.3-.81-.42-1.1-.59.15,2.16,3.57,2.93,3.67,3.62l-.82-1.79a45.45,45.45,0,0,1,6.41,5.4,18.74,18.74,0,0,0,7.12,4.36l.3-.93c2,.64,2.39,1.3,2.78,2.09a5.33,5.33,0,0,0,2.63,2.72l-.26.07a3.76,3.76,0,0,1,3.18,1c-1.49.16.29,2.84-1.52,2.89,4.4,1.12,2.51.15,6.68-.84l-.4,1.56c1.55-.51,2-1,3.9-.09-2.11,0-.28,2.62-2.8,2.82.8,2.62,2.66,2.88,4.1,3.14s2.54.48,2,3c4-2.23-1.81-4.06-.39-4.14,0-1.63,3.11-1.56,4-.45,1.07.87-1,5.65,2,7.54-.29-.2-.48,0-.76-.16.55,1.6,2.94.22,3.39,2.55,2.09-1.64,1.74,1.21,3.62-1.35-1-.35-2.11-.67-3.13-1.07,2,.31,5.39-2,7,1.06a5.75,5.75,0,0,1-2.49.78c.28,1.25,1.77.34,2.06,1.63-1.84,2.59-3.71-1.43-6.67-.39.12,1.63,4.4,0,1.77,2.39,3.48-3,2.73,2.31,6.49.63l-1.09,1.57c.49-.07,1.62-.47,2.21-.09l-2.33,1.53c2.74-.88,2.42,3.43,4.64,3.35-3.49-1.86.31-2.43-.47-4.45,5.42.07,0,5.77,5.35,7.44-.78-.1-1.95-2.27-.52-2.53a6.4,6.4,0,0,1,1.76,3.26c3.41,1.28.38-2,2.27-2.35.07,2.62,2,0,3.71,0l-.82,1.75c3.19,2.83,2.69-3.19,5.37-.31L433.55,703l2,.17L434.31,705c2.59-.61,3,.08,4.64,1.42.1-1.44,1.63-3.12,3.3-2.49.69,1.53-1.34,1.43,1.13,2.16-1,.9-2.17,2-2.51,0-.35.53-1,.89-1.36,1.42.73,1.73,3,1.57,3.88,1.92a1.77,1.77,0,0,1-.77-.81c1.49-.36,3-.67,4.45-1.09.28.88-.36,1.26-1,1.63.78.07,1.59-.58,2.69-.34-.83,1.36-1.33,2.9-3.09,3l4-.37c0,.72,1.08,2.4.44,2.78,1.58,1.61,5.63-1.25,7.74.72a1.64,1.64,0,0,1,1.17-.47c2.21,1.14,3.82,3.56,7.23,2.31l.85,3.17c2.39,0-1.22-4,2.72-4,2.84-.22.37,2.56,1.09,3.55,1.69-1,4.61-3.3,6.49-.48C476.46,719.38,475.93,718.82,475.13,718.84Zm28,3.56c-.59.36-1.81,1.45-2.08.28C501.94,720.55,502.29,721.68,503.16,722.4Zm42.31-4.76c-.32.68-1,.46-1.73-.2A1.8,1.8,0,0,1,545.47,717.64Zm96-57.14a.43.43,0,0,0,0,.11C640.2,660.77,640.7,660.74,641.52,660.5Zm2.28-.92a.74.74,0,0,0-.45-.68c.21.47-.16.85-.69,1.14C643.12,660.31,643.58,660.37,643.8,659.58Zm-231,13.21.11.67C411.73,673.36,412.25,673.1,412.79,672.79Z" style="fill:#fff"/><path d="M541,720.72a3,3,0,0,1-.32-1A.7.7,0,0,0,541,720.72Z" style="fill:#fff"/><path d="M457.9,715l-.07,0a1.44,1.44,0,0,0-.19.31Z" style="fill:#fff"/><path d="M623.51,695a2.32,2.32,0,0,1-1.37-.34C622.36,695.1,622.77,695.32,623.51,695Z" style="fill:#fff"/><path d="M650.37,648.74l-.68,1.41c.43-.58.91-.46,1.38-.51C650.73,649.35,650.07,649.09,650.37,648.74Z" style="fill:#fff"/><path d="M668,647.22c0-.32.3-.37.27-.7l-.72-.54C667,646.74,667.09,647.72,668,647.22Z" style="fill:#fff"/><path d="M655.92,652.24c1.24,1,1.53,0,2-1a.55.55,0,0,1-.12.14C656.41,649.59,656.17,650.91,655.92,652.24Z" style="fill:#fff"/><path d="M658.09,651a2.32,2.32,0,0,1,.64-.75C658.15,649.56,658.32,650.44,658.09,651Z" style="fill:#fff"/><path d="M645.25,656.8c.65,0-1.19-1.73-.53-1.43C643.72,653.48,644,659.41,645.25,656.8Z" style="fill:#fff"/><polygon points="660.37 655.33 658.66 654.22 659.39 655.78 660.37 655.33" style="fill:#fff"/><path d="M653.27,660.33l1.63-.8a.71.71,0,0,1-.14-.81C654,659.41,652.83,659.93,653.27,660.33Z" style="fill:#fff"/><path d="M654.76,658.72a1.7,1.7,0,0,0,.76-1.2A3.7,3.7,0,0,0,654.76,658.72Z" style="fill:#fff"/><polygon points="659.14 657.45 658.48 657.53 657.52 658.3 659.14 657.45" style="fill:#fff"/><path d="M639.1,672.26,638,673.89c.28.66.94.67,1.32,0C639.36,673.24,639.74,672.6,639.1,672.26Z" style="fill:#fff"/><path d="M647,672.83c-.67,0-1-.29-1.63-.61l1.55,1.94Z" style="fill:#fff"/><path d="M643.05,676.86c.29.66-1,3.33.87,1.65C643.65,677.85,644.8,676.19,643.05,676.86Z" style="fill:#fff"/><polygon points="617.46 690.7 617.86 690.43 615.74 686.95 617.46 690.7" style="fill:#fff"/><path d="M598.49,710.94c2.59,0-.44-2.51,2-2.22.13-1.09-2-.24-1.8-1.23C597.78,709,596.86,708.71,598.49,710.94Z" style="fill:#fff"/><path d="M598.7,707.49a5,5,0,0,0,.43-.84A2.25,2.25,0,0,0,598.7,707.49Z" style="fill:#fff"/><polygon points="352.97 613 352.83 611.38 352.25 612.91 352.97 613" style="fill:#fff"/><path d="M348.93,612.6l1.92-1.77-2.42.68C348.72,611.7,349.26,612.07,348.93,612.6Z" style="fill:#fff"/><path d="M506.9,728l.17-.61c-.18-.7-.54-.78-1.24-.94Z" style="fill:#fff"/><polygon points="486.48 723.34 486.82 723.45 486.58 721.03 486.48 723.34" style="fill:#fff"/><path d="M468.73,722.45c.67.26,1.62,0,2.3.23C469.4,722.71,469.29,719.57,468.73,722.45Z" style="fill:#fff"/><path d="M351.46,502.54c-1.55,1.19-3.47,2.55-5.77,4.1s-5,3.25-8.08,5.1q-4.19,2.4-7.39,4.14a51.91,51.91,0,0,1-5.38,2.6,28.09,28.09,0,0,1-6.73,2.12,39.8,39.8,0,0,1-7.27.66,11.25,11.25,0,0,1-2.6-.35c-.95-.23-2-.5-3.05-.81l-3.41-.93a12.67,12.67,0,0,0-2.32-.46l-.93-.93-2.24-.31a7.32,7.32,0,0,1-3.52-1.47,29.42,29.42,0,0,1-4.45-3.87,31.53,31.53,0,0,1-3.75-4.41,17.13,17.13,0,0,1-2.05-3.79l-2.09-6.65q-1.08-3.4-1.62-5.5a9.42,9.42,0,0,1-.47-2.71l.85-3.48c-.41-1.18-.73-2.16-1-2.94a6.69,6.69,0,0,1-.34-1.78c0-.41.13-1.67.38-3.79s.62-5.05,1.09-8.82c.36-.72.74-1.6,1.16-2.63a34.54,34.54,0,0,0,1.16-3.48l-.23-1.7a4.34,4.34,0,0,1,.27-1.43,17.68,17.68,0,0,1,.73-1.82c1.19-2.53,2.37-5.08,3.56-7.66s2.37-5.08,3.56-7.51a38.4,38.4,0,0,1,4-5.72q2.44-2.94,5.61-6.11c.47-.52,1-1.19,1.7-2s1.48-1.72,2.4-2.7a25.89,25.89,0,0,0,3.21-2.36c1.27-1.06,2.78-2.41,4.53-4.07.52-.2,1.13-.49,1.86-.85l2.63-1.31a6.18,6.18,0,0,0,1-.78c.38-.36.83-.74,1.35-1.16s2.63-1.28,6.19-2.32a33.36,33.36,0,0,1,7-1.54,30.6,30.6,0,0,1,6,.5,9.87,9.87,0,0,1,3.94,1.58l2.48.47c2.06.46,3.58,2,4.56,4.72s1.47,6.55,1.47,11.6c0,2.38,0,4.27-.07,5.69a23.88,23.88,0,0,1-.23,2.9q-.47,2.32-1.05,5.84c-.38,2.35-.89,5.07-1.5,8.17a18.2,18.2,0,0,1-1,4.06c-.65,1.88-1.48,4.21-2.51,7a72.25,72.25,0,0,1-2.78,6.92c-.77,1.58-1.42,2.44-1.93,2.6-2.06.51-4.28,1.08-6.64,1.7a7.36,7.36,0,0,1-2.4-.27.94.94,0,0,1-.7-.89,8.42,8.42,0,0,1,.27-1.7,8.6,8.6,0,0,0,.27-1.63c-.15-2-.3-3.94-.46-6a28.15,28.15,0,0,1,.62-4.25c.41-2.12,1-4.82,1.86-8.13q1.31-5.42,2.31-8.54a14.49,14.49,0,0,1,1.62-3.91,16.8,16.8,0,0,0,3.27-4,7.31,7.31,0,0,0,1-3.44,6.83,6.83,0,0,0-1.05-3.79,6.52,6.52,0,0,0-3.13-2.48c-1.34-.31-2.7-.6-4.06-.89s-2.72-.63-4.07-1a25.62,25.62,0,0,1-2.9.93l-2.2.54a20.74,20.74,0,0,0-9.94,4.8,44.54,44.54,0,0,0-9.1,10.9,70.87,70.87,0,0,0-5.72,12.11,57.23,57.23,0,0,0-2.94,12.19c-.21,1.24-.47,2.77-.77,4.6s-.75,4-1.32,6.46c.46,1.55.88,3,1.24,4.26l-.78,7a4.57,4.57,0,0,0,.7,1.59c.46.8,1.19,2,2.17,3.52a17.11,17.11,0,0,1,1.54,3.09,20.58,20.58,0,0,1,1.09,4,3.7,3.7,0,0,0,.58,1.16,3.88,3.88,0,0,0,1,1c.78.67,1.53,1.27,2.25,1.78a24.28,24.28,0,0,0,7.08,5.38,18.15,18.15,0,0,0,8,1.82c.25,0,1.22-.13,2.9-.39s4-.67,6.92-1.24a11.56,11.56,0,0,1,2-1.08c.85-.36,1.87-.75,3.06-1.16a10.07,10.07,0,0,1,3.09-2.21,7.36,7.36,0,0,1,2.87-.66c.25-.36.58-.79,1-1.31a16.26,16.26,0,0,1,1.51-1.7,17.27,17.27,0,0,0,4.26-2.44,28.33,28.33,0,0,0,3.71-3.52C350.42,499.91,351.46,502.28,351.46,502.54Z" style="fill:#fff"/><path d="M348.28,495.42c1.14-1,2-1.75,2.63-2.32a20.15,20.15,0,0,0,1.47-1.47,15.43,15.43,0,0,0,2-2.25,4.23,4.23,0,0,0,.85-1.93c.46-1.75,1-3.95,1.62-6.58s1.42-5.67,2.4-9.13c.46-1,1-2.33,1.51-3.9s1.12-3.34,1.74-5.3a41.51,41.51,0,0,1,2.32-7,36.83,36.83,0,0,1,3.1-5.73A11,11,0,0,0,369,448a25.42,25.42,0,0,0,1.08-2.44,30.92,30.92,0,0,1,1.51-2.9c.65-1.11,1.38-2.41,2.21-3.91q3.17-4.63,5.57-8t3.94-5.33q2.79-3.33,5.61-6.23t5.69-5.38a28.09,28.09,0,0,1,4.56-3.29,7.19,7.19,0,0,1,3.1-1,7.65,7.65,0,0,1,1.55,1.7,4,4,0,0,0,1.08-.15,3.15,3.15,0,0,1,2.94,1.62,10.67,10.67,0,0,1,.7,6.62c-.16.74-.37,1.66-.62,2.74a3.16,3.16,0,0,0-.78,1.39c-.15.57-.28,1.14-.38,1.71a15.06,15.06,0,0,1-.24,1.85,9.42,9.42,0,0,1-.38,1.4q-1,1.84-2.17,4.52c-.77,1.78-1.6,3.86-2.47,6.23-.52.88-1.17,2-1.94,3.48s-1.7,3.05-2.78,4.8c-.52,1-1.18,2.2-2,3.67s-1.82,3.16-3.05,5.07a9,9,0,0,1-1.59,2.36c-.75.85-1.64,1.85-2.67,3a23.72,23.72,0,0,1-2.59,4.26q-2.13,3-5.92,7.81-1.86,2.4-4.8,6T367.39,488q-1.47,5.81-2.2,10.33a50.07,50.07,0,0,0-.74,7.85,7.45,7.45,0,0,0,.2,2c.13.44.37.65.73.65a8.45,8.45,0,0,1,1.13-1.23,20.55,20.55,0,0,0,1.5-1.63,19.81,19.81,0,0,0,3.45-4.87q2-3.56,4.52-9.21a57.9,57.9,0,0,1,4-7.85q1.77-2.75,2.94-3.29l2.7-1.16c.52-.21,1-.39,1.4-.54a2.89,2.89,0,0,1,1-.24,2.37,2.37,0,0,1,1.86,1.24,10.52,10.52,0,0,1,1.39,3.41q1,3.94,1.63,6.07t.69,2.52a8.25,8.25,0,0,0,2.44,3.4,5.54,5.54,0,0,0,3.44,1.08q2.4-.39,5.65-1.08c.41,1,.89,2.14,1.43,3.33s1.1,2.45,1.67,3.79q-1.86,1.23-3.76,2.4t-3.75,2.32a10.68,10.68,0,0,1-3.56,1,37.2,37.2,0,0,1-5.41.35,8.08,8.08,0,0,1-7.32-4.45c-1.72-3-2.77-4.42-3.13-4.37h-.46c-.83,1-1.69,2.09-2.59,3.17s-1.8,2.22-2.67,3.41a35.58,35.58,0,0,1-2.4,4.1c-1,1.54-2.27,3.25-3.72,5.1a33.31,33.31,0,0,1-4.48,4.65,5.74,5.74,0,0,1-3.33,1.54,12.81,12.81,0,0,1-4.6-.66,2.89,2.89,0,0,1-2-2c-.62-2.89-1.09-5.4-1.43-7.54a36.82,36.82,0,0,1-.5-5.46,7.62,7.62,0,0,1,.08-1.23c.05-.36.1-.7.15-1,.16-.67.34-1.39.54-2.17a.8.8,0,0,0-.19-.58,1,1,0,0,0-.66-.19,5.89,5.89,0,0,1-.62.7,8.15,8.15,0,0,1-1.08.85q-.31-1-1.08-2.79C349.78,498.57,349.11,497.12,348.28,495.42Zm50.29-71.49c-.56,0-1.7,1-3.4,3.05a108.06,108.06,0,0,0-6.5,9c-1.49,2.22-3,4.42-4.41,6.61S381.4,447,380,449.07a6.67,6.67,0,0,0-1.36,1.86,4.67,4.67,0,0,0-.42,1.94c-1,2.89-2,5.59-3,8.12-.93,2.73-1.69,4.85-2.28,6.34L371.88,470l.39.39a17.47,17.47,0,0,0,2.63-2.94c1-1.18,2.28-2.72,3.75-4.6s3.14-4.09,5-6.62a63.94,63.94,0,0,0,5.73-9q2.94-5.46,6.34-12.57c1.29-2.58,2.26-4.65,2.9-6.19a10.21,10.21,0,0,0,1-3.25,1.81,1.81,0,0,0-.19-.89A.86.86,0,0,0,398.57,423.93Z" style="fill:#fff"/><path d="M407.55,492l7-4.65a12.31,12.31,0,0,0,.93-1,14,14,0,0,0,1.24-1.9,5.34,5.34,0,0,1,1.43-1.7,10.43,10.43,0,0,1,2.05-1.24,23.64,23.64,0,0,1,1.78-1.93c.77-.78,1.75-1.68,2.94-2.71.56-.31,1.29-.76,2.16-1.35a23.89,23.89,0,0,0,2.87-2.36,82.28,82.28,0,0,1,12.34-10q5.3-3.33,8.93-3.33a4.4,4.4,0,0,1,3,.85,3,3,0,0,1,1,2.4,6.61,6.61,0,0,1-.58,2.86,5.19,5.19,0,0,1-1.82,2.09q-1.94,1.39-4.18,3.1a37.5,37.5,0,0,1-3,3.44,35.88,35.88,0,0,1-4.18,3.6q-.78,1-1.32,1.77c-.26.26-.75.73-1.47,1.4a33.67,33.67,0,0,1-2.86,2.32,18.27,18.27,0,0,1-3.37,4.41q-2.58,2.71-6.92,6.5a24.48,24.48,0,0,0-1.93,2.47c-.93,1.29-2.14,3-3.64,5.11l.54.7A13.14,13.14,0,0,0,424,501a37.09,37.09,0,0,0,4.1-3.48l4.29-3.91a26.39,26.39,0,0,1,2.36-2l1.09-.62c.36-.21.77-.46,1.23-.77a32.94,32.94,0,0,1,6.66-6.31,10.52,10.52,0,0,1,5.72-2.05,2.8,2.8,0,0,1,2.48,1.28,7.86,7.86,0,0,1,1,3.83q-.17,3.87-.16,7.42a7,7,0,0,0,1.36,4.45,4.41,4.41,0,0,0,3.75,2,2.62,2.62,0,0,0,1.35-.39,8.65,8.65,0,0,0,1.36-1c.36-.46.7-.9,1-1.31s.68-.83,1.05-1.24a8.17,8.17,0,0,0,.88-.54,8,8,0,0,0,1.13-.93c.72,1.55,1.32,2.9,1.81,4.06a29.7,29.7,0,0,1,1.13,3.06q-1.79,1.62-3.52,3.36a44.28,44.28,0,0,1-3.68,3.29,19.6,19.6,0,0,1-4.49,2.67,11.34,11.34,0,0,1-4.33.89q-5,0-7.74-2.86t-3.17-8.67a5.57,5.57,0,0,0-.19-1.43,4.23,4.23,0,0,0-.81-1.51c-.26.26-.55.53-.86.81s-.67.66-1.08,1.13l-2.51,1.93q-1.52,1.16-3.52,2.79-2.72,2.78-4.57,4.56c-1.24,1.19-2.11,2-2.63,2.55a31.73,31.73,0,0,1-3.6,2.63c-1.36.88-2.9,1.78-4.6,2.71-1.08.57-2,1-2.78,1.36a5.13,5.13,0,0,1-1.71.5q-3.7,0-5.49-1.82t-1.78-5.61a9.29,9.29,0,0,1,.89-4,13,13,0,0,1,2.67-3.68,11.51,11.51,0,0,0,.15-1.62,1.91,1.91,0,0,0-.19-.81c-.13-.29-.3-.61-.5-1l-1.05-2.44c-.38-.9-.81-1.87-1.27-2.9a9.66,9.66,0,0,0,.89-1.2C406.58,493.63,407,492.89,407.55,492Z" style="fill:#fff"/><path d="M464.57,495.42c.31-.36.67-.84,1.09-1.43s.87-1.25,1.39-2q3.4-4.26,6.62-7.63c2.15-2.24,4.17-4.24,6.09-6,1-.93,2.16-2.13,3.56-3.6s3-3.16,4.88-5.07c1.86-.72,3.9-1.55,6.12-2.47a3.63,3.63,0,0,1,3.1,1.35,6.49,6.49,0,0,1,1,3.91,33.14,33.14,0,0,1-.35,4.68q-.35,2.52-1,5.14c-.47,1.4-.85,2.74-1.17,4a1.19,1.19,0,0,0,.24.81,1,1,0,0,0,.77.27,23,23,0,0,0,4.49-3.87q3.33-3.33,8.74-9.28a55.07,55.07,0,0,1,8.13-7.62c2.32-1.68,4.17-2.52,5.57-2.52a3.61,3.61,0,0,1,3.28,1.66,9.33,9.33,0,0,1,1,4.92,58.17,58.17,0,0,1-.69,9.09,36,36,0,0,1-2.4,8.39,6.24,6.24,0,0,0-.38,1.32,6.13,6.13,0,0,0-.08,1c0,.36.31.69.93,1A13.65,13.65,0,0,0,527,490q.81-1,1.89-2.55l3.55-2.94q1.78-1.47,3.87-3a17.65,17.65,0,0,1,4.41-2.59,11.92,11.92,0,0,1,4.4-.89,1.49,1.49,0,0,1,.77.23,9.13,9.13,0,0,1,.78.54,37.13,37.13,0,0,1,2.93,2.83,10.26,10.26,0,0,1,1.63,2.2,56,56,0,0,0,5.37,9.25q2.35,3.06,4.13,3.06a1.74,1.74,0,0,0,.78-.2,4.56,4.56,0,0,0,.77-.5c1.19,2.53,2.19,4.9,3,7.12a34.19,34.19,0,0,1-4.95,3.29,8.59,8.59,0,0,1-3.79,1.12q-5.33,0-11-6.93c-3.78-4.61-6.69-6.92-8.69-6.92q-4,0-13.38,11.88t-11.67,11.87a28.37,28.37,0,0,1-3.1-.23,1.68,1.68,0,0,1-.93-1,4.58,4.58,0,0,1-.31-1.74,13.67,13.67,0,0,1,.47-3.06c.31-1.26.72-2.74,1.24-4.44q1-3.26,1.62-5.19a17,17,0,0,0,.7-2.71c.15-.67.37-2,.65-3.94s.66-4.57,1.13-7.82a1.78,1.78,0,0,0-.47-1.31,1.49,1.49,0,0,0-1.08-.47,2.64,2.64,0,0,0-1.2.35,7.93,7.93,0,0,0-1.51,1.12,28.07,28.07,0,0,1-2,2q-1.12,1-3.6,2.86l-5.53,6.3q-2.82,3.22-5.76,6.46c-3.1,3.62-5.56,6.28-7.39,8s-3,2.59-3.52,2.59a8.93,8.93,0,0,1-3.53-.54,1.74,1.74,0,0,1-1.2-1.62q0-2.55,2.75-10.64t2.75-11.41a1.18,1.18,0,0,0-.35-.89,1.21,1.21,0,0,0-.89-.35,3.82,3.82,0,0,0-2.21,1,18.47,18.47,0,0,0-2.91,3.29c-.72.83-1.6,1.78-2.64,2.87s-2.3,2.34-3.8,3.79a5.71,5.71,0,0,1-.62,1.2,12.7,12.7,0,0,1-.85,1.12,19.19,19.19,0,0,0-1.09-2.87Q465.82,498,464.57,495.42Z" style="fill:#fff"/><path d="M562.21,495.42A17.82,17.82,0,0,0,563.3,494l1.39-2q3.4-4.26,6.63-7.63t6.08-6q1.47-1.39,3.56-3.6t4.88-5.07c1.86-.72,3.9-1.55,6.12-2.47a3.62,3.62,0,0,1,3.1,1.35,6.49,6.49,0,0,1,1,3.91,34.6,34.6,0,0,1-.34,4.68q-.36,2.52-1,5.14c-.47,1.4-.85,2.74-1.16,4a1.24,1.24,0,0,0,.23.81,1,1,0,0,0,.77.27,23,23,0,0,0,4.49-3.87q3.33-3.33,8.74-9.28a55.58,55.58,0,0,1,8.13-7.62q3.48-2.52,5.57-2.52a3.6,3.6,0,0,1,3.28,1.66,9.33,9.33,0,0,1,1.05,4.92,58.15,58.15,0,0,1-.7,9.09,36,36,0,0,1-2.39,8.39,5.79,5.79,0,0,0-.39,1.32,7.45,7.45,0,0,0-.08,1c0,.36.31.69.93,1a12.79,12.79,0,0,0,1.43-1.55q.81-1,1.89-2.55l3.56-2.94q1.77-1.47,3.86-3a17.83,17.83,0,0,1,4.41-2.59,11.92,11.92,0,0,1,4.4-.89,1.56,1.56,0,0,1,.78.23c.25.16.51.34.77.54a39.3,39.3,0,0,1,2.94,2.83,10.51,10.51,0,0,1,1.62,2.2,56,56,0,0,0,5.37,9.25q2.36,3.06,4.14,3.06a1.73,1.73,0,0,0,.77-.2,4.19,4.19,0,0,0,.77-.5c1.19,2.53,2.19,4.9,3,7.12a34.19,34.19,0,0,1-5,3.29,8.55,8.55,0,0,1-3.79,1.12q-5.33,0-11-6.93t-8.69-6.92q-4,0-13.38,11.88t-11.67,11.87a28.54,28.54,0,0,1-3.1-.23,1.64,1.64,0,0,1-.92-1,4.4,4.4,0,0,1-.31-1.74,13.55,13.55,0,0,1,.46-3.06c.31-1.26.72-2.74,1.24-4.44q1-3.26,1.62-5.19a15.93,15.93,0,0,0,.7-2.71c.15-.67.37-2,.66-3.94s.65-4.57,1.12-7.82a1.78,1.78,0,0,0-.47-1.31,1.49,1.49,0,0,0-1.08-.47,2.64,2.64,0,0,0-1.2.35,7.93,7.93,0,0,0-1.51,1.12,28.07,28.07,0,0,1-2,2c-.75.67-1.94,1.62-3.59,2.86l-5.54,6.3q-2.82,3.22-5.76,6.46c-3.1,3.62-5.56,6.28-7.39,8s-3,2.59-3.52,2.59a9,9,0,0,1-3.53-.54,1.74,1.74,0,0,1-1.2-1.62q0-2.55,2.75-10.64t2.75-11.41a1.21,1.21,0,0,0-.34-.89,1.24,1.24,0,0,0-.9-.35,3.82,3.82,0,0,0-2.21,1,18.47,18.47,0,0,0-2.91,3.29c-.72.83-1.6,1.78-2.64,2.87s-2.3,2.34-3.8,3.79a5.71,5.71,0,0,1-.62,1.2,12.7,12.7,0,0,1-.85,1.12,20.15,20.15,0,0,0-1.08-2.87Q563.45,498,562.21,495.42Z" style="fill:#fff"/><path d="M659.85,495.42l.47-.54.23-.78a51.73,51.73,0,0,1,7.35-7.46,47.94,47.94,0,0,0,7.28-7.47,4.86,4.86,0,0,1,1.77-1.78,4.22,4.22,0,0,1,2-.54,7.55,7.55,0,0,1,4.56,1.35,6.68,6.68,0,0,1,2.48,4.07c.36,1.6.69,3.21,1,4.83s.57,3.26.78,4.92c.36,1,.8,2.59,1.31,4.68a14.09,14.09,0,0,0,1.16,3.59,2.4,2.4,0,0,0,1.16,1.13,4.78,4.78,0,0,0,1.94.34,8.71,8.71,0,0,0,2.86-.5,10.07,10.07,0,0,0,3-1.74c.77-.67,1.58-1.35,2.43-2l2.52-2.05,3.09,7.12a34.81,34.81,0,0,1-3.28,2.82c-1.37,1.06-3,2.28-4.92,3.68a40.58,40.58,0,0,1-5.41,3.44,8.58,8.58,0,0,1-3.41,1.12c-4.69,0-7.74-.54-9.13-1.62s-2.94-4.1-4.64-9.06a12,12,0,0,0-.93-1.47c-.41-.56-.88-1.23-1.39-2a18.41,18.41,0,0,0-1.63-2.67c-.46-.59-.85-.89-1.16-.89a6.15,6.15,0,0,0-3.32,1.67,45.53,45.53,0,0,0-5.11,5c-.26-.67-.58-1.47-1-2.4s-.78-2-1.2-3.25a4.39,4.39,0,0,0-.38-.85A2.09,2.09,0,0,0,659.85,495.42Zm32.35-61.05a4.22,4.22,0,0,1,2.82.78,2.81,2.81,0,0,1,.89,2.24c-.31,1.45-.57,2.66-.77,3.64-.52,1.86-1,3.38-1.36,4.56s-.68,2-.89,2.56a9.53,9.53,0,0,1-1.89,3,12.93,12.93,0,0,1-2.9,2.29,18,18,0,0,1-3,1.74,3.64,3.64,0,0,1-1.67.42l-2.51-.27c-.8-.07-1.59-.11-2.36-.11A3.74,3.74,0,0,1,677,453.1a12.41,12.41,0,0,1-.58-4.18c0-1.55.94-3.49,2.83-5.84s3.54-3.6,5-3.75q1.31-1.63,3.09-3.72a6.71,6.71,0,0,1,2-.89A10.74,10.74,0,0,1,692.2,434.37Z" style="fill:#fff"/><path d="M704.11,495.42a20.25,20.25,0,0,1,2.4-3.29,29.55,29.55,0,0,1,3.71-3.44c.16-1,.31-2.05.47-3.06s.25-2,.31-3.05a22.46,22.46,0,0,1,.73-2.56c.34-1,.71-2,1.12-3.17s1.1-2.55,1.9-4.25a59.41,59.41,0,0,1,3.13-5.73c1.09-1.19,2.22-2.49,3.41-3.91l3.56-4.29a16.47,16.47,0,0,1,1.85-1.32,22,22,0,0,0,2-1.39,18.05,18.05,0,0,1,2.09-.54,12.76,12.76,0,0,1,2.56-.23,10.72,10.72,0,0,1,3.13.38,4.16,4.16,0,0,1,2,1.32,6.73,6.73,0,0,1,1,1.86,25.61,25.61,0,0,1,1,3c.15,1,.33,2.17.54,3.41,0-.31-.09-.18-.27.38s-.46,1.47-.82,2.71l-.69,2.48a27.21,27.21,0,0,1-4.88,8.59,112.9,112.9,0,0,1-10.21,11.14,4.88,4.88,0,0,0-.93,1.35,4,4,0,0,0-.38,1.74,6.66,6.66,0,0,0,.58,2.87,4,4,0,0,0,1.66,1.85,7.43,7.43,0,0,0,2,.93,27,27,0,0,0,3.21.85,25,25,0,0,0,5.5-1,23.58,23.58,0,0,0,4.41-1.86c.25-.16.67-.37,1.23-.66a9.27,9.27,0,0,0,1.71-1.12c.67,1.5,1.26,2.84,1.78,4s.92,2.22,1.23,3.1a47.57,47.57,0,0,1-8,6.54,12.89,12.89,0,0,1-6.62,2.2,8.72,8.72,0,0,1-2.82,1.12,17.88,17.88,0,0,1-3.76.35,13.94,13.94,0,0,1-5.06-.85,9.44,9.44,0,0,1-3.68-2.48,9,9,0,0,1-1.55-2.28q-.76-1.5-1.62-3.6a11.89,11.89,0,0,0-1.32-2.51,1.74,1.74,0,0,0-1.39-.81,2.38,2.38,0,0,0-1.39.58,9.1,9.1,0,0,0-1.7,1.74,19.19,19.19,0,0,0-1.09-2.87Q705.36,498,704.11,495.42Zm24.76-25.15c-1.14,0-2.66,1.49-4.57,4.45s-2.86,5.15-2.86,6.54a.91.91,0,0,0,.2.66,1.16,1.16,0,0,0,.81.19,1.58,1.58,0,0,0,1.39-.89l1-1.66c.56-.52,1.12-1.07,1.66-1.67l1.59-1.74a8.75,8.75,0,0,0,1.39-2.16,5.46,5.46,0,0,0,.46-2.17,2.06,2.06,0,0,0-.27-1.12A.91.91,0,0,0,728.87,470.27Z" style="fill:#fff"/><path d="M406,566.74l.92,2.12a3.58,3.58,0,0,1-1.41.44c-.73.12-1.68.23-2.85.32a26.33,26.33,0,0,1-4,3.28,16.31,16.31,0,0,1-4,1.94l-1.06.3a2.49,2.49,0,0,1-.8-.15,6.46,6.46,0,0,1-1-.43,4,4,0,0,1-.85-.67,1,1,0,0,1-.3-.66,1.86,1.86,0,0,1,.67-1.34,6.63,6.63,0,0,1,1.95-1.22q2.58-1.2,5.1-2.42a.78.78,0,0,1,.53.15.53.53,0,0,1,.16.38c0,.41-.3.76-.89,1.05s-.89.48-.89.61.2.23.28.23.64-.3,1.32-.9,1-1,1-1.13l-.12-.53.05-.09a5.2,5.2,0,0,0,.88-.95,1.2,1.2,0,0,0,.29-.66,3.36,3.36,0,0,0-.57-1.55,18.5,18.5,0,0,0-1.73-2.32,23.59,23.59,0,0,0-1.75-1.9c-.59-.56-1.15-1.06-1.68-1.49a4.84,4.84,0,0,1-.56-.54,4.55,4.55,0,0,1-.37-.5c-.17-.3-.3-.56-.4-.76a1.34,1.34,0,0,0-.26-.39,4.57,4.57,0,0,0-.32-.33c-.13-.13-.28-.28-.47-.45a3.36,3.36,0,0,1-.74-1.41,7.85,7.85,0,0,1-.27-2.23,6,6,0,0,1,.24-1.69,5,5,0,0,1,.7-1.47,1.92,1.92,0,0,0,.14-.32l.16-.41a9.24,9.24,0,0,1,1.8-2.34,23.56,23.56,0,0,1,3.32-2.66l.67-.37a7.68,7.68,0,0,0,.87-.6,3.82,3.82,0,0,1,.61-.41,4.66,4.66,0,0,1,.8-.35l1.4-.55a18.71,18.71,0,0,1,1.91-.88,3.83,3.83,0,0,1,1.15-.27,1.41,1.41,0,0,1,1.15.46,2,2,0,0,1,.37,1.33,6.88,6.88,0,0,1-.14,1.58,1.52,1.52,0,0,1-.41.82q-2.71,2.16-4.37,3.26a5.51,5.51,0,0,1-2.33,1.09.69.69,0,0,1-.51-.18.78.78,0,0,1-.18-.55c0-.42.34-.88,1-1.38s1-.87,1-1.14l-.21-.13a.56.56,0,0,0-.26.07,1.5,1.5,0,0,0-.32.18,19.77,19.77,0,0,0-3,2.94,3.89,3.89,0,0,0-1,2.27,4.7,4.7,0,0,0,.26,1.54,8.69,8.69,0,0,0,.77,1.61c.25.38.61.87,1.07,1.46s1.07,1.3,1.79,2.13c1,1.16,1.77,2,2.3,2.68a10.06,10.06,0,0,0,.9,1,9.16,9.16,0,0,1,.79,1.2,4.06,4.06,0,0,1,.43,1.15,5.65,5.65,0,0,1,.16,1.08c0,.43.05,1,.05,1.57,0,.36,0,.56.16.62a1.36,1.36,0,0,0,.53.08.36.36,0,0,0,.22-.06Z" style="fill:#fff"/><path d="M406.71,565.75l2.09-1.38.28-.31a3.78,3.78,0,0,0,.37-.57,1.58,1.58,0,0,1,.42-.5,3.3,3.3,0,0,1,.61-.37A7.64,7.64,0,0,1,411,562c.24-.23.53-.5.88-.8l.65-.41a6.61,6.61,0,0,0,.85-.7,24.6,24.6,0,0,1,3.67-3,5.32,5.32,0,0,1,2.66-1,1.31,1.31,0,0,1,.89.25.92.92,0,0,1,.29.72,1.93,1.93,0,0,1-.18.85,1.51,1.51,0,0,1-.54.62c-.38.28-.8.58-1.24.92a12.71,12.71,0,0,1-.9,1,11.4,11.4,0,0,1-1.24,1.07c-.16.2-.29.37-.4.53l-.43.41a9.84,9.84,0,0,1-.86.69,5.13,5.13,0,0,1-1,1.32c-.51.53-1.2,1.18-2.06,1.93a6.17,6.17,0,0,0-.57.74c-.28.38-.64.89-1.09,1.52l.16.21a3.9,3.9,0,0,0,1.06-.56,10,10,0,0,0,1.22-1l1.28-1.17a6.27,6.27,0,0,1,.71-.58,3.37,3.37,0,0,1,.32-.19l.37-.23a9.64,9.64,0,0,1,2-1.88,3.18,3.18,0,0,1,1.7-.61.85.85,0,0,1,.74.38,2.36,2.36,0,0,1,.3,1.14c0,.77-.05,1.51-.05,2.21a2.08,2.08,0,0,0,.41,1.33,1.31,1.31,0,0,0,1.11.59.78.78,0,0,0,.41-.12,2.45,2.45,0,0,0,.4-.3l.31-.39.31-.37.27-.16a2.73,2.73,0,0,0,.33-.28c.21.46.4.87.54,1.21a9.17,9.17,0,0,1,.34.91c-.36.33-.71.66-1.05,1a11.33,11.33,0,0,1-1.1,1,5.79,5.79,0,0,1-1.33.8,3.3,3.3,0,0,1-1.29.26,3,3,0,0,1-2.31-.85,4.18,4.18,0,0,1-.94-2.58,1.52,1.52,0,0,0-.06-.42,1.24,1.24,0,0,0-.24-.45l-.25.24a3.39,3.39,0,0,0-.33.33l-.74.58c-.3.23-.65.5-1.05.83L412.56,571l-.79.76a9,9,0,0,1-1.07.78c-.4.26-.86.53-1.37.81-.32.17-.6.3-.83.4a1.49,1.49,0,0,1-.5.15,2.2,2.2,0,0,1-1.64-.54,2.32,2.32,0,0,1-.53-1.67,2.73,2.73,0,0,1,.27-1.19,3.72,3.72,0,0,1,.79-1.09,3.52,3.52,0,0,0,.05-.49.6.6,0,0,0-.06-.24l-.15-.29-.31-.72c-.12-.27-.24-.56-.38-.87a2.39,2.39,0,0,0,.26-.35C406.42,566.23,406.55,566,406.71,565.75Z" style="fill:#fff"/><path d="M423.68,566.76c.07-.12.21-.33.43-.63a13.18,13.18,0,0,1,1-1.12,12.09,12.09,0,0,0,1.07-1.21,5.26,5.26,0,0,0,.61-1c.18-.35.4-.8.65-1.33s.54-1.16.84-1.87a6.29,6.29,0,0,1,1-.75,3.36,3.36,0,0,1,1.15-.63q.3,0,.45.42A4.25,4.25,0,0,1,431,560c0,.86,0,1.57,0,2.15a6.64,6.64,0,0,1-.17,1.39c0,.08.06.17.09.28s.07.23.12.37-.07.31-.12.48a29,29,0,0,0,.21,4.09c.14.9.32,1.35.55,1.35s.71-.39,1.24-1.16a27.58,27.58,0,0,0,2-3.52c.77-1.52,1.35-2.77,1.75-3.74a9.66,9.66,0,0,0,.69-2.2,4.74,4.74,0,0,1,.68-2,1.51,1.51,0,0,1,1.28-.65.4.4,0,0,1,.33.12.67.67,0,0,1,.09.38,7.26,7.26,0,0,1-.25,1.88,8.58,8.58,0,0,1-.74,1.9,4.22,4.22,0,0,1-.29,1.41,9.17,9.17,0,0,1-.89,1.72,10.52,10.52,0,0,0-.32,1.22,12.81,12.81,0,0,1-1.05,2.12,15.58,15.58,0,0,1-1.28,2.12,2.45,2.45,0,0,1-.53,1.33,10.73,10.73,0,0,1-1.63,1.76c-.16.2-.32.39-.49.57s-.33.37-.48.56a2,2,0,0,1-.56.49,1.44,1.44,0,0,1-.73.18,2.15,2.15,0,0,1-1.89-1,5,5,0,0,1-.64-2.83q.06-.35.09-.6a4.55,4.55,0,0,1-.23-.73,5.66,5.66,0,0,1-.16-1c0-.49,0-.89,0-1.2a1.69,1.69,0,0,0-.08-.62l.17-.53-.23-.14a5,5,0,0,0-.86.79c-.46.47-1.11,1.17-1.95,2.09a9.19,9.19,0,0,0-.4-1C424.06,567.53,423.88,567.16,423.68,566.76Z" style="fill:#fff"/><path d="M438.86,566.76a2.67,2.67,0,0,0,.34-.42c.11-.18.25-.37.4-.59l1.77-1.22a10.29,10.29,0,0,1,1-1c.44-.41,1-.9,1.65-1.49a3.77,3.77,0,0,1,.38-.59,4.88,4.88,0,0,1,.64-.65c.21-.2.43-.39.64-.57s.42-.35.6-.51l.66-.7c.2-.23.42-.45.63-.66a3.16,3.16,0,0,1,.76-.51,2,2,0,0,1,.85-.18,1.9,1.9,0,0,1,.77.12.45.45,0,0,1,.29.36c-.15.35-.31.71-.48,1.06l.14.21c.67-.26,1.2-.46,1.59-.58a3.48,3.48,0,0,1,.73-.18,3.1,3.1,0,0,1,2.53,1,4.82,4.82,0,0,1,.84,3.1,5.57,5.57,0,0,1-.09.92,11,11,0,0,1-.3,1.15,6.35,6.35,0,0,1-.5,1.15,3,3,0,0,1-.49.67,1.33,1.33,0,0,0,.2.43.41.41,0,0,0,.3.12.72.72,0,0,0,.38-.11,3.3,3.3,0,0,0,.47-.35q.24.51.45,1l.45,1.07-.8.72c-.26.23-.54.45-.83.67a4.12,4.12,0,0,1-1,.63,2.38,2.38,0,0,1-.93.19,1.42,1.42,0,0,1-.87-.25,1.83,1.83,0,0,1-.56-.71,7.32,7.32,0,0,1-1.39,1.39,8.08,8.08,0,0,1-1.81,1.05,10.19,10.19,0,0,1-1.05.43,3.14,3.14,0,0,1-.86.14,2.37,2.37,0,0,0-.45.1,2.15,2.15,0,0,1-.54.09,3.19,3.19,0,0,1-2.37-1.11,3.44,3.44,0,0,1-1.06-2.46,5.61,5.61,0,0,1,.25-1.46,6.78,6.78,0,0,0,.25-1.08.35.35,0,0,0-.1-.26.38.38,0,0,0-.29-.1,1.54,1.54,0,0,0-.55.34l-1.24,1a2.5,2.5,0,0,0-.17.28,2.1,2.1,0,0,1-.29.41c-.13-.35-.27-.71-.42-1.07A10.17,10.17,0,0,0,438.86,566.76Zm11.08-4.21a.79.79,0,0,0-.33.24,3.52,3.52,0,0,0-.43.54c-.21.36-.46.74-.73,1.15a1.93,1.93,0,0,1-.54.43,2.69,2.69,0,0,1-.66.22q-.24,0-.48.45a5.85,5.85,0,0,0-.51,1.23,11.81,11.81,0,0,0-.37,1.22,3.82,3.82,0,0,0-.12.85,1.29,1.29,0,0,0,.33,1,1.31,1.31,0,0,0,1,.32,3.45,3.45,0,0,0,1.94-.58,6.22,6.22,0,0,0,1.67-1.77l.7-.83a.92.92,0,0,0,.29-.44,5.78,5.78,0,0,0,.23-.78l.42-1.31a9.06,9.06,0,0,0-.39-1.09,1.08,1.08,0,0,0-.37-.5,2.16,2.16,0,0,0-.51-.15C450.81,562.67,450.43,562.61,449.94,562.55Z" style="fill:#fff"/><path d="M455.52,566.76l.74-1a21.37,21.37,0,0,0,2.75-2.66,10.27,10.27,0,0,0,1.55-2.38l-.23-1.11a4.49,4.49,0,0,1,1.49-1.36,3.84,3.84,0,0,1,1.92-.78,2,2,0,0,1,1.33.46c.36.31.71.63,1,1a2.82,2.82,0,0,1,.37.25,4.16,4.16,0,0,1,1.39,1.91,8.66,8.66,0,0,1,.46,3,7.49,7.49,0,0,1-.72,2.64,7.67,7.67,0,0,0-.71,2.59.22.22,0,0,0,.08.19.34.34,0,0,0,.22.07,1.38,1.38,0,0,0,.71-.27,5.89,5.89,0,0,0,.9-.73,11.27,11.27,0,0,1,1.47-1.32,3.54,3.54,0,0,0,.63-.43c.12.31.26.64.43,1s.33.73.49,1.13c-.14.13-.3.27-.47.44l-.64.58c-.52.38-1.2.85-2,1.39s-1.84,1.17-3,1.88a4.12,4.12,0,0,1-1.06.48,2.79,2.79,0,0,1-1.45-.29,1,1,0,0,1-.49-.93,2.07,2.07,0,0,1,.11-.59,4.79,4.79,0,0,1,.28-.72l.3-.61a5.17,5.17,0,0,0,.28-.64,22.08,22.08,0,0,0,.77-2.69,10.7,10.7,0,0,0,.27-2.24,3.74,3.74,0,0,0-.38-1.86,1.48,1.48,0,0,0-1.14-.74,7.64,7.64,0,0,0-1.11.78,9.34,9.34,0,0,0-1.22,1.27c-.45.55-.85,1-1.2,1.36a4,4,0,0,1-.87.71,4.26,4.26,0,0,1-.67.79,9.33,9.33,0,0,1-1.22.94l-.14.28a1.83,1.83,0,0,1-.3.41c-.12-.35-.26-.7-.41-1S455.7,567.13,455.52,566.76Z" style="fill:#fff"/><path d="M482.68,566.76l.09-.18c.09-.12.21-.28.36-.46s.32-.4.51-.65a25.64,25.64,0,0,0,3.19-3.62,43.89,43.89,0,0,0,3.08-4.85,6.4,6.4,0,0,0,.41-.67,10.17,10.17,0,0,0,.51-1,.24.24,0,0,0-.07-.2.29.29,0,0,0-.23-.07,1.76,1.76,0,0,0-.45.08,2.17,2.17,0,0,1-.47.08h-2.88l-.61,0-.61,0a3.8,3.8,0,0,0-.43-.19l-.38-.18a1.06,1.06,0,0,1-.42-.24.49.49,0,0,1-.15-.36,6.28,6.28,0,0,1,.31-2.25c.21-.52.53-.79,1-.79a11.53,11.53,0,0,1,1.21.06c.37,0,.71.09,1,.15l.64-.14a10.69,10.69,0,0,1,1.07,0,4.44,4.44,0,0,1,.66.11l.59-.12.63-.13.77.23c.53-.06,1.11-.81,1.71-2.26s1.26-2.16,1.95-2.16a1.08,1.08,0,0,1,.86.34,1.51,1.51,0,0,1,.3,1,4.31,4.31,0,0,1-.32,1.39,6.6,6.6,0,0,0-.35,1.3,1.51,1.51,0,0,0,.12.2,1.34,1.34,0,0,0,.24.24.5.5,0,0,1,.19.31,2.12,2.12,0,0,1,.06.54,12.9,12.9,0,0,1-.13,2.13c-.08.5-.22.76-.4.77l-1.56.33c0,.15-.07.34-.12.56s-.11.48-.18.77c-.26.77-.56,1.75-.88,2.93s-.68,2.58-1.08,4.19c-.25,1.29-.44,2.34-.57,3.13a12.8,12.8,0,0,0-.2,1.62,1,1,0,0,0,.12.55.38.38,0,0,0,.34.18,3.77,3.77,0,0,0,1-.67q.85-.66,2.4-2l.9,2.12a6.62,6.62,0,0,1-.64.6c-.28.23-.61.48-1,.74a8,8,0,0,1-.58.56c-.23.21-.48.45-.76.73l-.82.92q-.4.47-.81.9a3.69,3.69,0,0,1-1.09.86,2.17,2.17,0,0,1-1,.27,1.85,1.85,0,0,1-1.51-.6,2.82,2.82,0,0,1-.49-1.82c0-.89,0-1.66.09-2.32a6.73,6.73,0,0,1,.3-1.57,2.68,2.68,0,0,0,.14-.33,3.42,3.42,0,0,1,.07-.62c0-.26.1-.57.16-.92q.14-.9.3-1.8l.53-1.17c0-.08-.06-.15-.19-.21l-.23.14a8.39,8.39,0,0,1-.89,1.16,14.82,14.82,0,0,1-1.32,1.28L484.27,568c0,.08-.14.19-.26.35s-.26.34-.41.57c-.08-.18-.17-.42-.29-.7s-.23-.61-.36-1a1.89,1.89,0,0,0-.11-.25A.77.77,0,0,0,482.68,566.76Z" style="fill:#fff"/><path d="M495.44,566.76q.51-.43.78-.69c.19-.17.33-.31.44-.43a6.79,6.79,0,0,0,.6-.67,1.23,1.23,0,0,0,.25-.58c.14-.52.3-1.17.48-2s.43-1.69.72-2.71q.21-.47.45-1.17c.16-.47.33-1,.52-1.58a11.91,11.91,0,0,1,.69-2.09,10.62,10.62,0,0,1,.92-1.71,3,3,0,0,0,.32-.52,5,5,0,0,0,.32-.72,9.23,9.23,0,0,1,.45-.86l.66-1.17c.63-.92,1.18-1.71,1.66-2.37s.87-1.19,1.17-1.59c.56-.66,1.11-1.28,1.67-1.85s1.13-1.11,1.7-1.6a7.64,7.64,0,0,1,1.35-1,2.12,2.12,0,0,1,.93-.31,2.52,2.52,0,0,1,.46.5,1.22,1.22,0,0,0,.32,0,.92.92,0,0,1,.87.48,2.87,2.87,0,0,1,.28,1.43,2.49,2.49,0,0,1-.07.54c0,.22-.11.49-.18.82a.79.79,0,0,0-.23.41,4.7,4.7,0,0,0-.12.51,3.72,3.72,0,0,1-.07.55,3.63,3.63,0,0,1-.11.42c-.2.36-.42.81-.65,1.34s-.47,1.15-.73,1.86c-.16.26-.35.6-.58,1s-.51.91-.83,1.43c-.15.29-.35.66-.59,1.1s-.54.94-.91,1.51a2.76,2.76,0,0,1-.47.7l-.79.88a7.15,7.15,0,0,1-.78,1.27c-.42.6-1,1.38-1.76,2.33-.37.47-.84,1.07-1.43,1.77s-1.26,1.55-2,2.51c-.29,1.15-.51,2.18-.66,3.08a14.44,14.44,0,0,0-.22,2.34,2.09,2.09,0,0,0,.06.58c0,.13.11.2.22.2a2.52,2.52,0,0,1,.33-.37,5.27,5.27,0,0,0,.45-.48,5.93,5.93,0,0,0,1-1.45c.39-.71.84-1.62,1.34-2.75a17.83,17.83,0,0,1,1.2-2.33,2.72,2.72,0,0,1,.88-1l.8-.35.42-.16a.79.79,0,0,1,.3-.07.71.71,0,0,1,.55.37,3.2,3.2,0,0,1,.42,1c.19.79.36,1.39.48,1.81l.21.75a2.46,2.46,0,0,0,.72,1,1.65,1.65,0,0,0,1,.33q.71-.12,1.68-.33.18.47.42,1c.17.36.33.73.5,1.13-.37.25-.74.49-1.12.72l-1.11.69a3.2,3.2,0,0,1-1.06.31,11,11,0,0,1-1.62.1,2.4,2.4,0,0,1-2.17-1.32c-.52-.88-.83-1.32-.94-1.3h-.13l-.78.94c-.27.32-.53.66-.79,1a10.68,10.68,0,0,1-.71,1.23c-.31.46-.68,1-1.11,1.52a9.92,9.92,0,0,1-1.34,1.38,1.73,1.73,0,0,1-1,.46,3.85,3.85,0,0,1-1.37-.2.88.88,0,0,1-.59-.58q-.27-1.29-.42-2.25a10.79,10.79,0,0,1-.15-1.62c0-.14,0-.26,0-.37s0-.21,0-.3.1-.42.16-.65a.24.24,0,0,0-.06-.17.25.25,0,0,0-.19-.06l-.19.21a1.88,1.88,0,0,1-.32.25c-.06-.2-.17-.47-.32-.83Zm15-21.28c-.17,0-.51.3-1,.91s-1.15,1.5-1.94,2.68l-1.31,2L504.88,553a1.79,1.79,0,0,0-.4.55,1.28,1.28,0,0,0-.13.57c-.3.87-.6,1.67-.9,2.42s-.5,1.45-.67,1.89l-.32.79.12.11a5.19,5.19,0,0,0,.78-.87c.31-.36.68-.81,1.12-1.37s.93-1.22,1.48-2a18.57,18.57,0,0,0,1.71-2.69c.58-1.08,1.21-2.33,1.89-3.74.38-.77.67-1.38.86-1.84a3.26,3.26,0,0,0,.29-1,.54.54,0,0,0-.06-.27A.25.25,0,0,0,510.41,545.48Z" style="fill:#fff"/><path d="M512.35,566.76a6.31,6.31,0,0,1,.71-1,8.08,8.08,0,0,1,1.11-1c0-.31.09-.61.13-.91a9,9,0,0,0,.1-.91,4.61,4.61,0,0,1,.22-.76c.09-.29.21-.61.33-.94s.32-.76.56-1.27a17.17,17.17,0,0,1,.94-1.71c.32-.35.66-.74,1-1.16l1.06-1.28a4.51,4.51,0,0,1,.55-.39,7.11,7.11,0,0,0,.6-.41,6,6,0,0,1,.62-.17,4.51,4.51,0,0,1,.76-.06,3.06,3.06,0,0,1,.94.11,1.3,1.3,0,0,1,.58.39,2,2,0,0,1,.31.56,6.66,6.66,0,0,1,.29.89c.05.31.1.65.16,1,0-.09,0-.06-.08.11l-.24.81-.21.74a7.83,7.83,0,0,1-1.45,2.55,32.15,32.15,0,0,1-3,3.32,1.28,1.28,0,0,0-.27.4,1.17,1.17,0,0,0-.12.52,2,2,0,0,0,.17.85,1.24,1.24,0,0,0,.5.56,2.2,2.2,0,0,0,.59.27,8.31,8.31,0,0,0,1,.26,7.85,7.85,0,0,0,1.64-.3,6.88,6.88,0,0,0,1.31-.56l.37-.19a3,3,0,0,0,.51-.34c.19.45.37.85.52,1.2s.28.66.37.92a14,14,0,0,1-2.38,2,3.81,3.81,0,0,1-2,.66,2.83,2.83,0,0,1-.84.33,5.29,5.29,0,0,1-1.12.1,4.16,4.16,0,0,1-1.51-.25,2.78,2.78,0,0,1-1.09-.74,2.65,2.65,0,0,1-.46-.68,11.24,11.24,0,0,1-.49-1.07,3,3,0,0,0-.39-.75.52.52,0,0,0-.41-.24.76.76,0,0,0-.42.17,3.15,3.15,0,0,0-.5.52,5.13,5.13,0,0,0-.33-.85C512.79,567.69,512.59,567.27,512.35,566.76Zm7.37-7.48c-.34,0-.79.44-1.36,1.32a4.33,4.33,0,0,0-.85,1.95c0,.09,0,.16,0,.19a.35.35,0,0,0,.24.06.49.49,0,0,0,.42-.26l.3-.5c.17-.15.33-.32.49-.49l.48-.52a2.59,2.59,0,0,0,.41-.65,1.64,1.64,0,0,0,.14-.64.68.68,0,0,0-.08-.34A.29.29,0,0,0,519.72,559.28Z" style="fill:#fff"/><path d="M535.73,566.76l.09-.18c.09-.12.21-.28.36-.46s.31-.4.51-.65a25.64,25.64,0,0,0,3.19-3.62A43.89,43.89,0,0,0,543,557a6.4,6.4,0,0,0,.41-.67,10.17,10.17,0,0,0,.51-1,.24.24,0,0,0-.07-.2.29.29,0,0,0-.23-.07,1.76,1.76,0,0,0-.45.08,2.27,2.27,0,0,1-.47.08h-2.88l-.61,0-.61,0a3.8,3.8,0,0,0-.43-.19l-.38-.18a1.06,1.06,0,0,1-.42-.24.49.49,0,0,1-.15-.36,6.28,6.28,0,0,1,.31-2.25c.21-.52.52-.79,1-.79a11.67,11.67,0,0,1,1.21.06c.37,0,.71.09,1,.15l.64-.14a10.32,10.32,0,0,1,1.06,0,4.39,4.39,0,0,1,.67.11l.59-.12.63-.13.77.23c.53-.06,1.11-.81,1.71-2.26s1.26-2.16,1.95-2.16a1.09,1.09,0,0,1,.86.34,1.57,1.57,0,0,1,.29,1,4.25,4.25,0,0,1-.31,1.39,6.6,6.6,0,0,0-.35,1.3,1.51,1.51,0,0,0,.12.2,1.34,1.34,0,0,0,.24.24.5.5,0,0,1,.19.31,2.12,2.12,0,0,1,.06.54,14.11,14.11,0,0,1-.13,2.13c-.08.5-.22.76-.4.77l-1.56.33c0,.15-.07.34-.12.56s-.1.48-.18.77c-.26.77-.56,1.75-.88,2.93s-.68,2.58-1.08,4.19c-.25,1.29-.44,2.34-.57,3.13a12.8,12.8,0,0,0-.2,1.62,1,1,0,0,0,.12.55.38.38,0,0,0,.34.18,3.77,3.77,0,0,0,1-.67q.86-.66,2.4-2l.9,2.12a6.62,6.62,0,0,1-.64.6c-.28.23-.61.48-1,.74a8,8,0,0,1-.58.56c-.23.21-.48.45-.76.73l-.82.92c-.27.31-.54.61-.82.9a3.67,3.67,0,0,1-1.08.86,2.17,2.17,0,0,1-1,.27,1.85,1.85,0,0,1-1.51-.6,2.82,2.82,0,0,1-.49-1.82c0-.89,0-1.66.09-2.32a6.73,6.73,0,0,1,.3-1.57,2.68,2.68,0,0,0,.14-.33,3.42,3.42,0,0,1,.07-.62c0-.26.1-.57.16-.92q.13-.9.3-1.8l.53-1.17c0-.08-.06-.15-.19-.21l-.23.14a8.39,8.39,0,0,1-.89,1.16,14.82,14.82,0,0,1-1.32,1.28L537.32,568c-.05.08-.14.19-.26.35s-.26.34-.41.57c-.08-.18-.18-.42-.29-.7s-.24-.61-.36-1a1.89,1.89,0,0,0-.11-.25A.77.77,0,0,0,535.73,566.76Z" style="fill:#fff"/><path d="M549.22,565.75l2.1-1.38.28-.31a4.76,4.76,0,0,0,.37-.57,1.46,1.46,0,0,1,.42-.5,3.3,3.3,0,0,1,.61-.37,6,6,0,0,1,.53-.58c.23-.23.52-.5.88-.8.17-.1.38-.23.64-.41a6,6,0,0,0,.85-.7,25.13,25.13,0,0,1,3.68-3,5.32,5.32,0,0,1,2.66-1,1.33,1.33,0,0,1,.89.25.91.91,0,0,1,.28.72,1.93,1.93,0,0,1-.17.85,1.59,1.59,0,0,1-.54.62c-.38.28-.8.58-1.24.92a12.71,12.71,0,0,1-.9,1,11.56,11.56,0,0,1-1.25,1.07c-.15.2-.28.37-.39.53l-.44.41a8.25,8.25,0,0,1-.85.69,5.37,5.37,0,0,1-1,1.32c-.51.53-1.2,1.18-2.06,1.93a7.07,7.07,0,0,0-.58.74l-1.08,1.52.16.21a4,4,0,0,0,1.06-.56,10,10,0,0,0,1.22-1l1.28-1.17a6.45,6.45,0,0,1,.7-.58l.33-.19.36-.23a10.17,10.17,0,0,1,2-1.88,3.24,3.24,0,0,1,1.71-.61.85.85,0,0,1,.74.38,2.48,2.48,0,0,1,.3,1.14c0,.77,0,1.51,0,2.21a2.08,2.08,0,0,0,.4,1.33,1.34,1.34,0,0,0,1.12.59.75.75,0,0,0,.4-.12,2.5,2.5,0,0,0,.41-.3c.1-.14.21-.27.31-.39l.31-.37a1.85,1.85,0,0,0,.26-.16,2.2,2.2,0,0,0,.34-.28c.21.46.39.87.54,1.21a8.84,8.84,0,0,1,.33.91c-.35.33-.7.66-1,1a12.64,12.64,0,0,1-1.1,1,5.84,5.84,0,0,1-1.34.8,3.3,3.3,0,0,1-1.29.26,3,3,0,0,1-2.3-.85,4.12,4.12,0,0,1-.94-2.58,1.52,1.52,0,0,0-.06-.42,1.24,1.24,0,0,0-.24-.45l-.26.24a3.45,3.45,0,0,0-.32.33l-.75.58c-.3.23-.65.5-1.05.83-.53.55-1,1-1.35,1.36l-.79.76a9,9,0,0,1-1.07.78c-.41.26-.86.53-1.37.81-.32.17-.6.3-.83.4a1.47,1.47,0,0,1-.51.15,2.19,2.19,0,0,1-1.63-.54,2.32,2.32,0,0,1-.53-1.67,2.86,2.86,0,0,1,.26-1.19,4,4,0,0,1,.8-1.09,3.29,3.29,0,0,0,0-.49.57.57,0,0,0-.05-.24l-.15-.29c-.09-.21-.2-.45-.31-.72s-.25-.56-.38-.87a2.39,2.39,0,0,0,.26-.35C548.94,566.23,549.07,566,549.22,565.75Z" style="fill:#fff"/><path d="M566.2,566.76l.14-.16a2.1,2.1,0,0,1,.4-.69,4.41,4.41,0,0,1,.89-.74c.51-.32.9-.58,1.19-.78a2.09,2.09,0,0,0,.51-.44,2.32,2.32,0,0,0,.28-.39c.17-.12.38-.29.62-.5s.52-.48.83-.79a1.58,1.58,0,0,0,.35-.37c.12-.16.24-.36.37-.57s.42-.32.67-.53.55-.49.89-.83l1.3-1.37c.49-.5,1-1,1.63-1.56a5.85,5.85,0,0,1,.56-.22,1.93,1.93,0,0,1,.52-.08,2.15,2.15,0,0,1,1.55.5,1.85,1.85,0,0,1,.52,1.42,4.94,4.94,0,0,1-.08.76c-.05.35-.11.79-.17,1.33-.21,1.55-.37,2.5-.46,2.84s-.42,1.39-1,3.17c-.12.3-.25.66-.38,1.09s-.29.95-.47,1.56a.51.51,0,0,0,.23.19,1.4,1.4,0,0,0,.58-.31c.27-.21.64-.52,1.1-.94l1.27-1.13.57-.46.51,1.14c.15.35.28.68.39,1a3.87,3.87,0,0,0-.54.42,4.32,4.32,0,0,0-.45.5l-1.11.74-1.4.9q-.35.34-.93.84l-1.33,1.12-.43.09a4.16,4.16,0,0,1-.61.67,2.44,2.44,0,0,1-.52.32l-.74.27-.78.26a.56.56,0,0,1-.37-.3,1.09,1.09,0,0,1-.09-.6,6,6,0,0,1-.56-1.43,7.54,7.54,0,0,1-.2-1.79,2.55,2.55,0,0,1,0-.39,3,3,0,0,1,0-.37,4.82,4.82,0,0,1-.17-.72,1.44,1.44,0,0,1,.53-1.14,1.83,1.83,0,0,1,1.2-.45.52.52,0,0,1,.5.36c.1.24.2.36.31.36s.22-.21.33-.64a14.36,14.36,0,0,0,.34-1.85c.1-.71.17-1.32.2-1.84s.05-.92.05-1.2a.65.65,0,0,0-.13-.45.51.51,0,0,0-.42-.15,6.87,6.87,0,0,0-1.94,1.38q-1.64,1.38-4.56,4.13c-.06.1-.15.23-.26.39s-.25.34-.41.57a6,6,0,0,0-.32-.85C566.65,567.69,566.45,567.27,566.2,566.76Z" style="fill:#fff"/><path d="M580.62,566.76l.09-.18c.1-.12.21-.28.36-.46l.52-.65a26.29,26.29,0,0,0,3.19-3.62,45.42,45.42,0,0,0,3.07-4.85,6.25,6.25,0,0,0,.42-.67c.15-.28.32-.62.51-1a.28.28,0,0,0-.07-.2.32.32,0,0,0-.23-.07,1.63,1.63,0,0,0-.45.08,2.34,2.34,0,0,1-.48.08h-2.87l-.62,0-.61,0a3.7,3.7,0,0,0-.42-.19l-.38-.18a1,1,0,0,1-.43-.24.49.49,0,0,1-.15-.36,6.51,6.51,0,0,1,.31-2.25c.21-.52.53-.79,1-.79a11.53,11.53,0,0,1,1.21.06c.38,0,.71.09,1,.15l.65-.14a10.47,10.47,0,0,1,1.06,0,4.88,4.88,0,0,1,.67.11l.59-.12.63-.13.76.23c.54-.06,1.11-.81,1.72-2.26s1.26-2.16,2-2.16a1.06,1.06,0,0,1,.85.34,1.51,1.51,0,0,1,.3,1,4.25,4.25,0,0,1-.31,1.39,6.12,6.12,0,0,0-.36,1.3,1,1,0,0,0,.13.2,1.64,1.64,0,0,0,.23.24.51.51,0,0,1,.2.31,2.76,2.76,0,0,1,0,.54,14.37,14.37,0,0,1-.12,2.13c-.09.5-.22.76-.41.77l-1.56.33c0,.15-.07.34-.11.56s-.11.48-.19.77c-.26.77-.55,1.75-.87,2.93s-.69,2.58-1.09,4.19c-.25,1.29-.43,2.34-.56,3.13a11.11,11.11,0,0,0-.2,1.62,1.13,1.13,0,0,0,.11.55.4.4,0,0,0,.35.18,3.81,3.81,0,0,0,1-.67c.58-.44,1.38-1.1,2.41-2l.9,2.12a6.92,6.92,0,0,1-.65.6,12.13,12.13,0,0,1-1,.74,6.11,6.11,0,0,1-.57.56c-.23.21-.49.45-.76.73l-.82.92c-.27.31-.54.61-.82.9a3.8,3.8,0,0,1-1.08.86,2.24,2.24,0,0,1-1,.27,1.84,1.84,0,0,1-1.51-.6,2.82,2.82,0,0,1-.5-1.82c0-.89,0-1.66.09-2.32a7.23,7.23,0,0,1,.31-1.57,2.47,2.47,0,0,0,.13-.33,4.65,4.65,0,0,1,.07-.62c0-.26.1-.57.16-.92l.3-1.8c.17-.37.35-.76.53-1.17q0-.12-.18-.21l-.23.14a7.78,7.78,0,0,1-.9,1.16,16.09,16.09,0,0,1-1.31,1.28l-2.4,2.28-.25.35c-.13.15-.26.34-.42.57-.08-.18-.17-.42-.29-.7s-.23-.61-.35-1a1.15,1.15,0,0,0-.12-.25A.6.6,0,0,0,580.62,566.76Z" style="fill:#fff"/><path d="M593.38,566.76a6.42,6.42,0,0,1,.72-1,8.57,8.57,0,0,1,1.1-1c0-.31.09-.61.14-.91a6.84,6.84,0,0,0,.09-.91c.05-.21.12-.47.22-.76s.21-.61.34-.94.32-.76.56-1.27a19.16,19.16,0,0,1,.93-1.71c.33-.35.66-.74,1-1.16l1.06-1.28a3.85,3.85,0,0,1,.55-.39,7.11,7.11,0,0,0,.6-.41,6,6,0,0,1,.62-.17,4.42,4.42,0,0,1,.76-.06,3,3,0,0,1,.93.11,1.28,1.28,0,0,1,.59.39,2,2,0,0,1,.31.56,6.66,6.66,0,0,1,.29.89c0,.31.1.65.16,1,0-.09,0-.06-.08.11l-.24.81-.21.74a8.22,8.22,0,0,1-1.45,2.55,33.33,33.33,0,0,1-3,3.32,1.5,1.5,0,0,0-.28.4,1.31,1.31,0,0,0-.11.52,2,2,0,0,0,.17.85,1.28,1.28,0,0,0,.49.56,2.37,2.37,0,0,0,.59.27,9.17,9.17,0,0,0,1,.26,7.75,7.75,0,0,0,1.63-.3,7.28,7.28,0,0,0,1.32-.56l.37-.19a3.41,3.41,0,0,0,.5-.34c.2.45.38.85.53,1.2s.28.66.37.92a14,14,0,0,1-2.38,2,3.84,3.84,0,0,1-2,.66,2.83,2.83,0,0,1-.84.33,5.29,5.29,0,0,1-1.12.1,4.16,4.16,0,0,1-1.51-.25,2.71,2.71,0,0,1-1.09-.74,2.42,2.42,0,0,1-.46-.68,11.24,11.24,0,0,1-.49-1.07,3.86,3.86,0,0,0-.39-.75.52.52,0,0,0-.41-.24.74.74,0,0,0-.42.17,3.61,3.61,0,0,0-.51.52A5,5,0,0,0,594,568C593.83,567.69,593.63,567.27,593.38,566.76Zm7.37-7.48c-.33,0-.79.44-1.36,1.32a4.45,4.45,0,0,0-.85,1.95.24.24,0,0,0,.06.19.35.35,0,0,0,.24.06.49.49,0,0,0,.42-.26c.1-.18.2-.34.3-.5s.33-.32.49-.49l.47-.52a2.39,2.39,0,0,0,.42-.65,1.64,1.64,0,0,0,.14-.64.68.68,0,0,0-.08-.34A.29.29,0,0,0,600.75,559.28Z" style="fill:#fff"/><path d="M612.5,572.11a1.29,1.29,0,0,1-.17.62,2.29,2.29,0,0,1-.52.58,1.22,1.22,0,0,1-.29.51.58.58,0,0,1-.45.18,2.22,2.22,0,0,1-1.61-.67,4.63,4.63,0,0,1-1.06-2l.16-.16-.23-.6q.12-.37.21-.72l.18-.69a1.15,1.15,0,0,1,.38-.63,1,1,0,0,1,.61-.2,2,2,0,0,1,1.12.33,2.79,2.79,0,0,1,.93,1,4.28,4.28,0,0,1,.57,1.21A4.62,4.62,0,0,1,612.5,572.11Z" style="fill:#fff"/><path d="M622.94,572.11a1.2,1.2,0,0,1-.18.62,2.06,2.06,0,0,1-.51.58,1.34,1.34,0,0,1-.29.51.61.61,0,0,1-.45.18,2.21,2.21,0,0,1-1.61-.67,4.63,4.63,0,0,1-1.06-2l.16-.16-.23-.6c.07-.25.14-.49.2-.72s.13-.46.19-.69a1,1,0,0,1,.38-.63,1,1,0,0,1,.61-.2,2.06,2.06,0,0,1,1.12.33,3,3,0,0,1,.93,1,4.49,4.49,0,0,1,.74,2.44Z" style="fill:#fff"/><path d="M633.37,572.11a1.29,1.29,0,0,1-.17.62,2.29,2.29,0,0,1-.52.58,1.22,1.22,0,0,1-.29.51.58.58,0,0,1-.45.18,2.22,2.22,0,0,1-1.61-.67,4.63,4.63,0,0,1-1.06-2l.16-.16-.23-.6q.12-.37.21-.72l.18-.69a1.15,1.15,0,0,1,.38-.63,1,1,0,0,1,.61-.2,2,2,0,0,1,1.12.33,2.79,2.79,0,0,1,.93,1,4.27,4.27,0,0,1,.74,2.44Z" style="fill:#fff"/></svg>