<?xml version="1.0" encoding="utf-8"?>
<!-- Generator: Adobe Illustrator 25.0.0, SVG Export Plug-In . SVG Version: 6.00 Build 0)  -->
<svg version="1.1" id="Layer_1" xmlns="http://www.w3.org/2000/svg" xmlns:xlink="http://www.w3.org/1999/xlink" x="0px" y="0px"
	 viewBox="0 0 1301.8 1301.8" style="enable-background:new 0 0 1301.8 1301.8;" xml:space="preserve">
<style type="text/css">
	.st0{fill:#E73B4C;}
	.st1{fill:#FFFFFF;}
</style>
<g>
	<circle class="st0" cx="650.9" cy="650.9" r="612.1"/>
	<path class="st1" d="M1085.6,854.8c1-1.3-2.9-2.4-3.5-3.1C1081.8,854.4,1086.5,855.2,1085.6,854.8z"/>
	<polygon class="st1" points="1082.1,881.1 1080.8,879.8 1082.5,885.1 	"/>
	<path class="st1" d="M1069.8,901.2c7.1,1.8,3.6-7.8,7.8-10.2l1.7,0.3l-3.9-4.5C1073.8,891.5,1073.4,899.2,1069.8,901.2z"/>
	<path class="st1" d="M1050.5,903.4c2.7,0.8,0.4,3.5,2.2-2c-0.3,0-0.6,0-0.8,0C1051.5,902.1,1051.1,902.8,1050.5,903.4z"/>
	<path class="st1" d="M1051.9,901.6C1053,899.5,1049.1,901.6,1051.9,901.6z"/>
	<path class="st1" d="M1047,911.6l-0.3-4c-1.7-0.3-3.5,1.8-3.9,0.3C1042.2,911.4,1043.8,911.8,1047,911.6z"/>
	<path class="st1" d="M1049.6,917.1v-2C1048.9,915,1048.4,915.3,1049.6,917.1z"/>
	<path class="st1" d="M1049.8,910.9l-0.1,4.2c1.3,0.3,3.1,1.4,0.3-1.8C1051.4,914.7,1050.1,913,1049.8,910.9z"/>
	<path class="st1" d="M1051.8,910c2.2-0.7,4.3-2.1,4.6,2C1059,906.2,1054.3,904.4,1051.8,910z"/>
	<path class="st1" d="M1075.2,906.1l3.1-1l-0.8-3.1C1077.9,903.4,1073.4,904.9,1075.2,906.1z"/>
	<path class="st1" d="M1032.7,925.7c1.1,1,3.8,1.4,5.4,2.4v-2.9C1036.6,925.6,1034.5,926.9,1032.7,925.7z"/>
	<path class="st1" d="M1038.1,928.1v4.3C1040.2,930.1,1039.5,928.9,1038.1,928.1z"/>
	<path class="st1" d="M1055.4,922c-0.3-2.7-0.7-5.3-1-7.8c0.1,2.9,0.3,5.9,0.4,8.8L1055.4,922z"/>
	<polygon class="st1" points="1024.4,936.2 1022.9,932.6 1024.8,938.6 	"/>
	<path class="st1" d="M1019.4,943.6c-1.3-2.9-5-1.4-5.3-3.8c-1.1,2.2-0.4,5.3,0,8.1C1014.4,945.7,1015.8,944.2,1019.4,943.6z"/>
	<path class="st1" d="M1014.4,952.3c0-1.5-0.1-2.9-0.4-4.5C1013.8,949.3,1014,950.9,1014.4,952.3z"/>
	<path class="st1" d="M1033.8,936.9c-1.5-0.8-3.4-1-5-0.4l4.2,1.4L1033.8,936.9z"/>
	<path class="st1" d="M1033.1,938h-0.1c-1,1.1-1.7,2-2,2.2L1033.1,938z"/>
	<path class="st1" d="M1034.1,936.6l-0.3,0.3C1034.2,937,1034.3,937,1034.1,936.6z"/>
	<path class="st1" d="M1047,927.4c0.7,3.1,0,8.1,5.4,6.7C1050.9,931.3,1047.9,932,1047,927.4z"/>
	<path class="st1" d="M1039.2,938.3c1-0.8,2.1-1.7,3.1-2.4c-1-0.6-2.7-1-2.9-2.4L1039.2,938.3z"/>
	<polygon class="st1" points="1039.1,940.7 1039.2,938.3 1038.1,939.3 	"/>
	<path class="st1" d="M1021.5,949.9c0.1,2-0.4,4-1.7,5.6c2-1.1,3.8-2.5,5.2-4.2C1024.1,950.2,1022.8,947.9,1021.5,949.9z"/>
	<path class="st1" d="M1027.4,944.3c0,0.1,0,0.3,0,0.4C1027.8,945,1028.1,944.7,1027.4,944.3z"/>
	<path class="st1" d="M1006.8,970.4l0.8,0.3l-0.4-0.6L1006.8,970.4z"/>
	<path class="st1" d="M1025.7,951.4c1.7-0.7,1.4-2.1,1-3.6c-0.4,1.3-1.1,2.4-1.8,3.5C1025.1,951.7,1025.5,952,1025.7,951.4z"/>
	<path class="st1" d="M1012.4,957.7c1.3-0.1,2.4-0.3,3.5-0.7C1014.4,956.9,1011.7,956.9,1012.4,957.7z"/>
	<path class="st1" d="M1026.1,944.6c0-0.1,0-0.3,0-0.3C1025.1,944,1025.5,944.3,1026.1,944.6z"/>
	<path class="st1" d="M1026.1,944.6c0,1.1,0.3,2.2,0.7,3.2c0.4-1,0.6-2,0.6-2.9C1026.9,944.7,1026.5,944.7,1026.1,944.6z"/>
	<path class="st1" d="M1022.5,992.9c-2.7-2.8-2.2-8.4,3.4-8.5c0.4-4.9-10.7-11.3-18.1-13.7c1.1,1.3,2.4,2.2,1.5,6.6
		c2.4,0.6,9.2-2.9,9.8,1.8c-1.8,5.2-3.8,2.2-7,2.7c5,1.7,0.7,9.5,6.7,13.5l1.3-5C1020.7,990.8,1020.8,993.2,1022.5,992.9z"/>
	<path class="st1" d="M1012.6,965.7l0.7-1.4c-1.7,0.8-3.6,0.8-7.4,0.6c-0.4,2,0,3.9,1.3,5.4l5.4-5.3L1012.6,965.7z"/>
	<path class="st1" d="M1017.7,959c2.4,3.6,1.4,7.7,6.3,8.8c2.8-3.6-0.6-4.7-0.3-8c-3.9,6.3-0.4-3.1-5.7-0.6c0.4-1.4,1-2.7,1.7-3.8
		c-1.3,0.7-2.5,1.3-3.9,1.7h0.3l0,0c0.6,0,0.8,0.3,0.4,0.3v0.1C1017,958,1017.4,958.4,1017.7,959c-2.1,1-1.1-0.6-1-1.4
		c-0.1-0.1-0.3-0.3-0.4-0.4l0,0c-1,2.4-2,4.7-2.9,7C1015.2,962.9,1016.7,961.1,1017.7,959z"/>
	<path class="st1" d="M1057.4,942.8c-0.3,0-0.7-0.1-1-0.4C1056.5,943,1056.8,943.5,1057.4,942.8z"/>
	<path class="st1" d="M1053.5,943.7c-0.1-0.8-1.3-2.1,0.1-3.4c2-0.4,1.5,1.3,2.8,2c-0.3-1.5-0.1-4.9-3.8-3.4l0.1,0.7
		c-2.9,1.5-9.5,1.5-9.6,0.7C1046.3,942.1,1049.8,943.2,1053.5,943.7z"/>
	<path class="st1" d="M1036.3,952.5l-2.2,6.1l4.9-0.1l-1.8-1.3C1039.9,955.1,1037.4,953.9,1036.3,952.5z"/>
	<polygon class="st1" points="1004.9,969.6 1002.1,965.9 1004.3,972.8 	"/>
	<polygon class="st1" points="999.9,975.7 997.3,972.8 997.6,976 	"/>
	<path class="st1" d="M594.5,1159.3l-2.1,0.7C593.1,1159.8,593.9,1159.7,594.5,1159.3z"/>
	<path class="st1" d="M608.3,1161.8l0.7-1.8C608.2,1160.9,607.8,1161.6,608.3,1161.8z"/>
	<path class="st1" d="M845.6,1086.3c-3.8-2.4-8.5-6.4-6.6-2.7l2.4,3.6C842.5,1086.3,844.1,1085.8,845.6,1086.3z"/>
	<path class="st1" d="M721.7,1142.7l0.8,1.3c0.6-1.5,1-2.9,1.4-4.2C723.3,1140.7,722.5,1141.7,721.7,1142.7z"/>
	<path class="st1" d="M721.2,1160.2l-3.9-2.4C718.5,1158.8,719.7,1159.7,721.2,1160.2z"/>
	<path class="st1" d="M518.7,1145l-3.5,3.4C518.7,1149.5,517.9,1146.8,518.7,1145z"/>
	<path class="st1" d="M941.9,1030.8c-2.1-0.1-4,0.4-6,1.3C939.6,1032.5,943.5,1034.1,941.9,1030.8z"/>
	<path class="st1" d="M607.2,1116c-1,0.4-1.7,1.3-2,2.2C606.5,1117.7,607.2,1117,607.2,1116z"/>
	<path class="st1" d="M930.9,1036c0.6,0,1,0,1.5,0c0.8-1.7,2.1-2.9,3.6-3.9C933.3,1032,930.9,1032.5,930.9,1036z"/>
	<path class="st1" d="M286.6,996.1c0-0.3,0-0.6,0-0.8C286,995.7,286.2,996,286.6,996.1z"/>
	<path class="st1" d="M267.5,909.5c0.8,0.7,1.5,1.4,2.1,2.2C269.5,911.2,269,910.5,267.5,909.5z"/>
	<path class="st1" d="M976.5,996.8C977.5,995.4,976.4,996.2,976.5,996.8z"/>
	<path class="st1" d="M994,1003.1c0.1,0.7,0.4,1.4,1,2C994.4,1004.5,994.1,1003.8,994,1003.1z"/>
	<path class="st1" d="M932.2,1067.3L932.2,1067.3C933,1067.7,932.9,1067.6,932.2,1067.3z"/>
	<path class="st1" d="M979.6,996.4c-0.8,0-1.7,0.3-2.4,0.6C978.1,996.9,978.8,996.6,979.6,996.4z"/>
	<path class="st1" d="M977.9,995.3c0.6-0.3,1-0.6,1.3-0.7C979.1,993.9,978.5,993.6,977.9,995.3z"/>
	<path class="st1" d="M975,998.5c0.6-0.7,1.4-1.3,2.2-1.5c-0.4,0-0.7,0-0.7-0.3C976.3,997.1,975.7,997.6,975,998.5z"/>
	<path class="st1" d="M408.7,1078.3c0-0.1,0-0.3,0-0.6C406.1,1078.3,406.9,1078.4,408.7,1078.3z"/>
	<path class="st1" d="M818.1,1142.7c0,0,0-0.1,0.1-0.3H818L818.1,1142.7z"/>
	<path class="st1" d="M812.8,1147.7c1.3-5.9,2.9-5.7,5.2-5.3l-5.6-11C812.5,1136.8,812.7,1142.1,812.8,1147.7z"/>
	<path class="st1" d="M561.3,1153.5l3.6,4.9c-6.8,4.7-10.3,1.7-7.3,7.8c2-6.4,6.3-5.6,10.7-4.9c4.5,0.7,9.1,1.1,10.6-5.2l2.4,3.4
		c-0.8-0.3-1.1,0.4-2,0.1c2.2,3.6,3.9,1.5,5.7-1c1.8-2.7,3.9-5.7,7.5-4.2c2.4,1.4,3.9,3.6,1.8,4.9l6.3-2.2c0.6,0.1,1,0.8,0.8,1.4
		s-0.8,1-1.4,0.8c-0.1,0-0.1,0-0.3-0.1l9.1,0.4l-0.1,0.4c2-2.2,4-4.2,6.3-6c2,2.1-1.3,1.3-1,2.9l5.3-2.5c1.5,3.6-2.9,6.4-6.3,5.6
		c2.9,13.7,4.5-2.8,13.5,6.1l-4.9,1.1c2.2,7.8,6.1,5.6,11.2,10.6c-1.1-2.4-9.6-12.7-3.8-15.5c1.4,1.1,3.4,1.8,6.6-0.7
		c-0.4,4.6,2.5,3.8,6.1,3.8l-0.7,6.1c4-1.5,3.9-4.6,6.4-7.3c4.2,0.8,4.9,5.7,5.7,9.8c7,1.3-4.3-8,3.9-8.8c2.4,1.3,5.3,1.4,7.8,0.7
		c3.1-1,6-2.4,8.8-4c3.9,2.1-0.7,3.8,0.7,5.6l3.6-4.9c0.8,0,0.6,1.7,0.4,2.4c2.9-2,0.3-6.1,4.9-7.8c0.6-3.5,2.9-1,6,1.4
		c2.9,2.4,6.6,4.5,9.4,0.4c1.5,1.7-0.6,3.9,0,6.3c7.7-5.4,6.7-3.9,12.7-11.2l5.7,3.6c-4.3-4.3,0.4-10.2,4.3-15.1
		c-1.1-1.7-2.5-3.4-3.8-4.9l6.6-3.9c1,1,0.4,3.1-0.4,5.9c0.4-0.6,0.8-1.1,1.1-1.5c2.7,2.1,1.8,5.7,0.3,9.4c-1-1.1-2-2.4-2.9-3.6
		c-1.7,3.8-2.4,7.8-2,11.9c0.6-0.8,1.3-1.5,2.2-1.8c-0.4,0.8-0.6,1.7-0.3,2.7c0.3,0.7,1-0.8,2-2.4l2.2,6.7l0.1-2.8
		c3.4,1.3,6.6,2.1,9.9,3.2c6-7.8,10.3-18.6,20.1-23.2c-1.7,5.4,0.8,8.2,1.7,14.2c-2-2.9-3.9-2-6-0.1c-1.1,1-2.2,1.8-3.5,2.7
		c-1.1,0.8-2.5,1.1-4,1.1c1.5,0.1,2.7,1.5,2.5,3.1c0,0.4-0.1,0.8-0.4,1.3c3.1-2.2,6-4.9,9.1-7.3c0.6,4.9,2.7,3.4,5.6,4.9
		c-3.6-9.4,6.3-7.5,9.5-11.3c0.8,3.1,0.6,6.7-4.5,6.8c6.8,6.3,4.6-12.7,11-7.5c-1.1,0.3-2,0-2,1.7c2.1-3.5,9.4-2.7,8.4,0.4l-1.1,0.3
		c5.2-0.4,10.2-1.8,14.8-4.2c4.9-2.4,8.4-5.9,7.8-9.9c0.8,3.8,1.4,7.7,1.7,11.6c2.1-10.2,3.9-20.5,5.4-30.7
		c0.8,7.1,10.6,21.9,5.4,27.6c2.9,0.8,6.1-0.3,7.8-2.8c-1.5-0.6-6.3-8.8-4.9-9.9c7.1,6.1,4.5,3.1,12.3,7.4c-2.4-0.8-3.9-12.1-1-12.7
		c0,1.7,3.9,10.3,3.2,11.7c1.3-4.3,2.4-8.5,3.5-12.8c-1.1,2.4,2.9,8.8,5.6,11.2c-1.5-1.7,6.3-2.2,7.8-4l-3.9-1.1
		c8.7-1.8,2.2-17.3,10.1-20.1c0,2.4,3.2,13.8,7.7,13.3c-0.1-2.9-0.8-10.1-1-17.2c-0.1-7.1,0.3-14.2,2.4-17.9l2.7,2.2l3.4-5.7
		c0.4,6.4,0.3,12.8-0.1,19.3c-0.4,6.3-1.3,12.6-2.7,18.7c4,1,2.4,3.1,6.7,0.8c2.9,2-0.6,5.2-1.8,6c3.8-1,7.5-2,11.3-3.1
		c-3.4-5.7,5-9.8,2.1-14.5c-2.7,3.9-5.3,7.8-8.1,11.6c-3.1-5.6-1.7-19.8,5.9-22.3c2.9,1.4,3.9,11,5,12.8c0-2.4,4.9-7.3,6.1-6.3
		c-0.4,1.5-0.8,3.2-1.4,4.7c5.2,0,2.4-11.2,10.1-8.2c1.8-0.6,9.1,4.6,7.3,1.1c-6.4-5-18.1-24.8-19.3-30.6c0.8,0.3,11.4,1.5,15.1,3.6
		c5.6,3.5,3.4,14.2,8.1,17.3c-0.6-1.7-0.7-3.5-0.3-5.3c2.4,0.3,2.2,5.2,5.3,2.2c-2.8-6,7.5-4-1.3-5.9c2.4-3.8,4.3-1.1,8.2-4
		c-3.6-2.8-4.3-14.5-2.1-18.3c1,1.4,2.1,2.7,3.6,3.5c7-4.2,12.4-4.2,18.7-8.8c1.5,0.8,5.7,0.1,6.1,3.4c0.1-1.5-0.3-4,1.4-5.6
		c7.3,1.8-3.8,3.9,3.2,7.3c-2.1-3.4,1.8-8,2.9-12c-4.5-3.9-6.8,3.9-8.2,7.8c-2.5-3.5-3.9-7.5-4-11.9c-0.3-4.5,0.6-8.8,2.4-12.8
		c3.5-5.4,5.4,2.4,5.6,0.8c5-3.1,4.6-7.5,4.3-11.2c-0.3-3.8-0.4-6.8,5.2-7.8c6.3,1.4,7,7.7,10.2,9.9c-2.5,4.9-8.1,2.7-10.6,5
		l4.9-0.8c0,2.4-1.8,5.6-4.2,5.7c2.8,0.7,6.7-2.4,11.2-6c4.5-3.5,9.4-8,14.2-9.5c0-2.4,0.7-5.7-1.7-6.3l-1.5,2.4
		c-4.9-1.3-0.1-8-4-6.8c0.7-4.9,0.6-11,6-13.1l4.9,3.5c-1.3-1.1-4.9,0-4.9,2.4c-0.3-3.4,11.6-0.1,7.7-7.3l-5.6-0.3
		c0.6-4.9-0.7-12.4,3.8-14.5c-5.7-2.4-0.3,1.3-7.5-1.1c8.2,3.9-8.5,8.2,1.1,11.3c-8.1-3.2-6.6,1.8-14.5,0c1.5,1.3,3.8,1.5,0.3,3.6
		c0.3,0.6,0.4,1.3,0.6,1.8h-0.3h0.3c0,0.3,0,0.4,0,0c1.3,0,2.4,0.1,3.5,0.8c1.7,4.6-2.8,8.9-2.9,12c-2.4,0.8-0.8-2.4-3.2-2.9v4.7
		c-3.2-2.9-9.5-1.3-7.1-6.7l-3.8,3.1c-3.8,0.1-7.3,2-8,4.9c-2.4,0.7-1.3,7.4-2,3.5c-1.4,2.4-2.7,4.7-4.2,7l-0.7-0.8
		c-3.1,2.1-5,6-7.5,9.2c-2.8,3.6-7.3,5.6-11.9,5c-1.3,3.1-3.8,5.4-7,6.4l-2.8-2.7c-2,2.9-10.1,2.4-9.1,6.4c-4.3-3.4-7.8-1.7-11,1
		c-3.2,2.7-6.3,6.1-9.1,6.8l2.4,4.3c-1.8,1-3.4,2.1-4.7,3.6c-1.5,1.5-2.9,3.2-4.6,5.3l2.4,3.6c-2.1,5.2-11,2.7-16.8,5.9
		c-0.3-1.7,1.4-2.1,2.9-1.7c-5.9-2.7-8.7,0.8-11.4,4.6c-2.8,3.8-5.6,7.5-10.3,5.7c-0.4,1.5-2.1,2.4-3.5,2c-0.1,0-0.3-0.1-0.4-0.1
		c0.1-0.1,0.3-0.3,0.3-0.4c-0.3,0-0.4,0.1-0.7,0.3c-1-0.4-2.1-0.8-3.2-1.1c0.8,0.6,1.8,1.1,2.8,1.3c-1.7,1-3.2,2.2-4.5,3.8l-2.7-4
		c-0.1,0.1-0.3,0.1-0.4,0.3c-2.4-0.8-0.7,2.7,1.7,5.6c-0.7,1.1-1.3,2.4-1.5,3.6c-4.3-6.4-4.2,4.5-9.2-2.2c0,4.2-8.8,6.3-7.1,14.4
		c-0.4-1-1.3-1.3,0-1.7c-2.4,0-5-0.3-6.3,2.7l-2.8-5.3l-2.4,9.1c-4-2.5-5.9-4.2-4.3-9.5c-5,8.9-4.9,4.3-9.1,12.8l-0.7-3.8
		c-2.1,0.7-4.3,6.6-6.4,3.9c-2-1.4-4.5-2.1-6.8-1.7c-1.5,0.1-3.1,0.3-4.6,0.7c-1.7,0.3-3.4,0.6-5.2,0.8c-3.6,0.7-7.3,1.4-11.2,1.7
		c-3.8,0.3-7.4,0-11-1.1c4.3,10.7-6.7-4-5.9,4.9c-1.1-2.4-3.1-3.8-1.4-6.4c-2.4,1.3-5.2,1.5-7.8,0.8c-2.2-0.1-4.2,0.1-5.9,4.2
		c-1.1-2.5,1-4,0-5.6c-0.4,0.7-1.8,2.5-2.7,1.1c-0.8-1.5,0.7-2.4,1.5-3.6c-6.4,1.3-6.3,9.5-6,17.3c-3.8-3.4-5.4-2.8-7.5,2.4
		c-1.4-2.4-3.6-4.9,0.6-6.1c-2.4-0.1-14.5-2.4-14.5,3.5c-0.8-1.5-3.4-0.3-3.9,0.4c-3.6-0.4-7.4-0.4-11,0l1.5,1
		c-2,7.7-4.3,1.7-8.7,2.7v-0.8c-9.8-5.4-4.3,2.7-13.8-3.6l0.4,4.6c-1.3,10.1-8.4-6.3-14.1-2.7l1.8,2.8c-1.7,1.7-3.6-1.8-5.4-6
		c-1.8-4-3.6-8.9-5-9.8c-0.6-1,1.1-1.3,2.1-1.8c-7.3-6.6-1.4,6-7.4,7c-0.8-3.4,2.1-8.2-1.7-9.2c-0.8-1.4-3.9,1.1-7.3,2.9
		c-3.4,1.8-7.4,3.1-9.8-0.4c0.8,2.7,1.7,5.3-1.3,6.8c-2.1,0.1-4.6-2.4-7.3-4.5c-2.7-2.1-5-3.1-7.5,0.7c-0.4-0.7-0.6-1.4-0.4-2.1
		c-3.5,1.5-10.9,1.8-13.7,5.6c0-8.2-5.2-7.3-10.2-6.1c-5,1.1-9.8,2.4-8-4.9l-9.8-1.5l0.7-1.4c-5.9-2.4-8.9,0.3-12.1,3.2
		c-1.1-1.4,0.3-2.4,0.6-3.1c-4-2.8-6.3-4-8.8-3.9c-2.5,0-5.2,1.4-9.9,3.6l0.7-4.9c-1.4,1-4-1.8-7.5-4.6c-3.5-2.8-7.8-5.6-13.1-4.6
		c0.4-0.7,1-1.3,1.7-1.7c-5.7,0.8-10.3-4.2-14.5-8.1c-4-3.9-8.1-5.7-13.3,1.5c-2.7,0.4-5.3,0.8-8,1.3c7.5,4.9-4.3,6.4-2.1,10.6
		c-3.6-0.6-6.1-8.7-1.8-7.7l0.3,1.1c5.2-7.7-8.7-7.5-5.7-13.1c-3.9-1.7-7.7-3.8-11.3-6.1c-3.6-2.4-7.1-4.6-10.5-7.3
		c-6.7-5.2-13.3-10.2-20-14.5l-2.1,7.1l-4-3.1c-0.4-2.2,1.3-5.7,4.5-3.5c0.3-4.5-7.5-0.6-8.4,0.7c-5.2-6.4,7-5.4,5-6.8l-3.1-1.3
		l0.1,1.1c-3.8,1.1-5.6,3.5-9.5,0.7c-1.8-2.9,1.1-4.6,0.3-5.4c0.3-0.4,0-0.8-1.4-1.3l-5.6-4.3l-0.7,6.3c-4.2,0.6-5.4-3.9-6.3,3.2
		c1.5-10.7-19.8-18.1-20.2-22.6c-6,0.6-9.5-2.1-13.4-5.9c0.3,1.8-2.9,7.3-6.1,3.6c9.5-9.1-3.1-9.9,0-19.4c-0.7,3.5-3.5,1.7-6.3,0.3
		c-2.8-1.4-5.6-2.5-6.4,2.4c-2.2-3.4,3.1-3.9,2.8-8.1c-5.2-1.1-8.4-5-11.6-9.6c-3.2-4.6-6-9.8-10.6-13c-1.4,1.1-1.8,4.3-5.3,4.5
		c0.6-3.4,1.1-6.8,1.8-10.3c-2.1-1-8.4,5.4-7.1-1.7c-0.7,1.4-1.5,3.6-3.1,2.9c-2.5-5.2-5.7-9.9-9.8-14.1c-3.8-4.2-8.2-8-12.1-12.1
		c-4.2-4-7.8-8.5-10.9-13.4c-3.1-5.4-4.9-11.4-5.3-17.6c-0.7,4.5-2.2,3.1-3.8,1.3c0.3,1.7-3.4,2.4-5,4.2c-0.3-3.8-0.4-7.7-0.7-11.4
		c-6.1,2.4-6.4-8-11.9-5.2l2.4,2.1c-8.4,1-9.8,14.1-17.4,19.1c4.7-0.6,4,3.8,4,8.1s0.8,8.8,7.8,8.1c-0.4,2.4-3.2,0.7-4.5,2.8
		c4.3-1,6.4,0.4,7.8,5l-1.1,0.3c3.5,3.8,6.4,8,8.7,12.6c2.2,5.2,4.7,10.3,7.7,15.1l2.8-3.9c1,1.8,1.4,3.9,1,5.9
		c7.5-2.1-5.4-6.4,2.4-9.4c-4.3,9.2,14,15.6,8.4,24.7c3.2,3.4,2.9-4.7,6-1.4l-1.3,2.9l3.5-1.8c1.3,2.7,0.6,5.9-1.4,8
		c-0.3-0.7-2-1-2.7-1.4c0.4,5.3,8.7,7.1,8.9,8.8l-2-4.3c5.6,3.9,10.7,8.2,15.6,13.1c4.9,4.7,10.7,8.4,17.3,10.6l0.7-2.2
		c4.9,1.5,5.9,3.2,6.7,5c1.3,2.9,3.5,5.3,6.4,6.6l-0.7,0.1c2.8-0.4,5.7,0.4,7.7,2.4c-3.6,0.4,0.7,6.8-3.6,7
		c10.7,2.8,6.1,0.4,16.2-2.1l-1,3.8c3.8-1.3,4.9-2.4,9.5-0.3c-5.2,0-0.7,6.4-6.8,6.8c2,6.4,6.4,7,9.9,7.7c3.5,0.7,6.1,1.1,4.9,7.3
		c9.8-5.4-4.5-9.9-1-10.1c0-3.9,7.5-3.8,9.8-1.1c2.7,2.1-2.4,13.7,4.9,18.3c-0.7-0.4-1.1,0-1.8-0.4c1.4,3.9,7.1,0.6,8.2,6.1
		c5-4,4.2,2.9,8.8-3.4c-2.4-0.8-5.2-1.7-7.5-2.7c4.9,0.7,13.1-4.9,17,2.5c-1.8,1.1-3.9,1.7-6,2c0.7,3.1,4.3,0.8,5,3.9
		c-4.5,6.3-9.1-3.5-16.2-1c0.3,3.9,10.7,0,4.3,5.9c8.5-7.3,6.7,5.6,15.8,1.5l-2.7,3.8c1.3-0.1,3.9-1.1,5.3-0.3l-5.7,3.8
		c6.7-2.1,5.9,8.4,11.3,8.1c-8.5-4.5,0.7-5.9-1.1-10.7c13.1,0.1,0,14,13,18.1c-2-0.3-4.7-5.6-1.3-6.1c2.2,2.1,3.6,4.9,4.3,8
		c8.2,3.1,1-4.9,5.6-5.7c0.1,6.4,4.9,0,9.1,0l-2,4.2c7.8,6.8,6.6-7.8,13.1-0.7l-6,4.2l4.9,0.4l-3.1,4.5c6.3-1.5,7.3,0.1,11.3,3.5
		c0.3-3.5,3.9-7.5,8-6c1.7,3.8-3.2,3.5,2.8,5.3c-2.4,2.2-5.3,4.9-6.1,0c-0.8,1.3-2.4,2.1-3.4,3.5c1.8,4.2,7.3,3.8,9.5,4.6
		c-0.8-0.4-1.5-1.1-1.8-2c3.6-0.8,7.3-1.7,10.7-2.7c0.7,2.1-0.8,3.1-2.4,3.9c2,0.1,3.9-1.4,6.6-0.8c-2,3.4-3.2,7-7.5,7.3l9.8-0.8
		c0,1.8,2.7,5.9,1.1,6.7c3.9,3.9,13.7-3.1,18.8,1.8c0.7-0.7,1.8-1.1,2.8-1.1c5.3,2.8,9.4,8.7,17.6,5.6l2.1,7.7
		c5.9,0-2.9-9.8,6.6-9.8c6.8-0.6,0.8,6.3,2.7,8.7c4-2.4,11.2-8,15.8-1.1C564.5,1154.9,563.2,1153.5,561.3,1153.5z M629.4,1162.2
		c-1.4,0.8-4.5,3.5-5,0.7C626.5,1157.7,627.3,1160.5,629.4,1162.2L629.4,1162.2z M732.1,1150.8c-0.8,1.7-2.4,1.1-4.2-0.4
		C729.3,1149.6,731,1149.8,732.1,1150.8L732.1,1150.8z M965.5,1011.9c0,0.1,0,0.1,0,0.3c-3.1,0.4-1.8,0.3,0.1-0.3H965.5z
		 M971.1,1009.6c0-0.7-0.4-1.4-1.1-1.7c0.6,1.1-0.4,2.1-1.7,2.8c1.3,0.7,2.4,0.8,2.9-1.1H971.1z M409.5,1041.7l0.3,1.7
		c-2.7-0.3-1.4-0.8-0.1-1.7H409.5z"/>
	<path class="st1" d="M721.4,1158.1c-0.4-0.7-0.7-1.5-0.8-2.4c-0.4,0.8-0.3,1.8,0.6,2.4C721.2,1158.1,721.2,1158.1,721.4,1158.1z"/>
	<path class="st1" d="M519.4,1144.3h-0.1c-0.1,0.3-0.3,0.4-0.4,0.7L519.4,1144.3z"/>
	<path class="st1" d="M922,1095.6c-1.1,0.1-2.4-0.3-3.4-0.8C919.2,1095.9,920.2,1096.5,922,1095.6z"/>
	<path class="st1" d="M987.2,983.2l-1.7,3.5c1-1.4,2.2-1.1,3.4-1.3C988.1,984.8,986.5,984.1,987.2,983.2z"/>
	<path class="st1" d="M1030,979.5c0-0.8,0.7-0.8,0.7-1.7l-1.8-1.3C1027.6,978.4,1027.8,980.7,1030,979.5z"/>
	<path class="st1" d="M1000.7,991.8c3.1,2.4,3.8,0,4.9-2.4c-0.1,0.1-0.1,0.3-0.3,0.3C1001.8,985.3,1001.3,988.6,1000.7,991.8z"/>
	<path class="st1" d="M1006,988.7c0.4-0.7,1-1.4,1.5-1.8C1006.1,985.2,1006.6,987.4,1006,988.7z"/>
	<path class="st1" d="M974.7,1002.8c1.5,0-2.9-4.2-1.3-3.5C971.1,994.7,971.7,1009.2,974.7,1002.8z"/>
	<polygon class="st1" points="1011.4,999.3 1007.4,996.5 1009.1,1000.3 	"/>
	<path class="st1" d="M994.3,1011.4l3.9-2c-0.6-0.6-0.7-1.3-0.3-2C996,1009.2,993.2,1010.5,994.3,1011.4z"/>
	<path class="st1" d="M997.9,1007.5c1-0.7,1.7-1.7,1.8-2.9C998.9,1005.4,998.3,1006.4,997.9,1007.5z"/>
	<polygon class="st1" points="1008.5,1004.5 1007,1004.6 1004.6,1006.4 	"/>
	<path class="st1" d="M959.8,1040.3l-2.7,3.9c0.7,1.5,2.2,1.7,3.2,0C960.5,1042.9,961.3,1041.2,959.8,1040.3z"/>
	<path class="st1" d="M979.1,1041.7c-1.7,0-2.4-0.7-3.9-1.5l3.8,4.7L979.1,1041.7z"/>
	<path class="st1" d="M969.4,1051.6c0.7,1.5-2.4,8.1,2.1,4C970.8,1054,973.6,1050,969.4,1051.6z"/>
	<polygon class="st1" points="907.2,1085.3 908.2,1084.6 903,1076.1 	"/>
	<path class="st1" d="M861.1,1134.4c6.3,0-1.1-6.1,4.9-5.4c0.3-2.7-4.9-0.6-4.3-2.9C859.4,1129.7,857.2,1129,861.1,1134.4z"/>
	<path class="st1" d="M861.7,1126c0.4-0.7,0.7-1.4,1-2.1C862.2,1124.6,861.8,1125.3,861.7,1126z"/>
	<polygon class="st1" points="264.4,896.4 264.1,892.4 262.6,896.1 	"/>
	<path class="st1" d="M254.6,895.4l4.6-4.3l-5.9,1.7C254.1,893.2,255.3,894.1,254.6,895.4z"/>
	<path class="st1" d="M638.5,1175.9l0.4-1.5c-0.4-1.7-1.3-2-3.1-2.2L638.5,1175.9z"/>
	<polygon class="st1" points="588.9,1164.6 589.8,1164.8 589.1,1159 	"/>
	<path class="st1" d="M545.8,1162.3c1.7,0.7,3.9,0,5.6,0.6C547.3,1163,547,1155.4,545.8,1162.3z"/>
	<path class="st1" d="M260.8,627.9c-3.8,2.9-8.4,6.1-14,9.9c-5.6,3.8-12.1,8-19.7,12.4c-6.8,3.9-12.8,7.3-18,10.1
		c-4.2,2.4-8.7,4.5-13.1,6.3c-5.2,2.4-10.7,4.2-16.3,5.2c-5.9,1.1-11.7,1.7-17.7,1.5c-2.1,0-4.2-0.3-6.3-0.8c-2.4-0.6-4.9-1.3-7.4-2
		l-8.2-2.2c-1.8-0.6-3.8-1-5.6-1.1l-2.2-2.2l-5.4-0.7c-3.1-0.4-6-1.7-8.5-3.6c-3.9-2.8-7.5-5.9-10.7-9.4c-3.4-3.4-6.4-6.8-9.1-10.7
		c-2.1-2.8-3.8-6-5-9.2l-5-16.2c-1.8-5.4-3.1-9.9-3.9-13.4c-0.7-2.1-1.1-4.3-1.1-6.6l2.1-8.5c-1-2.9-1.8-5.3-2.4-7.1
		c-0.4-1.4-0.7-2.8-0.8-4.3c0-1,0.3-4,1-9.2c0.6-5.2,1.5-12.3,2.7-21.5c0.8-1.8,1.8-3.9,2.8-6.4c1.1-2.8,2.1-5.6,2.8-8.5l-0.6-4.2
		c0-1.3,0.3-2.4,0.7-3.5c0.6-1.5,1.1-2.9,1.8-4.5c2.9-6.1,5.7-12.3,8.7-18.6c2.9-6.3,5.7-12.3,8.7-18.3c2.8-4.9,6-9.6,9.8-14
		c3.9-4.7,8.5-9.8,13.7-14.8c1.1-1.3,2.4-2.9,4.2-4.9c1.7-2,3.6-4.2,5.9-6.6c2.8-1.7,5.3-3.6,7.8-5.7c3.1-2.5,6.7-5.9,11-9.9
		c1.3-0.4,2.8-1.3,4.5-2.1l6.4-3.2c0.8-0.6,1.7-1.1,2.4-2c1-0.8,2-1.8,3.4-2.8s6.4-3.1,15.1-5.6c5.6-1.8,11.2-3.1,17-3.8
		c4.9-0.1,9.8,0.3,14.5,1.3c3.5,0.6,6.7,1.8,9.6,3.9l6,1.1c5,1.1,8.7,4.9,11,11.4s3.6,15.9,3.6,28.2c0,5.7,0,10.3-0.1,13.8
		c0,2.4-0.3,4.7-0.6,7c-0.7,3.8-1.7,8.5-2.5,14.2c-1,5.7-2.1,12.3-3.6,19.8c-0.4,3.4-1.3,6.7-2.4,9.9c-1.5,4.6-3.6,10.2-6.1,17
		c-2,5.7-4.2,11.3-6.7,16.8c-1.8,3.9-3.5,5.9-4.7,6.3c-5,1.3-10.5,2.7-16.2,4.2c-2,0.1-3.9-0.1-5.9-0.7c-1-0.3-1.7-1.1-1.7-2.1
		c0.1-1.4,0.3-2.8,0.7-4.2c0.3-1.3,0.6-2.7,0.7-3.9c-0.4-4.9-0.7-9.6-1.1-14.5c0.3-3.5,0.7-7,1.5-10.3c1-5.2,2.4-11.7,4.5-19.8
		c2.1-8.8,4-15.6,5.6-20.8c0.8-3.4,2.2-6.6,3.9-9.5c3.1-2.8,5.9-6.1,8-9.8c1.5-2.5,2.4-5.4,2.4-8.4c0.1-3.2-0.8-6.4-2.5-9.2
		c-1.8-2.8-4.5-4.9-7.5-6c-3.2-0.7-6.6-1.4-9.9-2.1c-3.4-0.7-6.6-1.5-9.9-2.4c-2.2,0.8-4.6,1.7-7,2.2L190,440
		c-8.9,1.7-17.3,5.7-24.1,11.7c-8.8,7.5-16.2,16.5-22.1,26.5c-5.6,9.4-10.2,19.3-14,29.5c-3.5,9.6-5.9,19.5-7.1,29.6
		c-0.6,3.1-1.1,6.7-1.8,11.2s-1.8,9.8-3.2,15.6c1.1,3.8,2.1,7.3,3.1,10.3l-2,17c0.3,1.4,0.8,2.7,1.7,3.9c1.1,2,2.9,4.9,5.3,8.5
		c1.5,2.4,2.8,4.9,3.8,7.5c1.3,3.2,2.1,6.4,2.7,9.8c0.3,1,0.8,2,1.4,2.8c0.7,1,1.5,1.8,2.4,2.4c2,1.7,3.8,3.1,5.4,4.3
		c4.9,5.4,10.7,9.8,17.2,13.1c6,2.9,12.7,4.5,19.4,4.5c0.6,0,2.9-0.3,7-1c4-0.7,9.8-1.7,16.8-3.1c1.5-1,3.2-2,4.9-2.7
		c2.1-0.8,4.6-1.8,7.4-2.8c2.1-2.2,4.7-4,7.5-5.3c2.2-1,4.6-1.5,7-1.5c0.6-0.8,1.4-2,2.4-3.2c1.1-1.4,2.4-2.8,3.6-4.2
		c3.8-1.5,7.3-3.5,10.3-5.9c3.2-2.5,6.3-5.4,9.1-8.5C258.2,621.4,260.8,627.3,260.8,627.9z"/>
	<path class="st1" d="M252.9,610.6c2.8-2.4,4.9-4.2,6.4-5.6c1.3-1.1,2.5-2.4,3.6-3.6c1.8-1.7,3.5-3.5,4.9-5.4
		c1.1-1.4,1.8-2.9,2.1-4.7c1.1-4.2,2.4-9.6,3.9-16.1c1.5-6.4,3.5-13.8,5.9-22.2c1.1-2.4,2.4-5.7,3.6-9.5c1.3-3.8,2.8-8.1,4.2-12.8
		c1.4-5.9,3.2-11.6,5.6-17c2.1-4.9,4.6-9.5,7.5-14c1-1.4,2-2.8,2.7-4.5c1-2,1.8-3.9,2.7-5.9c1.1-2.4,2.4-4.7,3.6-7
		c1.5-2.7,3.4-5.9,5.3-9.5c5.2-7.5,9.6-14,13.5-19.4c3.9-5.4,7.1-9.8,9.6-13c4.5-5.4,9.1-10.5,13.7-15.1c4.6-4.7,9.2-9.1,13.8-13.1
		c3.4-3.1,7.1-5.7,11-8c2.2-1.4,4.9-2.2,7.5-2.4c1.4,1.1,2.8,2.5,3.8,4.2c0.8,0,1.8-0.1,2.7-0.4c2.9-0.1,5.7,1.4,7.1,3.9
		c2.2,5,2.9,10.7,1.7,16.1c-0.4,1.8-0.8,4-1.5,6.7c-1,1-1.5,2.1-2,3.4c-0.4,1.4-0.7,2.8-1,4.2c-0.1,1.5-0.3,3.1-0.6,4.5
		c-0.3,1.1-0.6,2.2-1,3.4c-1.7,2.9-3.4,6.7-5.3,11c-1.8,4.3-3.9,9.4-6,15.1c-1.3,2.1-2.8,4.9-4.7,8.5c-1.8,3.6-4.2,7.4-6.7,11.7
		c-1.3,2.4-2.9,5.3-4.9,8.9c-2,3.6-4.5,7.7-7.4,12.3c-1,2.1-2.2,4-3.9,5.7c-1.8,2.1-4,4.5-6.4,7.3c-1.7,3.6-3.9,7.1-6.3,10.3
		c-3.5,4.9-8.2,11.2-14.4,19c-3.1,3.9-6.8,8.8-11.7,14.5c-4.7,5.9-10.2,12.7-16.5,20.4c-2.4,9.4-4.2,17.7-5.3,25.1
		c-1.1,6.3-1.7,12.7-1.8,19.1c0,1.7,0.1,3.2,0.4,4.9c0.3,1.1,0.8,1.5,1.8,1.5c0.8-1.1,1.7-2.1,2.8-2.9c1.3-1.3,2.5-2.5,3.6-3.9
		c3.4-3.5,6.1-7.5,8.4-11.9c3.2-5.7,6.8-13.3,11-22.3c2.8-6.6,6-13,9.8-19.1c2.9-4.5,5.3-7.1,7.1-8l6.6-2.8c1.3-0.6,2.4-1,3.4-1.3
		c0.8-0.3,1.5-0.6,2.4-0.6c2,0.1,3.6,1.3,4.5,3.1c1.5,2.5,2.8,5.3,3.4,8.2c1.7,6.4,2.9,11.3,3.9,14.8c1,3.5,1.5,5.4,1.7,6.1
		c1.3,3.2,3.2,6,5.9,8.2c2.4,1.8,5.3,2.7,8.4,2.7c3.9-0.7,8.5-1.5,13.7-2.7c1,2.4,2.1,5.2,3.5,8.1c1.3,2.9,2.7,6,4,9.2
		c-3.1,2-6,3.9-9.1,5.9c-3.1,2-6.1,3.8-9.1,5.6c-2.7,1.3-5.6,2.1-8.7,2.4c-4.3,0.6-8.8,0.8-13.1,0.8c-7.5,0.1-14.4-4-17.7-10.7
		c-4.2-7.3-6.7-10.7-7.5-10.6h-1.1c-2,2.4-4,5-6.3,7.7c-2.2,2.7-4.3,5.4-6.4,8.2c-1.7,3.5-3.6,6.8-5.9,9.9c-2.4,3.8-5.6,8-9.1,12.4
		c-3.2,4-6.8,8-10.9,11.3c-2.2,2.1-5,3.4-8.1,3.8c-3.8,0.1-7.5-0.4-11.2-1.5c-2.4-0.7-4.2-2.5-4.9-4.9c-1.5-7-2.7-13.1-3.5-18.3
		c-0.7-4.3-1.1-8.8-1.3-13.3c0-1,0-2,0.1-2.9c0.1-0.8,0.3-1.7,0.4-2.4c0.4-1.7,0.8-3.4,1.3-5.3c0-0.6-0.1-1-0.4-1.4
		c-0.4-0.3-1-0.6-1.5-0.4c-0.4,0.6-1,1.1-1.5,1.7c-0.8,0.7-1.7,1.4-2.7,2.1c-0.6-1.7-1.4-3.9-2.7-6.8
		C256.6,618.2,255,614.7,252.9,610.6z M375.2,436.9c-1.4,0-4.2,2.4-8.2,7.4c-5.6,7-10.9,14.4-15.8,21.9c-3.6,5.4-7.3,10.7-10.7,16.1
		c-3.5,5.3-7,10.7-10.3,15.8c-1.4,1.3-2.5,2.8-3.4,4.5c-0.7,1.5-1,3.1-1,4.7c-2.4,7-4.9,13.5-7.3,19.7c-2.2,6.7-4,11.7-5.6,15.4
		l-2.5,6.4l1,1c2.4-2.1,4.6-4.5,6.4-7.1c2.4-2.9,5.6-6.6,9.1-11.2c3.6-4.6,7.7-9.9,12.1-16.1c5.3-6.8,9.9-14.2,14-21.9
		c4.7-8.8,9.9-19,15.4-30.6c3.1-6.3,5.4-11.3,7-15.1c1.3-2.5,2.1-5.2,2.4-8c0-0.7-0.1-1.5-0.4-2.1C376.9,437,376,436.8,375.2,436.9
		L375.2,436.9z"/>
	<path class="st1" d="M397,602.3l17-11.3c0.8-0.7,1.5-1.5,2.2-2.4c1.1-1.4,2.1-2.9,3.1-4.6c0.8-1.7,2.1-3.1,3.5-4.2
		c1.5-1.3,3.2-2.2,5-3.1c1.4-1.7,2.8-3.2,4.3-4.7c1.8-2,4.2-4,7.1-6.6c1.4-0.7,3.1-1.8,5.3-3.4c2.5-1.7,4.7-3.6,7-5.7
		c9.2-9.1,19.3-17.2,30-24.3c8.7-5.4,15.8-8.1,21.6-8.1c2.7-0.3,5.2,0.6,7.3,2.1c1.7,1.5,2.5,3.6,2.4,5.9c0,2.4-0.4,4.7-1.4,7
		c-1,2.1-2.5,3.8-4.5,5c-3.2,2.2-6.6,4.7-10.2,7.5c-2.2,2.9-4.7,5.7-7.3,8.4c-3.2,3.2-6.6,6.1-10.2,8.8c-1.3,1.7-2.4,3.1-3.2,4.3
		c-0.7,0.7-1.8,1.8-3.6,3.4c-2.2,2-4.5,3.9-7,5.6c-2.2,3.9-4.9,7.5-8.2,10.7c-4.2,4.3-9.8,9.6-16.8,15.8c-1.7,2-3.2,3.9-4.7,6
		c-2.2,3.1-5.2,7.3-8.8,12.4l1.3,1.7c3.1-1.1,5.9-2.5,8.5-4.5c3.5-2.5,6.8-5.4,9.9-8.5l10.5-9.5c1.8-1.7,3.8-3.4,5.7-4.9l2.7-1.5
		c0.8-0.6,1.8-1.1,2.9-1.8c4.6-5.9,10.1-11,16.2-15.4c4-2.9,8.9-4.7,14-5c2.4-0.1,4.7,1.1,6,3.1c1.5,2.8,2.4,6,2.4,9.4
		c-0.3,6.3-0.4,12.3-0.4,18c-0.1,3.9,1,7.7,3.4,10.7c2,3.1,5.4,4.9,9.1,4.9c1.1,0,2.2-0.3,3.4-1c1.1-0.7,2.2-1.5,3.4-2.4
		c0.8-1.1,1.7-2.2,2.4-3.2c0.7-1,1.7-2,2.5-3.1c0.7-0.4,1.4-0.8,2.1-1.3c1-0.7,2-1.4,2.8-2.2c1.8,3.8,3.2,7,4.5,9.9
		c1.1,2.4,2,4.9,2.8,7.4c-2.9,2.7-5.7,5.3-8.5,8.2c-2.8,2.8-5.9,5.4-8.9,8c-3.4,2.7-7,4.9-10.9,6.4c-3.4,1.4-6.8,2.1-10.5,2.1
		c-8.1,0-14.4-2.4-18.8-7c-4.5-4.6-7-11.7-7.7-21.1c0-1.1-0.1-2.4-0.4-3.5c-0.4-1.4-1.1-2.7-2-3.6c-0.7,0.7-1.4,1.3-2.1,2
		c-0.7,0.7-1.7,1.5-2.7,2.8l-6.1,4.7c-2.5,1.8-5.3,4.2-8.5,6.8c-4.5,4.5-8.1,8.2-11.2,11c-3.1,2.9-5.2,4.9-6.4,6.1
		c-2.8,2.4-5.7,4.5-8.8,6.4c-3.4,2.1-7,4.3-11.2,6.6c-2.7,1.4-4.9,2.4-6.7,3.4c-1.3,0.7-2.7,1.1-4.2,1.3c-6,0-10.5-1.5-13.4-4.5
		c-2.9-2.9-4.3-7.5-4.3-13.7c0-3.4,0.7-6.7,2.1-9.8c1.7-3.4,3.8-6.4,6.4-8.9c0.3-1.3,0.3-2.7,0.4-3.9c0-0.7-0.1-1.4-0.4-2
		c-0.3-0.7-0.7-1.5-1.3-2.4l-2.5-5.9c-1-2.2-2-4.6-3.1-7c0.8-1,1.5-2,2.1-2.9C394.6,606.2,395.7,604.4,397,602.3z"/>
	<path class="st1" d="M535.6,610.6c0.7-0.8,1.7-2.1,2.7-3.5s2.1-3.1,3.4-4.9c5.4-6.8,10.9-13.1,16.1-18.6
		c5.2-5.4,10.2-10.3,14.8-14.5c2.4-2.2,5.3-5.2,8.7-8.8c3.4-3.6,7.3-7.7,11.9-12.3c4.5-1.8,9.5-3.8,14.9-6c2.9-0.3,5.7,1,7.5,3.4
		c1.8,2.8,2.7,6.1,2.4,9.5c0,3.8-0.3,7.7-0.8,11.3c-0.6,4-1.4,8.2-2.4,12.4c-1.1,3.4-2.1,6.7-2.8,9.8c0,0.7,0.1,1.4,0.6,2
		c0.6,0.4,1.1,0.7,1.8,0.7c4-2.7,7.7-5.9,10.9-9.4c5.4-5.4,12.4-13,21.2-22.6c6-6.8,12.6-13,19.8-18.6c5.6-4,10.2-6.1,13.5-6.1
		c3.2-0.3,6.3,1.4,8,4c2,3.6,2.8,7.8,2.4,12c0,7.4-0.6,14.8-1.7,22.1c-1.1,7-3.1,13.8-5.9,20.4c-0.4,1-0.7,2.1-1,3.2
		c-0.1,0.8-0.1,1.7-0.1,2.4c0,0.8,0.7,1.7,2.2,2.4c1.3-1.1,2.5-2.2,3.6-3.6c1.3-1.7,2.8-3.6,4.6-6.1l8.7-7.1c2.9-2.4,6-4.7,9.4-7.3
		c3.2-2.7,6.8-4.7,10.7-6.3c3.4-1.4,7-2.1,10.7-2.1c0.7,0,1.3,0.1,1.8,0.6c0.7,0.4,1.3,0.8,2,1.3c2.5,2.1,4.9,4.5,7.1,6.8
		c1.5,1.5,2.9,3.4,3.9,5.3c3.6,8,8,15.4,13.1,22.5c3.8,5,7.1,7.4,10.1,7.4c0.7,0,1.3-0.1,2-0.4c0.7-0.3,1.3-0.7,1.8-1.3
		c2.9,6.1,5.3,11.9,7.3,17.3c-3.8,3.1-7.8,5.7-12,8c-2.8,1.7-6,2.5-9.2,2.8c-8.7,0-17.6-5.6-26.8-16.9
		c-9.2-11.2-16.2-16.8-21.1-16.8c-6.4,0-17.3,9.6-32.5,28.9c-15.2,19.3-24.7,28.9-28.3,28.9c-2.5,0-5-0.3-7.5-0.6
		c-1.1-0.4-2-1.4-2.2-2.4c-0.6-1.4-0.8-2.8-0.7-4.2c0.1-2.5,0.4-5,1.1-7.4c0.7-3.1,1.8-6.7,3.1-10.7c1.7-5.3,2.9-9.5,3.9-12.6
		c0.7-2.1,1.3-4.3,1.7-6.6c0.4-1.7,0.8-4.9,1.5-9.6s1.5-11.2,2.8-19c0-1.1-0.3-2.4-1.1-3.2c-0.7-0.7-1.7-1.1-2.7-1.1
		c-1,0-2.1,0.3-2.9,0.8c-1.4,0.7-2.5,1.7-3.6,2.8c-1.5,1.7-3.2,3.4-4.9,4.9c-1.8,1.7-4.7,3.9-8.8,7l-13.4,15.4
		c-4.6,5.2-9.2,10.5-14,15.6c-7.5,8.8-13.5,15.2-18,19.4c-4.5,4.2-7.3,6.3-8.5,6.3c-2.9,0.1-5.9-0.3-8.5-1.3
		c-1.7-0.6-2.9-2.1-2.9-3.9c0-4.2,2.2-12.7,6.7-25.8c4.5-13.1,6.7-22.3,6.7-27.8c0-0.8-0.3-1.5-0.8-2.1s-1.4-0.8-2.1-0.8
		c-2,0.1-3.9,1.1-5.3,2.4c-2.7,2.4-5,5-7.1,8c-1.8,2-3.9,4.3-6.4,7c-2.5,2.7-5.6,5.7-9.2,9.2c-0.4,1-0.8,2-1.5,2.9s-1.4,1.8-2.1,2.8
		c-0.7-2.4-1.5-4.7-2.7-7C539.4,618.1,537.7,614.7,535.6,610.6z"/>
	<path class="st1" d="M772.9,610.6c1-1.1,1.8-2.2,2.7-3.5l3.4-4.9c5.4-6.8,10.9-13.1,16.1-18.6c5.2-5.4,10.2-10.3,14.8-14.5
		c2.4-2.2,5.3-5.2,8.7-8.8c3.4-3.6,7.4-7.7,11.9-12.3c4.5-1.8,9.5-3.8,14.9-6c2.9-0.3,5.7,1,7.5,3.4c1.8,2.8,2.7,6.1,2.4,9.5
		c0,3.8-0.3,7.5-0.8,11.3c-0.6,4-1.4,8.2-2.4,12.4c-1.1,3.4-2.1,6.7-2.8,9.8c0,0.7,0.1,1.4,0.6,2c0.6,0.4,1.1,0.7,1.8,0.7
		c4-2.7,7.7-5.9,10.9-9.4c5.4-5.4,12.4-13,21.2-22.6c6-6.8,12.6-13,19.8-18.6c5.6-4,10.2-6.1,13.5-6.1c3.2-0.3,6.3,1.4,8,4
		c2,3.6,2.8,7.8,2.5,12c0,7.4-0.6,14.8-1.7,22.1c-1.1,7-3.1,13.8-5.9,20.4c-0.4,1-0.7,2.1-1,3.2c-0.1,0.8-0.1,1.7-0.1,2.4
		c0,0.8,0.7,1.7,2.2,2.4c1.3-1.1,2.4-2.4,3.5-3.8c1.3-1.7,2.8-3.6,4.6-6.1l8.7-7.1c2.9-2.4,6-4.7,9.4-7.3c3.2-2.7,6.8-4.7,10.7-6.3
		c3.4-1.4,7-2.1,10.7-2.1c0.7,0,1.3,0.1,2,0.6c0.6,0.4,1.3,0.8,1.8,1.3c2.5,2.2,4.9,4.5,7.1,6.8c1.5,1.5,2.9,3.4,3.9,5.3
		c3.6,8,8,15.4,13.1,22.5c3.8,5,7.1,7.4,10.1,7.4c0.7,0,1.3-0.1,1.8-0.4c0.7-0.3,1.3-0.7,1.8-1.3c2.9,6.1,5.3,11.9,7.3,17.3
		c-3.8,3.1-7.8,5.7-12.1,8c-2.8,1.7-6,2.5-9.2,2.8c-8.7,0-17.6-5.6-26.8-16.9c-9.2-11.2-16.2-16.9-21.1-16.8
		c-6.4,0-17.3,9.6-32.5,28.9c-15.2,19.3-24.7,28.9-28.3,28.9c-2.5,0-5-0.3-7.5-0.6c-1.1-0.4-1.8-1.4-2.2-2.4
		c-0.6-1.4-0.8-2.8-0.7-4.2c0.1-2.5,0.4-5,1.1-7.4c0.7-3.1,1.8-6.7,3.1-10.7c1.7-5.3,2.9-9.5,3.9-12.6c0.7-2.1,1.4-4.3,1.7-6.6
		c0.4-1.7,0.8-4.9,1.5-9.6c0.7-4.7,1.5-11.2,2.8-19c0-1.1-0.3-2.4-1.1-3.2c-0.7-0.7-1.7-1.1-2.7-1.1s-2.1,0.3-2.9,0.8
		c-1.4,0.7-2.5,1.7-3.6,2.8c-1.5,1.7-3.2,3.4-4.9,4.9c-1.8,1.7-4.7,3.9-8.8,7L853.6,616c-4.6,5.2-9.2,10.5-14,15.6
		c-7.5,8.8-13.5,15.2-18,19.4c-4.5,4.2-7.3,6.3-8.5,6.3c-2.9,0.1-5.9-0.3-8.5-1.3c-1.7-0.6-2.9-2.1-2.9-3.9c0-4.2,2.2-12.7,6.7-25.8
		c4.5-13.1,6.7-22.3,6.7-27.8c0-0.8-0.3-1.5-0.8-2.1c-0.6-0.6-1.4-0.8-2.2-0.8c-2,0.1-3.9,1.1-5.3,2.4c-2.7,2.4-5,5-7.1,8
		c-1.8,2-3.9,4.3-6.4,7c-2.5,2.7-5.6,5.7-9.2,9.2c-0.4,1-0.8,2-1.5,2.9s-1.4,1.8-2.1,2.8c-0.7-2.4-1.5-4.7-2.7-7
		C776.5,618.1,775,614.7,772.9,610.6z"/>
	<path class="st1" d="M1010.2,610.6l1.1-1.3l0.6-2c5.3-6.7,11.3-12.7,17.9-18.1s12.4-11.4,17.7-18.1c1-1.8,2.5-3.4,4.3-4.3
		c1.5-0.8,3.2-1.3,4.9-1.3c3.9-0.1,7.8,1,11,3.4c3.2,2.5,5.3,6,6,9.9c0.8,3.9,1.7,7.8,2.4,11.7c0.7,3.9,1.4,8,2,12
		c0.8,2.4,2,6.3,3.2,11.3c0.6,3.1,1.5,6,2.8,8.8c0.6,1.3,1.5,2.2,2.8,2.8c1.5,0.6,3.1,0.8,4.7,0.8c2.4,0,4.7-0.4,7-1.3
		c2.7-1,5.2-2.4,7.3-4.2c1.8-1.7,3.9-3.4,5.9-4.9l6.1-5l7.5,17.3c-2.5,2.5-5.2,4.7-8,6.8c-3.4,2.5-7.3,5.6-12,8.9
		c-4.2,3.1-8.5,5.9-13.1,8.4c-2.5,1.5-5.3,2.4-8.2,2.8c-11.4,0-18.8-1.3-22.2-3.9c-3.4-2.7-7.1-9.9-11.3-22.1
		c-0.7-1.3-1.4-2.4-2.2-3.6c-1-1.4-2.1-2.9-3.4-4.9c-1.1-2.2-2.5-4.5-3.9-6.4c-1.1-1.4-2.1-2.1-2.8-2.1c-3.1,0.4-5.9,2-8.1,4
		c-4.5,3.8-8.7,7.8-12.4,12.1c-0.7-1.7-1.4-3.6-2.4-5.9c-1-2.2-2-4.9-2.9-8c-0.3-0.7-0.6-1.4-1-2.1
		C1011.2,611.7,1010.7,611.1,1010.2,610.6z M1088.9,462.2c2.4-0.1,4.9,0.4,6.8,2c1.5,1.4,2.2,3.4,2.1,5.4c-0.7,3.5-1.4,6.4-1.8,8.8
		c-1.3,4.5-2.4,8.2-3.4,11c-0.8,2.9-1.7,4.9-2.1,6.3c-1.1,2.7-2.7,5.2-4.6,7.3c-2.1,2.2-4.5,4-7,5.6c-2.2,1.7-4.7,3.1-7.3,4.2
		c-1.3,0.7-2.7,1-4,1l-6.1-0.7c-2-0.1-3.9-0.3-5.7-0.3c-1.8-1.3-3.2-3.1-3.8-5.2c-1-3.4-1.5-6.7-1.4-10.2c0-3.8,2.2-8.5,6.8-14.2
		c4.6-5.7,8.7-8.8,12.1-9.1c2.1-2.7,4.6-5.7,7.5-9.1c1.5-1,3.1-1.7,4.9-2.1C1084.2,462.5,1086.5,462.2,1088.9,462.2L1088.9,462.2z"
		/>
	<path class="st1" d="M1117.8,610.6c1.7-2.8,3.6-5.6,5.9-8c2.8-3.1,5.7-5.9,9.1-8.4c0.4-2.4,0.7-5,1.1-7.4c0.4-2.5,0.6-4.9,0.7-7.4
		c0.4-2.1,1.1-4.2,1.8-6.3c0.8-2.4,1.7-4.9,2.8-7.7c1-2.8,2.7-6.1,4.6-10.3c2.2-4.7,4.9-9.5,7.5-14c2.7-2.9,5.4-6,8.2-9.5l8.7-10.5
		c1.4-1.1,2.9-2.2,4.5-3.2c1.7-1,3.4-2.1,4.9-3.4c1.7-0.6,3.4-1,5-1.3c2.1-0.4,4.2-0.6,6.3-0.6c2.5,0,5.2,0.3,7.5,1
		c2,0.6,3.6,1.7,4.9,3.2c1,1.4,1.8,2.9,2.4,4.5c1,2.4,1.8,4.7,2.4,7.3c0.4,2.4,0.8,5.3,1.3,8.2c0-0.7-0.3-0.4-0.7,1
		c-0.4,1.4-1.1,3.6-2,6.6l-1.7,6c-2.7,7.7-6.7,14.7-11.9,20.9c-7.7,9.6-15.9,18.6-24.8,27.1c-1,1-1.7,2.1-2.2,3.4
		c-0.6,1.3-1,2.8-1,4.2c0,2.4,0.4,4.7,1.4,7c0.8,2,2.2,3.5,4,4.5c1.5,1,3.1,1.8,4.9,2.2c2.5,0.8,5.2,1.5,7.8,2.1
		c4.5-0.3,9.1-1.1,13.4-2.4c3.8-1.1,7.3-2.7,10.7-4.5c0.6-0.4,1.7-0.8,2.9-1.5c1.5-0.7,2.9-1.7,4.2-2.8c1.7,3.6,3.1,6.8,4.3,9.8
		c1.3,2.8,2.2,5.4,2.9,7.5c-5.9,6-12.4,11.3-19.4,15.9c-4.7,3.2-10.3,5-16.1,5.3c-2.1,1.3-4.5,2.2-6.8,2.8c-3.1,0.6-6,0.8-9.1,0.8
		c-4.2,0.1-8.4-0.6-12.3-2.1c-3.4-1.3-6.4-3.4-8.9-6c-1.5-1.7-2.8-3.5-3.8-5.6c-1.3-2.4-2.5-5.3-3.9-8.8c-0.8-2.1-2-4.2-3.2-6.1
		c-0.7-1.1-2-2-3.4-2c-1.3,0.1-2.4,0.6-3.4,1.4c-1.5,1.3-2.9,2.7-4.2,4.2c-0.7-2.4-1.5-4.7-2.7-7
		C1121.4,618.2,1119.9,614.7,1117.8,610.6z M1178,549.4c-2.8,0-6.4,3.6-11.2,10.7s-7,12.6-7,15.9c0,0.6,0.1,1.1,0.4,1.5
		c0.6,0.4,1.3,0.6,2,0.4c1.4,0,2.8-0.8,3.4-2.1l2.4-4c1.4-1.3,2.8-2.7,4-4l3.9-4.2c1.4-1.5,2.5-3.4,3.4-5.3c0.7-1.7,1.1-3.5,1.1-5.3
		c0-1-0.1-2-0.7-2.8C1179.5,549.8,1178.8,549.4,1178,549.4L1178,549.4z"/>
	<path class="st1" d="M393.2,783.9l2.2,5.2c-1.1,0.6-2.2,1-3.5,1.1c-1.8,0.3-4,0.6-7,0.8c-2.9,2.9-6.3,5.6-9.8,8
		c-3.1,2-6.3,3.6-9.8,4.7l-2.5,0.7c-0.7,0-1.3-0.1-2-0.4c-0.8-0.3-1.7-0.7-2.4-1c-0.7-0.4-1.4-1-2.1-1.7c-0.4-0.4-0.7-1-0.7-1.5
		c0-1.3,0.7-2.5,1.7-3.2c1.4-1.3,2.9-2.2,4.7-2.9c4.2-2,8.4-3.9,12.4-5.9c0.4,0,1,0.1,1.3,0.4c0.3,0.3,0.4,0.6,0.4,1
		c0,1-0.7,1.8-2.1,2.5c-1.4,0.7-2.1,1.1-2.1,1.5c0,0.4,0.4,0.6,0.7,0.6c0.1,0,1.5-0.7,3.2-2.2c1.7-1.4,2.4-2.4,2.4-2.8l-0.3-1.3
		l0.1-0.3c0.8-0.7,1.5-1.4,2.1-2.4c0.4-0.4,0.7-1,0.7-1.5c-0.1-1.4-0.6-2.7-1.4-3.8c-1.3-2-2.7-3.9-4.2-5.6
		c-1.4-1.7-2.8-3.2-4.2-4.6c-1.4-1.4-2.8-2.5-4-3.6c-0.4-0.4-1-0.8-1.4-1.3c-0.3-0.4-0.6-0.8-0.8-1.3c-0.4-0.7-0.7-1.4-1-1.8
		c-0.1-0.4-0.4-0.7-0.7-1c-0.3-0.3-0.6-0.6-0.8-0.8c-0.3-0.3-0.7-0.7-1.1-1.1c-0.8-1-1.5-2.1-1.8-3.5c-0.4-1.8-0.7-3.6-0.7-5.4
		c0-1.4,0.1-2.8,0.6-4c0.4-1.3,1-2.5,1.7-3.6c0.1-0.3,0.3-0.6,0.3-0.8l0.4-1c1.1-2.1,2.7-4,4.3-5.7c2.5-2.4,5.2-4.6,8.1-6.4l1.7-0.8
		c0.7-0.4,1.4-1,2.1-1.4c0.4-0.4,1-0.7,1.5-1c0.6-0.3,1.3-0.7,2-0.8l3.4-1.4c1.5-0.8,3.1-1.5,4.6-2.1c0.8-0.4,1.8-0.6,2.8-0.7
		c1.1-0.1,2.1,0.3,2.8,1.1c0.7,1,1,2.1,0.8,3.2c0,1.3-0.1,2.5-0.3,3.9c-0.1,0.7-0.4,1.4-1,2c-4.3,3.5-8,6.1-10.6,8
		c-1.7,1.3-3.6,2.2-5.7,2.7c-0.4,0-0.8-0.1-1.3-0.4c-0.3-0.4-0.4-0.8-0.4-1.4c0-1,0.8-2.1,2.4-3.4c1.5-1.3,2.4-2.1,2.4-2.8l-0.6-0.3
		c-0.3,0-0.4,0-0.7,0.1c-0.3,0.1-0.6,0.3-0.8,0.4c-2.7,2.1-5.2,4.5-7.3,7.1c-1.4,1.5-2.2,3.5-2.4,5.6c0,1.3,0.3,2.5,0.7,3.8
		c0.4,1.4,1.1,2.7,1.8,3.9c0.6,1,1.5,2.1,2.7,3.5s2.7,3.2,4.3,5.2c2.4,2.8,4.3,4.9,5.6,6.6c0.7,0.8,1.4,1.7,2.2,2.4
		c0.7,1,1.4,2,2,2.9c0.4,0.8,0.8,1.8,1,2.8c0.3,0.8,0.3,1.7,0.4,2.7c0,1,0.1,2.4,0.1,3.8c0,0.8,0,1.4,0.4,1.5
		c0.4,0.1,0.8,0.3,1.3,0.1c0.1,0,0.4,0,0.6-0.1L393.2,783.9z"/>
	<path class="st1" d="M395,781.5l5-3.4l0.7-0.7c0.3-0.4,0.7-0.8,0.8-1.4c0.3-0.4,0.6-0.8,1-1.3c0.4-0.4,1-0.7,1.5-0.8
		c0.4-0.6,0.8-1,1.3-1.5c0.6-0.6,1.3-1.3,2.1-2l1.5-1c0.7-0.6,1.4-1.1,2.1-1.7c2.8-2.7,5.7-5.2,8.9-7.3c2-1.4,4.2-2.2,6.4-2.4
		c0.8,0,1.5,0.1,2.1,0.6c0.4,0.4,0.7,1.1,0.7,1.8c0,0.7-0.1,1.4-0.4,2.1c-0.3,0.6-0.7,1.1-1.3,1.5c-1,0.7-2,1.4-3.1,2.2
		c-0.7,0.8-1.4,1.7-2.2,2.4c-1,1-2,1.8-3.1,2.7c-0.4,0.4-0.7,0.8-1,1.3l-1,1c-0.7,0.6-1.4,1.1-2.1,1.7c-0.7,1.3-1.4,2.2-2.4,3.2
		c-1.3,1.3-2.9,2.9-5,4.7c-0.6,0.6-1,1.1-1.4,1.8c-0.7,1-1.5,2.1-2.7,3.6l0.4,0.6c1-0.3,1.8-0.8,2.5-1.4c1.1-0.7,2.1-1.5,2.9-2.4
		l3.1-2.8c0.6-0.6,1.1-1,1.7-1.4c0.3-0.1,0.6-0.3,0.8-0.4l0.8-0.6c1.4-1.8,3.1-3.4,4.9-4.6c1.3-0.8,2.7-1.4,4.2-1.5
		c0.7,0,1.4,0.3,1.8,1c0.4,0.8,0.7,1.8,0.7,2.8c0,1.8-0.1,3.6-0.1,5.3c0,1.1,0.3,2.2,1,3.2c0.6,0.8,1.7,1.4,2.7,1.4
		c0.4,0,0.7-0.1,1-0.3c0.3-0.1,0.7-0.4,1-0.7l0.7-1l0.7-0.8l0.7-0.4c0.3-0.1,0.6-0.4,0.8-0.7c0.6,1.1,1,2.1,1.3,2.9
		c0.3,0.7,0.6,1.4,0.8,2.2c-0.8,0.8-1.7,1.5-2.5,2.4c-0.8,0.8-1.7,1.7-2.7,2.4c-1,0.8-2.1,1.4-3.2,2c-1,0.4-2.1,0.7-3.1,0.7
		c-2.1,0.1-4.2-0.6-5.6-2.1c-1.4-1.8-2.2-4-2.2-6.3c0-0.3,0-0.7-0.1-1c-0.1-0.4-0.3-0.8-0.6-1.1l-0.6,0.6c-0.3,0.3-0.6,0.6-0.8,0.8
		l-1.8,1.4c-0.7,0.6-1.5,1.3-2.5,2l-3.4,3.5l-2,1.8c-0.8,0.7-1.7,1.4-2.7,2c-1,0.7-2.1,1.3-3.4,2c-0.8,0.4-1.4,0.7-2,1
		c-0.4,0.1-0.8,0.3-1.3,0.4c-1.4,0.1-2.9-0.4-4-1.3c-1-1.1-1.4-2.7-1.3-4c0-1,0.3-2,0.7-2.9c0.4-1,1.1-2,2-2.7
		c0-0.4,0.1-0.8,0.1-1.3c0-0.1,0-0.4-0.1-0.6l-0.4-0.7l-0.7-1.8c-0.3-0.7-0.6-1.4-1-2.1c0.3-0.3,0.4-0.6,0.7-0.8
		C394.3,782.7,394.6,782.1,395,781.5z"/>
	<path class="st1" d="M436.2,783.9c0.1-0.3,0.6-0.8,1-1.5c0.7-1,1.5-1.8,2.4-2.8c1-1,1.8-2,2.7-2.9c0.6-0.7,1.1-1.5,1.5-2.4
		c0.4-0.8,1-2,1.5-3.2c0.6-1.3,1.3-2.8,2.1-4.6c0.7-0.7,1.5-1.3,2.4-1.8c0.8-0.7,1.8-1.3,2.8-1.5c0.4,0,0.8,0.3,1.1,1
		c0.3,1.1,0.4,2.2,0.3,3.4c0,2.1,0,3.8,0,5.2c0,1.1-0.1,2.2-0.4,3.4c0,0.1,0.1,0.4,0.3,0.7c0.1,0.3,0.1,0.6,0.3,0.8
		c0.1,0.3-0.1,0.7-0.3,1.1c0,3.4,0.1,6.7,0.6,9.9c0.3,2.2,0.8,3.4,1.4,3.4c0.6,0,1.7-1,3.1-2.8c1.8-2.8,3.5-5.6,4.9-8.5
		c1.8-3.6,3.4-6.7,4.2-9.1c0.8-1.7,1.4-3.5,1.7-5.3c0.1-1.7,0.7-3.4,1.7-4.9c0.7-1,1.8-1.7,3.1-1.5c0.3,0,0.6,0.1,0.8,0.3
		c0.1,0.3,0.3,0.6,0.3,1c0,1.5-0.1,3.1-0.6,4.6c-0.4,1.7-1,3.2-1.8,4.6c0,1.1-0.3,2.4-0.7,3.5c-0.6,1.5-1.3,2.9-2.1,4.2
		c-0.3,1-0.6,2-0.8,2.9c-0.7,1.8-1.5,3.5-2.5,5.2c-0.8,1.8-2,3.5-3.1,5.2c-0.1,1.1-0.6,2.4-1.3,3.2c-1.1,1.5-2.5,3.1-3.9,4.3
		c-0.4,0.4-0.8,1-1.3,1.4c-0.4,0.4-0.8,0.8-1.1,1.4c-0.4,0.4-0.8,0.8-1.4,1.3c-0.6,0.3-1.1,0.4-1.8,0.4c-1.8,0-3.6-0.8-4.6-2.4
		c-1.3-2.1-1.7-4.5-1.5-6.8c0.1-0.6,0.1-1.1,0.3-1.4c-0.3-0.6-0.4-1.1-0.6-1.8c-0.1-0.8-0.3-1.7-0.4-2.4c0-1.3,0-2.1,0-2.9
		c0-0.6,0-1-0.1-1.5l0.4-1.3l-0.6-0.3c-0.8,0.6-1.5,1.3-2.1,2c-1.1,1.1-2.7,2.8-4.7,5c-0.3-0.8-0.6-1.7-1-2.4
		C437.2,785.9,436.8,784.9,436.2,783.9z"/>
	<path class="st1" d="M473.1,783.9c0.3-0.3,0.6-0.7,0.8-1c0.3-0.4,0.6-0.8,1-1.4l4.3-2.9c0.7-0.8,1.5-1.7,2.4-2.4
		c1.1-1,2.4-2.2,4-3.6c0.3-0.6,0.6-1,1-1.4c0.4-0.6,1-1.1,1.5-1.5c0.6-0.4,1-1,1.5-1.4c0.6-0.4,1-0.8,1.4-1.3l1.5-1.7
		c0.4-0.6,1-1.1,1.5-1.5c0.6-0.6,1.1-1,1.8-1.3s1.4-0.4,2.1-0.4s1.3,0,1.8,0.3c0.4,0.1,0.7,0.4,0.7,0.8c-0.4,0.8-0.7,1.7-1.1,2.5
		l0.3,0.6c1.7-0.7,2.9-1.1,3.9-1.4c0.6-0.3,1.1-0.4,1.8-0.4c2.4-0.1,4.6,0.7,6.1,2.4c1.5,2.2,2.2,4.9,2.1,7.5c0,0.7-0.1,1.5-0.3,2.2
		c-0.1,1-0.4,1.8-0.7,2.8c-0.3,1-0.7,2-1.3,2.8c-0.3,0.6-0.7,1.1-1.3,1.7c0.1,0.4,0.3,0.7,0.4,1c0.1,0.1,0.4,0.3,0.7,0.3
		c0.3,0,0.7-0.1,1-0.3c0.4-0.3,0.8-0.6,1.1-0.8c0.4,0.8,0.7,1.7,1.1,2.4l1.1,2.7l-2,1.8c-0.7,0.6-1.3,1.1-2,1.7
		c-0.7,0.6-1.5,1.1-2.4,1.5c-0.7,0.3-1.5,0.4-2.2,0.4c-0.7,0-1.5-0.1-2.1-0.6c-0.6-0.4-1.1-1-1.4-1.7c-1,1.3-2.1,2.4-3.4,3.4
		c-1.4,1-2.8,2-4.5,2.5c-0.8,0.4-1.7,0.7-2.5,1c-0.7,0.3-1.4,0.3-2.1,0.3c-0.4,0-0.7,0.1-1.1,0.3c-0.4,0.1-0.8,0.1-1.3,0.3
		c-2.2,0-4.3-1-5.7-2.7c-1.7-1.5-2.5-3.8-2.5-6c0-1.3,0.3-2.4,0.6-3.5c0.3-0.8,0.4-1.7,0.6-2.7c0-0.3-0.1-0.4-0.3-0.7
		c-0.1-0.1-0.4-0.3-0.7-0.3c-0.6,0.1-1,0.4-1.4,0.8l-3.1,2.4c-0.1,0.3-0.3,0.4-0.4,0.7c-0.1,0.4-0.4,0.7-0.7,1
		c-0.3-0.8-0.7-1.7-1-2.7C474,785.6,473.6,784.8,473.1,783.9z M500,773.7c-0.3,0.1-0.6,0.3-0.8,0.6c-0.4,0.4-0.7,0.8-1,1.3
		c-0.6,0.8-1.1,1.8-1.8,2.8c-0.4,0.4-0.8,0.8-1.3,1c-0.6,0.3-1.1,0.4-1.5,0.6c-0.4,0-0.8,0.4-1.1,1.1c-0.6,1-1,2-1.3,2.9
		c-0.4,1-0.7,2-0.8,2.9c-0.1,0.7-0.3,1.4-0.3,2.1c-0.1,0.8,0.1,1.8,0.8,2.4c0.7,0.6,1.5,0.8,2.4,0.8c1.7,0,3.4-0.4,4.7-1.4
		c1.7-1.1,3.1-2.7,4-4.3l1.7-2c0.3-0.3,0.6-0.7,0.7-1.1c0.3-0.6,0.4-1.3,0.6-2l1-3.2c-0.3-0.8-0.6-1.8-1-2.7
		c-0.1-0.4-0.4-0.8-0.8-1.3c-0.4-0.1-0.8-0.3-1.3-0.4C502.2,774,501.3,773.9,500,773.7L500,773.7z"/>
	<path class="st1" d="M513.7,783.9l1.8-2.4c2.4-2,4.6-4,6.7-6.4c1.5-1.7,2.8-3.6,3.8-5.7l-0.6-2.7c1-1.4,2.2-2.5,3.6-3.4
		c1.4-1.1,2.9-1.7,4.6-2c1.1,0,2.4,0.4,3.2,1.1c0.8,0.7,1.7,1.5,2.4,2.4c0.3,0.1,0.6,0.4,0.8,0.6c1.5,1.3,2.8,2.8,3.4,4.6
		c0.8,2.4,1.1,4.7,1.1,7.3c-0.1,2.2-0.8,4.5-1.8,6.4c-1,2-1.5,4-1.7,6.3c0,0.1,0,0.4,0.1,0.4c0.1,0.1,0.3,0.1,0.6,0.1
		c0.6,0,1.3-0.3,1.7-0.7c0.8-0.6,1.5-1.1,2.2-1.8c1.1-1.1,2.2-2.2,3.6-3.2c0.6-0.3,1.1-0.7,1.5-1c0.3,0.7,0.7,1.5,1,2.4
		c0.4,0.8,0.8,1.8,1.3,2.8c-0.3,0.3-0.7,0.7-1.1,1.1l-1.5,1.4c-1.3,1-2.9,2.1-4.9,3.4c-2,1.3-4.5,2.8-7.3,4.6
		c-0.8,0.6-1.7,0.8-2.5,1.1c-1.3,0.1-2.4-0.1-3.5-0.7c-0.8-0.4-1.3-1.4-1.3-2.2c0-0.4,0.1-1,0.3-1.4c0.1-0.6,0.4-1.1,0.7-1.8
		l0.7-1.5c0.3-0.6,0.6-1,0.7-1.5c0.7-2.1,1.4-4.3,1.8-6.6c0.4-1.8,0.7-3.6,0.7-5.4c0.1-1.5-0.3-3.1-1-4.5c-0.6-1-1.7-1.7-2.8-1.8
		c-1,0.6-1.8,1.1-2.7,2c-1.1,1-2.1,2-2.9,3.1c-1.1,1.4-2.1,2.4-2.9,3.4c-0.6,0.7-1.4,1.3-2.1,1.7c-0.4,0.7-1,1.4-1.7,2
		c-1,0.8-2,1.7-2.9,2.2l-0.3,0.7c-0.1,0.4-0.4,0.7-0.7,1c-0.3-0.8-0.7-1.7-1-2.4C514.7,786,514.1,784.9,513.7,783.9z"/>
	<path class="st1" d="M579.6,783.9l0.3-0.4c0.3-0.3,0.6-0.7,0.8-1.1c0.4-0.4,0.8-1,1.3-1.5c2.8-2.7,5.4-5.6,7.8-8.8
		c2.8-3.8,5.3-7.7,7.5-11.7c0.4-0.6,0.7-1.1,1-1.7c0.4-0.8,0.8-1.5,1.3-2.4c0-0.1,0-0.4-0.1-0.4c-0.1-0.1-0.4-0.1-0.6-0.1
		c-0.4,0-0.7,0.1-1.1,0.1c-0.4,0.1-0.7,0.1-1.1,0.1h-7h-1.5h-1.5c-0.3-0.1-0.7-0.3-1-0.4l-1-0.4c-0.4-0.1-0.7-0.3-1-0.6
		s-0.4-0.6-0.4-0.8c-0.1-1.8,0.1-3.8,0.7-5.4c0.6-1.3,1.3-2,2.4-2c1,0,2,0,2.9,0.1c0.8,0,1.7,0.3,2.4,0.4l1.5-0.3c0.8,0,1.7,0,2.7,0
		c0.6,0,1.1,0.1,1.5,0.3l1.4-0.3l1.5-0.3l1.8,0.6c1.3-0.1,2.7-2,4.2-5.4c1.4-3.5,3.1-5.3,4.7-5.3c0.8,0,1.5,0.3,2.1,0.8
		c0.6,0.7,0.8,1.5,0.7,2.4c0,1.1-0.3,2.4-0.8,3.4c-0.4,1-0.7,2.1-0.8,3.2c0.1,0.1,0.1,0.3,0.3,0.4c0.1,0.3,0.4,0.4,0.6,0.6
		c0.3,0.1,0.4,0.4,0.4,0.7c0.1,0.4,0.1,0.8,0.1,1.3c0,1.7,0,3.5-0.3,5.2c-0.1,1.3-0.6,1.8-1,1.8l-3.8,0.8c0,0.4-0.1,0.8-0.3,1.4
		c-0.1,0.6-0.3,1.1-0.4,1.8c-0.7,1.8-1.4,4.2-2.1,7.1c-0.8,2.9-1.7,6.3-2.7,10.2c-0.6,3.1-1.1,5.7-1.4,7.5c-0.3,1.3-0.4,2.7-0.4,3.9
		c0,0.4,0,1,0.3,1.4c0.1,0.3,0.6,0.4,0.8,0.4c0.8-0.4,1.7-1,2.4-1.7c1.4-1.1,3.4-2.7,5.9-4.9l2.2,5.2c-0.4,0.6-1,1-1.5,1.4
		c-0.7,0.6-1.5,1.1-2.4,1.8c-0.4,0.4-1,1-1.4,1.4c-0.6,0.6-1.1,1.1-1.8,1.8l-2,2.2c-0.7,0.7-1.3,1.5-2,2.2c-0.7,0.8-1.7,1.5-2.7,2.1
		c-0.7,0.4-1.5,0.7-2.4,0.7c-1.4,0.1-2.8-0.4-3.6-1.4c-0.8-1.3-1.3-2.8-1.3-4.5c0-2.1,0-4,0.3-5.6c0.1-1.3,0.3-2.5,0.7-3.8
		c0.1-0.3,0.3-0.6,0.3-0.8c0-0.6,0-1,0.1-1.5c0-0.7,0.3-1.4,0.4-2.2c0.3-1.4,0.4-2.9,0.7-4.3l1.3-2.8c0-0.1-0.1-0.4-0.4-0.6
		l-0.6,0.3c-0.7,1-1.4,2-2.1,2.8c-1,1.1-2.1,2.1-3.2,3.1l-5.9,5.6c0,0.1-0.3,0.4-0.7,0.8c-0.3,0.4-0.7,0.8-1,1.4
		c-0.1-0.4-0.4-1-0.7-1.7s-0.6-1.5-0.8-2.4c-0.1-0.1-0.1-0.4-0.3-0.6C580,784.3,579.8,784.2,579.6,783.9z"/>
	<path class="st1" d="M610.7,783.9c0.8-0.7,1.4-1.3,2-1.7c0.4-0.4,0.8-0.7,1.1-1c0.6-0.6,1-1.1,1.4-1.7c0.3-0.4,0.6-0.8,0.6-1.4
		c0.3-1.3,0.7-2.8,1.1-4.9c0.4-2,1-4,1.8-6.6c0.3-0.7,0.7-1.7,1.1-2.8c0.4-1.1,0.8-2.4,1.3-3.9c0.4-1.7,1-3.5,1.7-5
		c0.6-1.4,1.4-2.8,2.2-4.2c0.3-0.4,0.6-0.8,0.8-1.3c0.3-0.6,0.6-1.1,0.8-1.8c0.3-0.7,0.7-1.4,1.1-2.1l1.5-2.8c1.5-2.2,2.9-4.2,4-5.7
		c1.1-1.5,2.1-2.9,2.8-3.9c1.4-1.5,2.7-3.1,4-4.5c1.4-1.4,2.8-2.7,4.2-3.9c1-1,2.1-1.7,3.4-2.4c0.7-0.4,1.4-0.7,2.2-0.7
		c0.4,0.4,0.8,0.7,1.1,1.3c0.3,0,0.6,0,0.8,0c0.8,0,1.7,0.4,2.1,1.1c0.6,1.1,0.7,2.2,0.7,3.5c0,0.4,0,0.8-0.1,1.3
		c0,0.6-0.3,1.3-0.4,2c-0.3,0.3-0.4,0.6-0.6,1c-0.1,0.4-0.3,0.8-0.3,1.3c0,0.4-0.1,0.8-0.1,1.4c0,0.3-0.1,0.7-0.3,1
		c-0.4,0.8-1,2-1.5,3.2c-0.6,1.3-1.1,2.8-1.8,4.5c-0.4,0.7-0.8,1.4-1.4,2.4s-1.3,2.2-2,3.5c-0.4,0.7-0.8,1.5-1.4,2.7
		c-0.6,1.1-1.3,2.2-2.2,3.6c-0.3,0.6-0.7,1.3-1.1,1.7l-2,2.1c-0.6,1.1-1.1,2.1-2,3.1c-1,1.4-2.4,3.4-4.3,5.7
		c-0.8,1.1-2.1,2.7-3.5,4.3c-1.4,1.7-3.1,3.8-4.9,6.1c-0.7,2.8-1.3,5.3-1.5,7.5c-0.3,1.8-0.6,3.8-0.6,5.7c0,0.4,0,1,0.1,1.4
		c0,0.3,0.3,0.4,0.6,0.4c0.3-0.3,0.6-0.6,0.8-0.8c0.4-0.4,0.7-0.7,1.1-1.1c1-1.1,1.8-2.2,2.4-3.5c1-1.7,2.1-3.9,3.2-6.7
		c0.8-2,1.8-3.9,2.9-5.7c0.6-1,1.3-1.8,2.1-2.4l2-0.8l1-0.4c0.3-0.1,0.4-0.1,0.7-0.1c0.6,0,1.1,0.4,1.4,0.8c0.4,0.7,0.8,1.5,1,2.4
		c0.4,2,0.8,3.4,1.1,4.5l0.6,1.8c0.4,1,1,1.8,1.8,2.4c0.7,0.6,1.5,0.8,2.4,0.8c1.1-0.1,2.5-0.4,4-0.8c0.3,0.7,0.7,1.5,1,2.4
		c0.4,0.8,0.8,1.8,1.3,2.8c-0.8,0.6-1.8,1.3-2.8,1.8l-2.7,1.7c-0.8,0.4-1.7,0.7-2.5,0.7c-1.3,0.1-2.7,0.3-3.9,0.3
		c-2.2,0-4.3-1.3-5.3-3.2c-1.3-2.1-2-3.2-2.2-3.2h-0.6l-2,2.2c-0.7,0.8-1.3,1.5-2,2.4c-0.6,1-1.1,2.1-1.7,2.9
		c-0.7,1.1-1.7,2.4-2.7,3.6c-1,1.3-2.1,2.4-3.2,3.4c-0.7,0.6-1.5,1-2.4,1.1c-1.1,0-2.2-0.1-3.4-0.4c-0.7-0.1-1.3-0.7-1.4-1.4
		c-0.4-2.1-0.8-3.9-1-5.4c-0.3-1.3-0.3-2.7-0.4-3.9c0-0.3,0-0.7,0-0.8c0-0.3,0-0.6,0-0.7c0-0.3,0.3-1,0.4-1.5c0-0.1,0-0.3-0.1-0.4
		c-0.1-0.1-0.3-0.1-0.4-0.1l-0.4,0.6c-0.3,0.3-0.6,0.4-0.8,0.6c-0.1-0.4-0.4-1.1-0.8-2L610.7,783.9z M647.1,732.3
		c-0.4,0-1.3,0.7-2.4,2.2c-1.3,1.5-2.8,3.6-4.7,6.6l-3.2,4.9l-3.2,4.7c-0.4,0.4-0.7,0.8-1,1.4c-0.3,0.4-0.3,0.8-0.3,1.4
		c-0.7,2.1-1.4,4-2.2,5.9c-0.8,1.8-1.3,3.5-1.7,4.6l-0.8,2l0.3,0.3c0.7-0.7,1.4-1.4,2-2.1c0.7-0.8,1.7-2,2.8-3.4
		c1.1-1.4,2.2-2.9,3.6-4.9c1.5-2.1,2.9-4.2,4.2-6.6c1.4-2.7,2.9-5.7,4.6-9.1c1-1.8,1.7-3.4,2.1-4.5c0.4-0.7,0.6-1.5,0.7-2.4
		c0-0.3,0-0.4-0.1-0.7C647.4,732.3,647.3,732.3,647.1,732.3L647.1,732.3z"/>
	<path class="st1" d="M651.7,783.9c0.6-0.8,1.1-1.7,1.7-2.4c0.8-0.8,1.7-1.7,2.7-2.4c0-0.7,0.3-1.5,0.3-2.2c0.1-0.7,0.1-1.5,0.3-2.2
		c0.1-0.7,0.3-1.3,0.6-1.8c0.3-0.7,0.6-1.5,0.8-2.2c0.3-0.8,0.8-1.8,1.4-3.1c0.7-1.4,1.4-2.8,2.2-4.2c0.8-0.8,1.5-1.8,2.4-2.8
		l2.5-3.1c0.4-0.3,0.8-0.7,1.4-1c0.6-0.3,1-0.7,1.4-1c0.6-0.1,1-0.3,1.5-0.4c0.6-0.1,1.3-0.1,1.8-0.1c0.8,0,1.5,0,2.2,0.3
		c0.6,0.1,1,0.6,1.4,1c0.3,0.4,0.6,0.8,0.7,1.4c0.3,0.7,0.6,1.4,0.7,2.1c0.1,0.7,0.3,1.5,0.4,2.4c0-0.3,0-0.1-0.1,0.3l-0.6,2
		l-0.6,1.8c-0.8,2.2-2,4.3-3.5,6.1c-2.2,2.8-4.7,5.6-7.3,8.1c-0.3,0.3-0.6,0.6-0.7,1s-0.3,0.8-0.3,1.3c0,0.7,0.1,1.4,0.4,2.1
		c0.3,0.6,0.7,1,1.3,1.4c0.4,0.3,1,0.6,1.4,0.7c0.8,0.3,1.7,0.4,2.4,0.7c1.4-0.1,2.7-0.3,4-0.7c1.1-0.3,2.2-0.8,3.2-1.4l0.8-0.4
		c0.4-0.3,0.8-0.6,1.3-0.8c0.4,1.1,0.8,2.1,1.3,2.9s0.7,1.5,0.8,2.2c-1.7,1.8-3.6,3.5-5.7,4.9c-1.4,1-3.1,1.5-4.9,1.5
		c-0.7,0.4-1.3,0.7-2.1,0.8s-1.8,0.3-2.8,0.3c-1.3,0-2.5-0.1-3.6-0.6c-1-0.4-2-1-2.7-1.8c-0.4-0.6-0.8-1.1-1.1-1.7
		c-0.4-0.8-0.8-1.7-1.3-2.7c-0.3-0.7-0.6-1.3-1-1.8c-0.3-0.3-0.6-0.6-1-0.6s-0.7,0.1-1,0.4c-0.4,0.4-0.8,0.8-1.3,1.3
		c-0.1-0.7-0.4-1.4-0.8-2.1C652.8,786.3,652.3,785.2,651.7,783.9z M669.6,765.8c-0.8,0-2,1.1-3.4,3.2c-1.1,1.4-1.8,3.1-2.1,4.7
		c0,0.3,0,0.4,0,0.4c0.1,0.1,0.4,0.1,0.6,0.1c0.4,0,0.8-0.3,1-0.7l0.7-1.3c0.4-0.4,0.8-0.8,1.3-1.3l1.1-1.3c0.4-0.4,0.7-1,1-1.5
		c0.3-0.6,0.3-1,0.3-1.5c0-0.3,0-0.6-0.1-0.8C670,765.9,669.9,765.8,669.6,765.8z"/>
	<path class="st1" d="M708.5,783.9l0.3-0.4c0.3-0.3,0.6-0.7,0.8-1.1c0.4-0.4,0.7-1,1.3-1.5c2.8-2.7,5.4-5.6,7.8-8.8
		c2.8-3.8,5.3-7.7,7.5-11.7c0.4-0.6,0.7-1.1,1-1.7c0.4-0.8,0.8-1.5,1.3-2.4c0-0.1,0-0.4-0.1-0.4c-0.1-0.1-0.4-0.1-0.6-0.1
		c-0.4,0-0.7,0.1-1.1,0.1c-0.4,0.1-0.7,0.1-1.1,0.1h-7h-1.5h-1.5c-0.3-0.1-0.7-0.3-1-0.4l-1-0.4c-0.4-0.1-0.7-0.3-1-0.6
		c-0.3-0.3-0.4-0.6-0.4-0.8c-0.1-1.8,0.1-3.8,0.7-5.4c0.6-1.3,1.3-2,2.4-2c1,0,2,0,2.9,0.1c0.8,0,1.7,0.3,2.4,0.4l1.5-0.3
		c0.8,0,1.7,0,2.5,0c0.6,0,1.1,0.1,1.7,0.3l1.4-0.3l1.5-0.3l1.8,0.6c1.3-0.1,2.7-2,4.2-5.4c1.4-3.5,3.1-5.3,4.7-5.3
		c0.8,0,1.5,0.3,2.1,0.8c0.6,0.7,0.7,1.5,0.7,2.4c0,1.1-0.3,2.2-0.7,3.4c-0.4,1-0.7,2.1-0.8,3.2c0.1,0.1,0.1,0.3,0.3,0.4
		c0.1,0.3,0.4,0.4,0.6,0.6c0.3,0.1,0.4,0.4,0.4,0.7c0.1,0.4,0.1,0.8,0.1,1.3c0,1.7-0.1,3.5-0.3,5.2c-0.1,1.3-0.6,1.8-1,1.8l-3.8,0.8
		c0,0.4-0.1,0.8-0.3,1.4c-0.1,0.6-0.3,1.1-0.4,1.8c-0.7,1.8-1.4,4.2-2.1,7.1c-0.8,2.9-1.7,6.3-2.7,10.2c-0.6,3.1-1.1,5.7-1.4,7.5
		c-0.3,1.3-0.4,2.7-0.4,3.9c0,0.4,0,1,0.3,1.4c0.1,0.3,0.6,0.4,0.8,0.4c0.8-0.4,1.7-1,2.4-1.7c1.4-1.1,3.4-2.7,5.9-4.9l2.2,5.2
		c-0.4,0.6-1,1-1.5,1.4c-0.7,0.6-1.5,1.1-2.4,1.8c-0.4,0.4-1,1-1.4,1.4c-0.6,0.6-1.1,1.1-1.8,1.8l-2,2.2c-0.7,0.7-1.3,1.5-2,2.2
		c-0.7,0.8-1.7,1.5-2.7,2.1c-0.7,0.4-1.5,0.7-2.4,0.7c-1.4,0.1-2.8-0.4-3.6-1.4c-0.8-1.3-1.3-2.8-1.3-4.5c0-2.1,0-4,0.3-5.6
		c0.1-1.3,0.3-2.5,0.7-3.8c0.1-0.3,0.3-0.6,0.3-0.8c0-0.6,0-1,0.1-1.5c0-0.7,0.3-1.4,0.4-2.2c0.3-1.4,0.4-2.9,0.7-4.3l1.3-2.8
		c0-0.1-0.1-0.4-0.4-0.6l-0.6,0.3c-0.7,1-1.4,2-2.1,2.8c-1,1.1-2.1,2.1-3.2,3.1l-5.9,5.6c-0.1,0.1-0.3,0.4-0.7,0.8
		c-0.3,0.4-0.7,0.8-1,1.4c-0.1-0.4-0.4-1-0.7-1.7c-0.3-0.7-0.6-1.5-0.8-2.4c-0.1-0.1-0.1-0.4-0.3-0.6
		C708.8,784.3,708.7,784.2,708.5,783.9z"/>
	<path class="st1" d="M741.3,781.5l5.2-3.4l0.7-0.7c0.3-0.4,0.7-0.8,0.8-1.4c0.3-0.4,0.6-0.8,1-1.3c0.4-0.4,1-0.7,1.5-0.8
		c0.4-0.6,0.8-1,1.3-1.4c0.6-0.6,1.3-1.3,2.1-2c0.4-0.3,1-0.6,1.5-1c0.7-0.6,1.4-1.1,2.1-1.7c2.8-2.7,5.7-5.2,8.9-7.3
		c2-1.4,4.2-2.2,6.4-2.4c0.8,0,1.5,0.1,2.1,0.6c0.4,0.4,0.7,1.1,0.7,1.8s-0.1,1.4-0.4,2.1c-0.3,0.6-0.7,1.1-1.3,1.5
		c-1,0.7-2,1.4-3.1,2.2c-0.7,0.8-1.4,1.7-2.2,2.4c-1,1-2,1.8-3.1,2.7c-0.4,0.4-0.7,0.8-1,1.3l-1.1,1c-0.7,0.6-1.4,1.1-2.1,1.7
		c-0.7,1.3-1.4,2.2-2.4,3.2c-1.3,1.3-2.9,2.9-5,4.7c-0.6,0.6-1,1.1-1.4,1.8l-2.7,3.6l0.4,0.6c1-0.3,1.8-0.8,2.5-1.4
		c1.1-0.7,2.1-1.5,2.9-2.4l3.1-2.8c0.6-0.6,1.1-1,1.7-1.4l0.8-0.4l0.8-0.6c1.4-1.7,3.1-3.2,4.9-4.6c1.3-0.8,2.7-1.4,4.2-1.5
		c0.7,0,1.4,0.3,1.8,1c0.4,0.8,0.7,1.8,0.7,2.8c0,1.8,0,3.6,0,5.3c0,1.1,0.3,2.2,1,3.2c0.6,0.8,1.7,1.4,2.8,1.4c0.3,0,0.7-0.1,1-0.3
		c0.4-0.1,0.7-0.4,1-0.7c0.3-0.3,0.6-0.7,0.7-1l0.7-0.8c0.3-0.1,0.4-0.3,0.7-0.4c0.3-0.1,0.6-0.4,0.8-0.7c0.6,1.1,1,2.1,1.3,2.9
		c0.3,0.7,0.6,1.4,0.8,2.2c-0.8,0.8-1.7,1.5-2.4,2.4c-0.8,0.8-1.7,1.7-2.7,2.4c-1,0.8-2.1,1.4-3.2,2c-1,0.4-2.1,0.7-3.1,0.7
		c-2.1,0.1-4-0.6-5.6-2.1c-1.4-1.8-2.2-4-2.2-6.3c0-0.3,0-0.7-0.1-1c-0.1-0.4-0.3-0.8-0.6-1.1l-0.7,0.6c-0.3,0.3-0.6,0.6-0.8,0.8
		l-1.8,1.4c-0.7,0.6-1.5,1.3-2.5,2c-1.3,1.4-2.4,2.4-3.4,3.4l-2,1.8c-0.8,0.7-1.7,1.4-2.7,2c-1,0.7-2.1,1.3-3.4,2
		c-0.8,0.4-1.4,0.7-2,1c-0.4,0.1-0.8,0.3-1.3,0.4c-1.4,0.1-2.9-0.4-3.9-1.3c-1-1.1-1.4-2.7-1.3-4c0-1,0.3-2,0.7-2.9
		c0.6-1,1.1-1.8,2-2.7c0-0.4,0-0.8,0-1.3c0-0.1,0-0.4-0.1-0.6l-0.4-0.7c-0.3-0.6-0.4-1.1-0.7-1.8s-0.6-1.4-1-2.1
		c0.3-0.3,0.4-0.6,0.7-0.8C740.6,782.7,740.9,782.1,741.3,781.5z"/>
	<path class="st1" d="M782.7,783.9l0.3-0.4c0.3-0.6,0.6-1.1,1-1.7c0.7-0.7,1.4-1.3,2.1-1.8c1.3-0.8,2.2-1.4,2.9-2
		c0.4-0.3,0.8-0.7,1.3-1.1c0.3-0.3,0.4-0.6,0.7-1c0.4-0.3,1-0.7,1.5-1.3c0.6-0.6,1.3-1.1,2-2c0.3-0.3,0.6-0.6,0.8-0.8
		c0.3-0.4,0.6-0.8,0.8-1.4c0.3-0.6,1-0.8,1.7-1.3c0.6-0.6,1.4-1.3,2.1-2l3.2-3.4c1.3-1.3,2.4-2.4,3.9-3.8c0.4-0.1,0.8-0.4,1.4-0.6
		c0.4-0.1,0.8-0.1,1.3-0.1c1.4-0.1,2.7,0.3,3.8,1.3c0.8,1,1.4,2.2,1.3,3.5c0,0.6-0.1,1.3-0.1,1.8c-0.1,0.8-0.3,2-0.4,3.2
		c-0.6,3.8-0.8,6.1-1.1,6.8c-0.3,0.8-1,3.4-2.4,7.7c-0.3,0.7-0.6,1.5-1,2.7c-0.3,1-0.7,2.4-1.1,3.8c0.1,0.1,0.3,0.4,0.6,0.4
		c0.6-0.1,1-0.4,1.4-0.7c0.7-0.6,1.5-1.3,2.7-2.2l3.1-2.8l1.4-1.1l1.3,2.8c0.4,0.8,0.7,1.7,1,2.4c-0.4,0.3-0.8,0.7-1.3,1
		c-0.4,0.4-0.7,0.8-1.1,1.3l-2.7,1.8l-3.4,2.2c-0.6,0.6-1.3,1.3-2.2,2.1l-3.2,2.8l-1,0.3c-0.4,0.6-1,1.1-1.5,1.7
		c-0.4,0.3-0.8,0.6-1.3,0.8l-1.8,0.7l-2,0.7c-0.4-0.1-0.7-0.4-0.8-0.7c-0.3-0.4-0.3-1-0.3-1.4c-0.6-1.1-1.1-2.2-1.4-3.5
		c-0.3-1.4-0.6-2.9-0.4-4.3c0-0.3,0-0.7,0-1s0-0.6,0-0.8c-0.1-0.6-0.3-1.1-0.4-1.8c0-1.1,0.4-2.1,1.3-2.8c0.8-0.7,1.8-1.1,2.9-1.1
		c0.6,0,1,0.3,1.3,0.8c0.3,0.6,0.4,0.8,0.7,0.8s0.6-0.6,0.8-1.5c0.4-1.5,0.7-2.9,0.8-4.5c0.3-1.7,0.4-3.2,0.4-4.5
		c0.1-1.3,0.1-2.2,0.1-2.9c0-0.4-0.1-0.8-0.3-1.1c-0.3-0.3-0.7-0.4-1-0.4c-1.8,0.8-3.4,2-4.7,3.4c-2.7,2.2-6.4,5.6-11,10.1
		c-0.1,0.3-0.4,0.6-0.7,1c-0.3,0.4-0.6,0.8-1,1.4c-0.1-0.7-0.4-1.4-0.8-2.1C783.8,786.3,783.2,785.2,782.7,783.9z"/>
	<path class="st1" d="M817.7,783.9l0.3-0.4c0.3-0.3,0.6-0.7,0.8-1.1l1.3-1.5c2.8-2.7,5.4-5.6,7.8-8.8c2.8-3.8,5.2-7.7,7.4-11.7
		c0.4-0.6,0.7-1.1,1-1.7c0.4-0.7,0.8-1.5,1.3-2.4c0-0.1,0-0.4-0.1-0.4c-0.1-0.1-0.4-0.1-0.6-0.1c-0.4,0-0.7,0.1-1.1,0.1
		c-0.4,0.1-0.8,0.1-1.1,0.1h-7h-1.5h-1.5c-0.3-0.1-0.7-0.3-1-0.4l-1-0.4c-0.4-0.1-0.7-0.3-1-0.6c-0.3-0.3-0.4-0.6-0.4-0.8
		c-0.1-1.8,0.1-3.8,0.7-5.4c0.6-1.3,1.3-2,2.4-2c1,0,2,0,2.9,0.1c1,0,1.7,0.3,2.4,0.4l1.5-0.3c0.8,0,1.7,0,2.5,0
		c0.6,0,1.1,0.1,1.7,0.3l1.4-0.3l1.5-0.3l1.8,0.6c1.3-0.1,2.7-2,4.2-5.4c1.5-3.5,3.1-5.3,4.9-5.3c0.8,0,1.5,0.3,2.1,0.8
		c0.6,0.7,0.8,1.5,0.7,2.4c0,1.1-0.3,2.2-0.7,3.4c-0.4,1-0.7,2.1-0.8,3.2c0.1,0.1,0.1,0.3,0.3,0.4c0.1,0.3,0.4,0.4,0.6,0.6
		c0.3,0.1,0.4,0.4,0.4,0.7c0,0.4,0,0.8,0,1.3c0,1.7,0,3.5-0.3,5.2c-0.3,1.3-0.6,1.8-1,1.8l-3.8,0.8c0,0.4-0.1,0.8-0.3,1.4
		c-0.1,0.6-0.3,1.1-0.4,1.8c-0.7,1.8-1.4,4.2-2.1,7.1c-0.8,2.9-1.7,6.3-2.7,10.2c-0.6,3.1-1,5.7-1.4,7.5c-0.3,1.3-0.4,2.7-0.4,3.9
		c0,0.4,0,1,0.3,1.4c0.1,0.3,0.6,0.4,0.8,0.4c0.8-0.4,1.7-1,2.4-1.7c1.4-1.1,3.4-2.7,5.9-4.9l2.2,5.2c-0.6,0.6-1,1-1.5,1.4
		c-0.8,0.7-1.5,1.3-2.4,1.8c-0.4,0.4-0.8,1-1.4,1.4c-0.6,0.6-1.3,1.1-1.8,1.8l-2,2.2c-0.7,0.7-1.3,1.5-2,2.2
		c-0.7,0.8-1.7,1.5-2.7,2.1c-0.7,0.4-1.5,0.7-2.4,0.7c-1.4,0.1-2.8-0.4-3.6-1.4c-0.8-1.3-1.4-2.8-1.3-4.5c0-2.1,0-4,0.3-5.6
		c0.1-1.3,0.4-2.5,0.7-3.8c0.1-0.3,0.3-0.6,0.3-0.8c0-0.6,0.1-1,0.1-1.5c0-0.7,0.3-1.4,0.4-2.2l0.7-4.3c0.4-0.8,0.8-1.8,1.3-2.8
		c0-0.1-0.1-0.4-0.4-0.6l-0.6,0.3c-0.7,1-1.4,2-2.2,2.8c-1,1.1-2.1,2.1-3.2,3.1l-5.9,5.6l-0.6,0.8c-0.3,0.4-0.7,0.8-1,1.4
		c-0.1-0.4-0.4-1-0.7-1.7c-0.3-0.7-0.6-1.5-0.8-2.4c-0.1-0.3-0.1-0.4-0.3-0.6C818,784.2,817.8,784.1,817.7,783.9z"/>
	<path class="st1" d="M848.7,783.9c0.6-0.8,1.1-1.7,1.8-2.4c0.8-0.8,1.7-1.7,2.7-2.4c0-0.7,0.3-1.5,0.3-2.2c0.1-0.7,0.1-1.5,0.3-2.2
		c0.1-0.6,0.3-1.1,0.6-1.8s0.6-1.5,0.8-2.2c0.3-0.8,0.8-1.8,1.4-3.1c0.7-1.4,1.4-2.8,2.2-4.2c0.8-0.8,1.5-1.8,2.4-2.8l2.5-3.1
		c0.4-0.4,0.8-0.7,1.4-1c0.6-0.3,1-0.7,1.4-1c0.6-0.1,1-0.3,1.5-0.4c0.6-0.1,1.3-0.1,1.8-0.1c0.7,0,1.5,0,2.2,0.3
		c0.6,0.1,1.1,0.6,1.4,1c0.3,0.4,0.6,0.8,0.7,1.4c0.3,0.7,0.6,1.4,0.7,2.1c0,0.7,0.3,1.5,0.4,2.4c0-0.3,0-0.1-0.1,0.3l-0.6,2
		l-0.6,1.8c-0.8,2.2-2,4.3-3.5,6.1c-2.2,2.8-4.7,5.6-7.3,8.1c-0.3,0.3-0.6,0.6-0.7,1s-0.3,0.8-0.3,1.3c0,0.7,0.1,1.4,0.4,2.1
		c0.3,0.6,0.7,1,1.3,1.4c0.4,0.3,1,0.6,1.4,0.7c0.8,0.3,1.7,0.4,2.4,0.7c1.4-0.1,2.7-0.3,3.9-0.7c1.1-0.3,2.2-0.8,3.2-1.4l0.8-0.4
		c0.4-0.3,0.8-0.6,1.3-0.8c0.4,1.1,1,2.1,1.3,2.9s0.7,1.5,0.8,2.2c-1.7,1.8-3.6,3.5-5.7,4.9c-1.4,1-3.1,1.5-4.9,1.5
		c-0.7,0.4-1.3,0.7-2.1,0.8c-0.8,0.1-1.8,0.3-2.8,0.3c-1.3,0-2.5-0.1-3.6-0.6c-1-0.4-2-1-2.7-1.8c-0.4-0.4-0.8-1-1.1-1.7
		c-0.4-0.8-0.8-1.7-1.3-2.7c-0.3-0.7-0.6-1.3-1-1.8c-0.3-0.3-0.6-0.6-1-0.6s-0.7,0.1-1,0.4c-0.4,0.4-0.8,0.8-1.3,1.3
		c-0.1-0.7-0.4-1.5-0.8-2.2C849.8,786.3,849.2,785.2,848.7,783.9z M866.6,765.8c-0.8,0-2,1.1-3.4,3.2c-1.1,1.4-1.8,3.1-2.1,4.7
		c0,0.1,0,0.3,0.1,0.4c0.1,0.1,0.4,0.1,0.6,0.1c0.4,0,0.8-0.3,1-0.7c0.3-0.4,0.4-0.8,0.7-1.3c0.3-0.4,0.8-0.8,1.3-1.3l1.1-1.3
		c0.4-0.4,0.8-1,1-1.5c0.3-0.6,0.3-1,0.3-1.5c0-0.3,0-0.6-0.1-0.8C867.1,765.9,866.8,765.8,866.6,765.8z"/>
	<path class="st1" d="M895.2,797c0,0.6-0.1,1.1-0.4,1.5c-0.3,0.6-0.7,1-1.3,1.4c-0.1,0.4-0.4,0.8-0.7,1.3c-0.3,0.3-0.7,0.4-1.1,0.4
		c-1.5,0-2.9-0.6-3.9-1.7c-1.3-1.4-2.1-3.1-2.5-4.9l0.4-0.4l-0.6-1.4c0.1-0.6,0.4-1.1,0.6-1.8l0.4-1.7c0.1-0.6,0.4-1.1,1-1.5
		c0.4-0.3,1-0.6,1.5-0.4c1,0,2,0.3,2.8,0.8c1,0.6,1.7,1.4,2.2,2.4c0.6,0.8,1.1,2,1.4,2.9C895,794.9,895.2,795.9,895.2,797z"/>
	<path class="st1" d="M920.6,797c0,0.6-0.1,1.1-0.4,1.5c-0.3,0.6-0.7,1-1.3,1.4c-0.1,0.4-0.4,0.8-0.7,1.3c-0.3,0.3-0.7,0.4-1.1,0.4
		c-1.5,0-2.9-0.6-3.9-1.7c-1.3-1.4-2.1-3.1-2.5-4.9l0.4-0.4l-0.6-1.4c0.1-0.6,0.3-1.3,0.4-1.8c0.1-0.6,0.3-1.1,0.4-1.7
		s0.4-1.1,1-1.5c0.4-0.3,1-0.6,1.5-0.4c1,0,2,0.3,2.8,0.8c1,0.6,1.7,1.4,2.2,2.4C919.9,792.9,920.6,794.8,920.6,797L920.6,797z"/>
	<path class="st1" d="M945.8,797c0,0.6-0.1,1.1-0.4,1.5c-0.3,0.6-0.7,1-1.3,1.4c-0.1,0.4-0.4,0.8-0.7,1.3c-0.3,0.3-0.7,0.4-1.1,0.4
		c-1.5,0-2.9-0.6-3.9-1.7c-1.3-1.4-2.1-3.1-2.5-4.9l0.4-0.4l-0.6-1.4c0.1-0.6,0.4-1.1,0.6-1.8l0.4-1.7c0.1-0.6,0.4-1.1,1-1.5
		c0.4-0.3,1-0.6,1.5-0.4c1,0,2,0.3,2.8,0.8c1,0.6,1.7,1.4,2.2,2.4C945.3,792.7,945.8,794.8,945.8,797L945.8,797z"/>
</g>
</svg>
